<?xml version="1.0" encoding="utf-8" standalone="no"?>
<!DOCTYPE svg PUBLIC "-//W3C//DTD SVG 1.1//EN"
  "http://www.w3.org/Graphics/SVG/1.1/DTD/svg11.dtd">
<!-- Created with matplotlib (https://matplotlib.org/) -->
<svg height="360pt" version="1.1" viewBox="0 0 576 360" width="576pt" xmlns="http://www.w3.org/2000/svg" xmlns:xlink="http://www.w3.org/1999/xlink">
 <metadata>
  <rdf:RDF xmlns:cc="http://creativecommons.org/ns#" xmlns:dc="http://purl.org/dc/elements/1.1/" xmlns:rdf="http://www.w3.org/1999/02/22-rdf-syntax-ns#">
   <cc:Work>
    <dc:type rdf:resource="http://purl.org/dc/dcmitype/StillImage"/>
    <dc:date>2020-11-16T10:25:20.228858</dc:date>
    <dc:format>image/svg+xml</dc:format>
    <dc:creator>
     <cc:Agent>
      <dc:title>Matplotlib v3.3.1, https://matplotlib.org/</dc:title>
     </cc:Agent>
    </dc:creator>
   </cc:Work>
  </rdf:RDF>
 </metadata>
 <defs>
  <style type="text/css">*{stroke-linecap:butt;stroke-linejoin:round;}</style>
 </defs>
 <g id="figure_1">
  <g id="patch_1">
   <path d="M 0 360 
L 576 360 
L 576 0 
L 0 0 
z
" style="fill:none;"/>
  </g>
  <g id="axes_1">
   <g id="patch_2">
    <path d="M 10.8 349.2 
L 565.2 349.2 
L 565.2 10.8 
L 10.8 10.8 
z
" style="fill:#ffffff;"/>
   </g>
   <g id="matplotlib.axis_1">
    <g id="xtick_1">
     <g id="line2d_1">
      <path clip-path="url(#pb4ed39ed3e)" d="M 33.435 349.2 
L 33.435 10.8 
" style="fill:none;stroke:#b0b0b0;stroke-linecap:square;stroke-width:0.8;"/>
     </g>
    </g>
    <g id="xtick_2">
     <g id="line2d_2">
      <path clip-path="url(#pb4ed39ed3e)" d="M 140.545008 349.2 
L 140.545008 10.8 
" style="fill:none;stroke:#b0b0b0;stroke-linecap:square;stroke-width:0.8;"/>
     </g>
    </g>
    <g id="xtick_3">
     <g id="line2d_3">
      <path clip-path="url(#pb4ed39ed3e)" d="M 247.655016 349.2 
L 247.655016 10.8 
" style="fill:none;stroke:#b0b0b0;stroke-linecap:square;stroke-width:0.8;"/>
     </g>
    </g>
    <g id="xtick_4">
     <g id="line2d_4">
      <path clip-path="url(#pb4ed39ed3e)" d="M 354.765023 349.2 
L 354.765023 10.8 
" style="fill:none;stroke:#b0b0b0;stroke-linecap:square;stroke-width:0.8;"/>
     </g>
    </g>
    <g id="xtick_5">
     <g id="line2d_5">
      <path clip-path="url(#pb4ed39ed3e)" d="M 461.875031 349.2 
L 461.875031 10.8 
" style="fill:none;stroke:#b0b0b0;stroke-linecap:square;stroke-width:0.8;"/>
     </g>
    </g>
   </g>
   <g id="matplotlib.axis_2">
    <g id="ytick_1">
     <g id="line2d_6">
      <path clip-path="url(#pb4ed39ed3e)" d="M 10.8 325.415005 
L 565.2 325.415005 
" style="fill:none;stroke:#b0b0b0;stroke-linecap:square;stroke-width:0.8;"/>
     </g>
    </g>
    <g id="ytick_2">
     <g id="line2d_7">
      <path clip-path="url(#pb4ed39ed3e)" d="M 10.8 274.219067 
L 565.2 274.219067 
" style="fill:none;stroke:#b0b0b0;stroke-linecap:square;stroke-width:0.8;"/>
     </g>
    </g>
    <g id="ytick_3">
     <g id="line2d_8">
      <path clip-path="url(#pb4ed39ed3e)" d="M 10.8 223.023128 
L 565.2 223.023128 
" style="fill:none;stroke:#b0b0b0;stroke-linecap:square;stroke-width:0.8;"/>
     </g>
    </g>
    <g id="ytick_4">
     <g id="line2d_9">
      <path clip-path="url(#pb4ed39ed3e)" d="M 10.8 171.82719 
L 565.2 171.82719 
" style="fill:none;stroke:#b0b0b0;stroke-linecap:square;stroke-width:0.8;"/>
     </g>
    </g>
    <g id="ytick_5">
     <g id="line2d_10">
      <path clip-path="url(#pb4ed39ed3e)" d="M 10.8 120.631252 
L 565.2 120.631252 
" style="fill:none;stroke:#b0b0b0;stroke-linecap:square;stroke-width:0.8;"/>
     </g>
    </g>
    <g id="ytick_6">
     <g id="line2d_11">
      <path clip-path="url(#pb4ed39ed3e)" d="M 10.8 69.435314 
L 565.2 69.435314 
" style="fill:none;stroke:#b0b0b0;stroke-linecap:square;stroke-width:0.8;"/>
     </g>
    </g>
    <g id="ytick_7">
     <g id="line2d_12">
      <path clip-path="url(#pb4ed39ed3e)" d="M 10.8 18.239376 
L 565.2 18.239376 
" style="fill:none;stroke:#b0b0b0;stroke-linecap:square;stroke-width:0.8;"/>
     </g>
    </g>
   </g>
   <g id="line2d_13">
    <path clip-path="url(#pb4ed39ed3e)" d="M 526.141036 274.219067 
L 524.513968 268.161851 
L 520.351004 262.344937 
L 513.849761 256.994625 
L 505.296893 252.313525 
L 495.047871 248.471789 
L 483.509847 245.601017 
L 471.111663 243.790897 
L 458.288118 243.091672 
L 445.472473 243.51675 
L 433.091158 245.044453 
L 421.535126 247.621577 
L 411.189036 251.162696 
L 402.404944 255.550388 
L 395.503779 260.633288 
L 390.752714 266.227213 
L 388.351843 272.119161 
L 388.41718 278.080464 
L 390.968809 283.864821 
L 395.926261 289.235043 
L 403.10618 293.959836 
L 412.226329 297.830553 
L 422.907942 300.667872 
L 434.680202 302.330404 
L 447.009233 302.726069 
L 445.237433 302.403654 
L 442.120666 302.302886 
L 438.982209 302.43794 
L 435.861358 302.804782 
L 432.778062 303.392728 
L 429.751602 304.185793 
L 426.800788 305.163419 
L 423.910692 306.303737 
L 421.071541 307.584179 
L 418.246247 308.983572 
L 415.395514 310.484149 
L 412.4688 312.069755 
L 409.404115 313.727684 
L 406.134247 315.448575 
L 402.583952 317.223934 
L 398.673231 319.04637 
L 394.317804 320.908318 
L 389.428834 322.800636 
L 383.916418 324.711336 
L 377.692456 326.624753 
L 370.674441 328.519574 
L 362.792584 330.370555 
L 353.995204 332.147538 
L 344.256059 333.818182 
" style="fill:none;stroke:#1f77b4;stroke-linecap:square;stroke-width:1.5;"/>
    <defs>
     <path d="M 0 2 
C 0.530406 2 1.03916 1.789267 1.414214 1.414214 
C 1.789267 1.03916 2 0.530406 2 0 
C 2 -0.530406 1.789267 -1.03916 1.414214 -1.414214 
C 1.03916 -1.789267 0.530406 -2 0 -2 
C -0.530406 -2 -1.03916 -1.789267 -1.414214 -1.414214 
C -1.789267 -1.03916 -2 -0.530406 -2 0 
C -2 0.530406 -1.789267 1.03916 -1.414214 1.414214 
C -1.03916 1.789267 -0.530406 2 0 2 
z
" id="m1060b903f5" style="stroke:#1f77b4;"/>
    </defs>
    <g clip-path="url(#pb4ed39ed3e)">
     <use style="fill:#1f77b4;stroke:#1f77b4;" x="526.141036" xlink:href="#m1060b903f5" y="274.219067"/>
     <use style="fill:#1f77b4;stroke:#1f77b4;" x="524.513968" xlink:href="#m1060b903f5" y="268.161851"/>
     <use style="fill:#1f77b4;stroke:#1f77b4;" x="520.351004" xlink:href="#m1060b903f5" y="262.344937"/>
     <use style="fill:#1f77b4;stroke:#1f77b4;" x="513.849761" xlink:href="#m1060b903f5" y="256.994625"/>
     <use style="fill:#1f77b4;stroke:#1f77b4;" x="505.296893" xlink:href="#m1060b903f5" y="252.313525"/>
     <use style="fill:#1f77b4;stroke:#1f77b4;" x="495.047871" xlink:href="#m1060b903f5" y="248.471789"/>
     <use style="fill:#1f77b4;stroke:#1f77b4;" x="483.509847" xlink:href="#m1060b903f5" y="245.601017"/>
     <use style="fill:#1f77b4;stroke:#1f77b4;" x="471.111663" xlink:href="#m1060b903f5" y="243.790897"/>
     <use style="fill:#1f77b4;stroke:#1f77b4;" x="458.288118" xlink:href="#m1060b903f5" y="243.091672"/>
     <use style="fill:#1f77b4;stroke:#1f77b4;" x="445.472473" xlink:href="#m1060b903f5" y="243.51675"/>
     <use style="fill:#1f77b4;stroke:#1f77b4;" x="433.091158" xlink:href="#m1060b903f5" y="245.044453"/>
     <use style="fill:#1f77b4;stroke:#1f77b4;" x="421.535126" xlink:href="#m1060b903f5" y="247.621577"/>
     <use style="fill:#1f77b4;stroke:#1f77b4;" x="411.189036" xlink:href="#m1060b903f5" y="251.162696"/>
     <use style="fill:#1f77b4;stroke:#1f77b4;" x="402.404944" xlink:href="#m1060b903f5" y="255.550388"/>
     <use style="fill:#1f77b4;stroke:#1f77b4;" x="395.503779" xlink:href="#m1060b903f5" y="260.633288"/>
     <use style="fill:#1f77b4;stroke:#1f77b4;" x="390.752714" xlink:href="#m1060b903f5" y="266.227213"/>
     <use style="fill:#1f77b4;stroke:#1f77b4;" x="388.351843" xlink:href="#m1060b903f5" y="272.119161"/>
     <use style="fill:#1f77b4;stroke:#1f77b4;" x="388.41718" xlink:href="#m1060b903f5" y="278.080464"/>
     <use style="fill:#1f77b4;stroke:#1f77b4;" x="390.968809" xlink:href="#m1060b903f5" y="283.864821"/>
     <use style="fill:#1f77b4;stroke:#1f77b4;" x="395.926261" xlink:href="#m1060b903f5" y="289.235043"/>
     <use style="fill:#1f77b4;stroke:#1f77b4;" x="403.10618" xlink:href="#m1060b903f5" y="293.959836"/>
     <use style="fill:#1f77b4;stroke:#1f77b4;" x="412.226329" xlink:href="#m1060b903f5" y="297.830553"/>
     <use style="fill:#1f77b4;stroke:#1f77b4;" x="422.907942" xlink:href="#m1060b903f5" y="300.667872"/>
     <use style="fill:#1f77b4;stroke:#1f77b4;" x="434.680202" xlink:href="#m1060b903f5" y="302.330404"/>
     <use style="fill:#1f77b4;stroke:#1f77b4;" x="447.009233" xlink:href="#m1060b903f5" y="302.726069"/>
     <use style="fill:#1f77b4;stroke:#1f77b4;" x="445.237433" xlink:href="#m1060b903f5" y="302.403654"/>
     <use style="fill:#1f77b4;stroke:#1f77b4;" x="442.120666" xlink:href="#m1060b903f5" y="302.302886"/>
     <use style="fill:#1f77b4;stroke:#1f77b4;" x="438.982209" xlink:href="#m1060b903f5" y="302.43794"/>
     <use style="fill:#1f77b4;stroke:#1f77b4;" x="435.861358" xlink:href="#m1060b903f5" y="302.804782"/>
     <use style="fill:#1f77b4;stroke:#1f77b4;" x="432.778062" xlink:href="#m1060b903f5" y="303.392728"/>
     <use style="fill:#1f77b4;stroke:#1f77b4;" x="429.751602" xlink:href="#m1060b903f5" y="304.185793"/>
     <use style="fill:#1f77b4;stroke:#1f77b4;" x="426.800788" xlink:href="#m1060b903f5" y="305.163419"/>
     <use style="fill:#1f77b4;stroke:#1f77b4;" x="423.910692" xlink:href="#m1060b903f5" y="306.303737"/>
     <use style="fill:#1f77b4;stroke:#1f77b4;" x="421.071541" xlink:href="#m1060b903f5" y="307.584179"/>
     <use style="fill:#1f77b4;stroke:#1f77b4;" x="418.246247" xlink:href="#m1060b903f5" y="308.983572"/>
     <use style="fill:#1f77b4;stroke:#1f77b4;" x="415.395514" xlink:href="#m1060b903f5" y="310.484149"/>
     <use style="fill:#1f77b4;stroke:#1f77b4;" x="412.4688" xlink:href="#m1060b903f5" y="312.069755"/>
     <use style="fill:#1f77b4;stroke:#1f77b4;" x="409.404115" xlink:href="#m1060b903f5" y="313.727684"/>
     <use style="fill:#1f77b4;stroke:#1f77b4;" x="406.134247" xlink:href="#m1060b903f5" y="315.448575"/>
     <use style="fill:#1f77b4;stroke:#1f77b4;" x="402.583952" xlink:href="#m1060b903f5" y="317.223934"/>
     <use style="fill:#1f77b4;stroke:#1f77b4;" x="398.673231" xlink:href="#m1060b903f5" y="319.04637"/>
     <use style="fill:#1f77b4;stroke:#1f77b4;" x="394.317804" xlink:href="#m1060b903f5" y="320.908318"/>
     <use style="fill:#1f77b4;stroke:#1f77b4;" x="389.428834" xlink:href="#m1060b903f5" y="322.800636"/>
     <use style="fill:#1f77b4;stroke:#1f77b4;" x="383.916418" xlink:href="#m1060b903f5" y="324.711336"/>
     <use style="fill:#1f77b4;stroke:#1f77b4;" x="377.692456" xlink:href="#m1060b903f5" y="326.624753"/>
     <use style="fill:#1f77b4;stroke:#1f77b4;" x="370.674441" xlink:href="#m1060b903f5" y="328.519574"/>
     <use style="fill:#1f77b4;stroke:#1f77b4;" x="362.792584" xlink:href="#m1060b903f5" y="330.370555"/>
     <use style="fill:#1f77b4;stroke:#1f77b4;" x="353.995204" xlink:href="#m1060b903f5" y="332.147538"/>
     <use style="fill:#1f77b4;stroke:#1f77b4;" x="344.256059" xlink:href="#m1060b903f5" y="333.818182"/>
    </g>
   </g>
   <g id="line2d_14">
    <path clip-path="url(#pb4ed39ed3e)" d="M 526.141036 89.91369 
L 532.701658 84.521509 
L 537.228595 78.705587 
L 539.662403 72.624533 
L 540 66.434624 
L 538.286173 60.278025 
L 534.606476 54.29434 
L 529.082946 48.612582 
L 521.869221 43.355528 
L 513.148927 38.634078 
L 503.127179 34.549538 
L 492.030582 31.192013 
L 480.102611 28.637943 
L 467.597651 26.951325 
L 454.788299 26.181818 
L 441.950963 26.363436 
L 429.376583 27.513041 
L 417.372631 29.627337 
L 406.258829 32.678071 
L 396.360057 36.607679 
L 388.000924 41.323401 
L 381.485824 46.695935 
L 377.082833 52.556942 
L 374.998338 58.705894 
L 375.360604 64.920793 
L 363.848923 71.000534 
L 352.391901 76.681715 
L 341.418614 81.705349 
L 330.300094 85.973074 
L 318.657805 89.48086 
L 306.321242 92.276254 
L 293.270323 94.434771 
L 279.57594 96.046899 
L 265.352601 97.209431 
L 250.725592 98.017495 
L 235.807912 98.558188 
L 220.692749 98.906352 
L 205.449689 99.121727 
L 190.127703 99.249845 
L 174.75899 99.323023 
L 159.363834 99.36318 
L 143.954353 99.384362 
L 128.53744 99.395145 
L 113.116812 99.400361 
L 97.694427 99.402793 
L 82.271189 99.403881 
L 66.847599 99.404361 
L 51.423841 99.404553 
L 36 99.404553 
" style="fill:none;stroke:#ff7f0e;stroke-linecap:square;stroke-width:1.5;"/>
    <defs>
     <path d="M 0 2 
C 0.530406 2 1.03916 1.789267 1.414214 1.414214 
C 1.789267 1.03916 2 0.530406 2 0 
C 2 -0.530406 1.789267 -1.03916 1.414214 -1.414214 
C 1.03916 -1.789267 0.530406 -2 0 -2 
C -0.530406 -2 -1.03916 -1.789267 -1.414214 -1.414214 
C -1.789267 -1.03916 -2 -0.530406 -2 0 
C -2 0.530406 -1.789267 1.03916 -1.414214 1.414214 
C -1.03916 1.789267 -0.530406 2 0 2 
z
" id="ma5f1a17ec7" style="stroke:#ff7f0e;"/>
    </defs>
    <g clip-path="url(#pb4ed39ed3e)">
     <use style="fill:#ff7f0e;stroke:#ff7f0e;" x="526.141036" xlink:href="#ma5f1a17ec7" y="89.91369"/>
     <use style="fill:#ff7f0e;stroke:#ff7f0e;" x="532.701658" xlink:href="#ma5f1a17ec7" y="84.521509"/>
     <use style="fill:#ff7f0e;stroke:#ff7f0e;" x="537.228595" xlink:href="#ma5f1a17ec7" y="78.705587"/>
     <use style="fill:#ff7f0e;stroke:#ff7f0e;" x="539.662403" xlink:href="#ma5f1a17ec7" y="72.624533"/>
     <use style="fill:#ff7f0e;stroke:#ff7f0e;" x="540" xlink:href="#ma5f1a17ec7" y="66.434624"/>
     <use style="fill:#ff7f0e;stroke:#ff7f0e;" x="538.286173" xlink:href="#ma5f1a17ec7" y="60.278025"/>
     <use style="fill:#ff7f0e;stroke:#ff7f0e;" x="534.606476" xlink:href="#ma5f1a17ec7" y="54.29434"/>
     <use style="fill:#ff7f0e;stroke:#ff7f0e;" x="529.082946" xlink:href="#ma5f1a17ec7" y="48.612582"/>
     <use style="fill:#ff7f0e;stroke:#ff7f0e;" x="521.869221" xlink:href="#ma5f1a17ec7" y="43.355528"/>
     <use style="fill:#ff7f0e;stroke:#ff7f0e;" x="513.148927" xlink:href="#ma5f1a17ec7" y="38.634078"/>
     <use style="fill:#ff7f0e;stroke:#ff7f0e;" x="503.127179" xlink:href="#ma5f1a17ec7" y="34.549538"/>
     <use style="fill:#ff7f0e;stroke:#ff7f0e;" x="492.030582" xlink:href="#ma5f1a17ec7" y="31.192013"/>
     <use style="fill:#ff7f0e;stroke:#ff7f0e;" x="480.102611" xlink:href="#ma5f1a17ec7" y="28.637943"/>
     <use style="fill:#ff7f0e;stroke:#ff7f0e;" x="467.597651" xlink:href="#ma5f1a17ec7" y="26.951325"/>
     <use style="fill:#ff7f0e;stroke:#ff7f0e;" x="454.788299" xlink:href="#ma5f1a17ec7" y="26.181818"/>
     <use style="fill:#ff7f0e;stroke:#ff7f0e;" x="441.950963" xlink:href="#ma5f1a17ec7" y="26.363436"/>
     <use style="fill:#ff7f0e;stroke:#ff7f0e;" x="429.376583" xlink:href="#ma5f1a17ec7" y="27.513041"/>
     <use style="fill:#ff7f0e;stroke:#ff7f0e;" x="417.372631" xlink:href="#ma5f1a17ec7" y="29.627337"/>
     <use style="fill:#ff7f0e;stroke:#ff7f0e;" x="406.258829" xlink:href="#ma5f1a17ec7" y="32.678071"/>
     <use style="fill:#ff7f0e;stroke:#ff7f0e;" x="396.360057" xlink:href="#ma5f1a17ec7" y="36.607679"/>
     <use style="fill:#ff7f0e;stroke:#ff7f0e;" x="388.000924" xlink:href="#ma5f1a17ec7" y="41.323401"/>
     <use style="fill:#ff7f0e;stroke:#ff7f0e;" x="381.485824" xlink:href="#ma5f1a17ec7" y="46.695935"/>
     <use style="fill:#ff7f0e;stroke:#ff7f0e;" x="377.082833" xlink:href="#ma5f1a17ec7" y="52.556942"/>
     <use style="fill:#ff7f0e;stroke:#ff7f0e;" x="374.998338" xlink:href="#ma5f1a17ec7" y="58.705894"/>
     <use style="fill:#ff7f0e;stroke:#ff7f0e;" x="375.360604" xlink:href="#ma5f1a17ec7" y="64.920793"/>
     <use style="fill:#ff7f0e;stroke:#ff7f0e;" x="363.848923" xlink:href="#ma5f1a17ec7" y="71.000534"/>
     <use style="fill:#ff7f0e;stroke:#ff7f0e;" x="352.391901" xlink:href="#ma5f1a17ec7" y="76.681715"/>
     <use style="fill:#ff7f0e;stroke:#ff7f0e;" x="341.418614" xlink:href="#ma5f1a17ec7" y="81.705349"/>
     <use style="fill:#ff7f0e;stroke:#ff7f0e;" x="330.300094" xlink:href="#ma5f1a17ec7" y="85.973074"/>
     <use style="fill:#ff7f0e;stroke:#ff7f0e;" x="318.657805" xlink:href="#ma5f1a17ec7" y="89.48086"/>
     <use style="fill:#ff7f0e;stroke:#ff7f0e;" x="306.321242" xlink:href="#ma5f1a17ec7" y="92.276254"/>
     <use style="fill:#ff7f0e;stroke:#ff7f0e;" x="293.270323" xlink:href="#ma5f1a17ec7" y="94.434771"/>
     <use style="fill:#ff7f0e;stroke:#ff7f0e;" x="279.57594" xlink:href="#ma5f1a17ec7" y="96.046899"/>
     <use style="fill:#ff7f0e;stroke:#ff7f0e;" x="265.352601" xlink:href="#ma5f1a17ec7" y="97.209431"/>
     <use style="fill:#ff7f0e;stroke:#ff7f0e;" x="250.725592" xlink:href="#ma5f1a17ec7" y="98.017495"/>
     <use style="fill:#ff7f0e;stroke:#ff7f0e;" x="235.807912" xlink:href="#ma5f1a17ec7" y="98.558188"/>
     <use style="fill:#ff7f0e;stroke:#ff7f0e;" x="220.692749" xlink:href="#ma5f1a17ec7" y="98.906352"/>
     <use style="fill:#ff7f0e;stroke:#ff7f0e;" x="205.449689" xlink:href="#ma5f1a17ec7" y="99.121727"/>
     <use style="fill:#ff7f0e;stroke:#ff7f0e;" x="190.127703" xlink:href="#ma5f1a17ec7" y="99.249845"/>
     <use style="fill:#ff7f0e;stroke:#ff7f0e;" x="174.75899" xlink:href="#ma5f1a17ec7" y="99.323023"/>
     <use style="fill:#ff7f0e;stroke:#ff7f0e;" x="159.363834" xlink:href="#ma5f1a17ec7" y="99.36318"/>
     <use style="fill:#ff7f0e;stroke:#ff7f0e;" x="143.954353" xlink:href="#ma5f1a17ec7" y="99.384362"/>
     <use style="fill:#ff7f0e;stroke:#ff7f0e;" x="128.53744" xlink:href="#ma5f1a17ec7" y="99.395145"/>
     <use style="fill:#ff7f0e;stroke:#ff7f0e;" x="113.116812" xlink:href="#ma5f1a17ec7" y="99.400361"/>
     <use style="fill:#ff7f0e;stroke:#ff7f0e;" x="97.694427" xlink:href="#ma5f1a17ec7" y="99.402793"/>
     <use style="fill:#ff7f0e;stroke:#ff7f0e;" x="82.271189" xlink:href="#ma5f1a17ec7" y="99.403881"/>
     <use style="fill:#ff7f0e;stroke:#ff7f0e;" x="66.847599" xlink:href="#ma5f1a17ec7" y="99.404361"/>
     <use style="fill:#ff7f0e;stroke:#ff7f0e;" x="51.423841" xlink:href="#ma5f1a17ec7" y="99.404553"/>
     <use style="fill:#ff7f0e;stroke:#ff7f0e;" x="36" xlink:href="#ma5f1a17ec7" y="99.404553"/>
    </g>
   </g>
   <g id="patch_3">
    <path d="M 10.8 349.2 
L 10.8 10.8 
" style="fill:none;stroke:#000000;stroke-linecap:square;stroke-linejoin:miter;stroke-width:0.8;"/>
   </g>
   <g id="patch_4">
    <path d="M 565.2 349.2 
L 565.2 10.8 
" style="fill:none;stroke:#000000;stroke-linecap:square;stroke-linejoin:miter;stroke-width:0.8;"/>
   </g>
   <g id="patch_5">
    <path d="M 10.8 349.2 
L 565.2 349.2 
" style="fill:none;stroke:#000000;stroke-linecap:square;stroke-linejoin:miter;stroke-width:0.8;"/>
   </g>
   <g id="patch_6">
    <path d="M 10.8 10.8 
L 565.2 10.8 
" style="fill:none;stroke:#000000;stroke-linecap:square;stroke-linejoin:miter;stroke-width:0.8;"/>
   </g>
  </g>
 </g>
 <defs>
  <clipPath id="pb4ed39ed3e">
   <rect height="338.4" width="554.4" x="10.8" y="10.8"/>
  </clipPath>
 </defs>
</svg>
