<?xml version="1.0" encoding="utf-8" standalone="no"?>
<!DOCTYPE svg PUBLIC "-//W3C//DTD SVG 1.1//EN"
  "http://www.w3.org/Graphics/SVG/1.1/DTD/svg11.dtd">
<!-- Created with matplotlib (https://matplotlib.org/) -->
<svg height="360pt" version="1.1" viewBox="0 0 576 360" width="576pt" xmlns="http://www.w3.org/2000/svg" xmlns:xlink="http://www.w3.org/1999/xlink">
 <metadata>
  <rdf:RDF xmlns:cc="http://creativecommons.org/ns#" xmlns:dc="http://purl.org/dc/elements/1.1/" xmlns:rdf="http://www.w3.org/1999/02/22-rdf-syntax-ns#">
   <cc:Work>
    <dc:type rdf:resource="http://purl.org/dc/dcmitype/StillImage"/>
    <dc:date>2020-11-16T13:31:39.546429</dc:date>
    <dc:format>image/svg+xml</dc:format>
    <dc:creator>
     <cc:Agent>
      <dc:title>Matplotlib v3.3.1, https://matplotlib.org/</dc:title>
     </cc:Agent>
    </dc:creator>
   </cc:Work>
  </rdf:RDF>
 </metadata>
 <defs>
  <style type="text/css">*{stroke-linecap:butt;stroke-linejoin:round;}</style>
 </defs>
 <g id="figure_1">
  <g id="patch_1">
   <path d="M 0 360
L 576 360
L 576 0
L 0 0
z
" style="fill:none;"/>
  </g>
  <g id="axes_1">
   <g id="patch_2">
    <path d="M 10.8 349.2
L 565.2 349.2
L 565.2 10.8
L 10.8 10.8
z
" style="fill:#ffffff;"/>
   </g>
   <g id="matplotlib.axis_1">
    <g id="xtick_1">
     <g id="line2d_1">
      <path clip-path="url(#p58361d0978)" d="M 23.4 349.2
L 23.4 10.8
" style="fill:none;stroke:#b0b0b0;stroke-linecap:square;stroke-width:0.8;"/>
     </g>
    </g>
    <g id="xtick_2">
     <g id="line2d_2">
      <path clip-path="url(#p58361d0978)" d="M 86.4 349.2
L 86.4 10.8
" style="fill:none;stroke:#b0b0b0;stroke-linecap:square;stroke-width:0.8;"/>
     </g>
    </g>
    <g id="xtick_3">
     <g id="line2d_3">
      <path clip-path="url(#p58361d0978)" d="M 149.4 349.2
L 149.4 10.8
" style="fill:none;stroke:#b0b0b0;stroke-linecap:square;stroke-width:0.8;"/>
     </g>
    </g>
    <g id="xtick_4">
     <g id="line2d_4">
      <path clip-path="url(#p58361d0978)" d="M 212.4 349.2
L 212.4 10.8
" style="fill:none;stroke:#b0b0b0;stroke-linecap:square;stroke-width:0.8;"/>
     </g>
    </g>
    <g id="xtick_5">
     <g id="line2d_5">
      <path clip-path="url(#p58361d0978)" d="M 275.4 349.2
L 275.4 10.8
" style="fill:none;stroke:#b0b0b0;stroke-linecap:square;stroke-width:0.8;"/>
     </g>
    </g>
    <g id="xtick_6">
     <g id="line2d_6">
      <path clip-path="url(#p58361d0978)" d="M 338.4 349.2
L 338.4 10.8
" style="fill:none;stroke:#b0b0b0;stroke-linecap:square;stroke-width:0.8;"/>
     </g>
    </g>
    <g id="xtick_7">
     <g id="line2d_7">
      <path clip-path="url(#p58361d0978)" d="M 401.4 349.2
L 401.4 10.8
" style="fill:none;stroke:#b0b0b0;stroke-linecap:square;stroke-width:0.8;"/>
     </g>
    </g>
    <g id="xtick_8">
     <g id="line2d_8">
      <path clip-path="url(#p58361d0978)" d="M 464.4 349.2
L 464.4 10.8
" style="fill:none;stroke:#b0b0b0;stroke-linecap:square;stroke-width:0.8;"/>
     </g>
    </g>
    <g id="xtick_9">
     <g id="line2d_9">
      <path clip-path="url(#p58361d0978)" d="M 527.4 349.2
L 527.4 10.8
" style="fill:none;stroke:#b0b0b0;stroke-linecap:square;stroke-width:0.8;"/>
     </g>
    </g>
   </g>
   <g id="matplotlib.axis_2">
    <g id="ytick_1">
     <g id="line2d_10">
      <path clip-path="url(#p58361d0978)" d="M 10.8 333.818182
L 565.2 333.818182
" style="fill:none;stroke:#b0b0b0;stroke-linecap:square;stroke-width:0.8;"/>
     </g>
    </g>
    <g id="ytick_2">
     <g id="line2d_11">
      <path clip-path="url(#p58361d0978)" d="M 10.8 295.363636
L 565.2 295.363636
" style="fill:none;stroke:#b0b0b0;stroke-linecap:square;stroke-width:0.8;"/>
     </g>
    </g>
    <g id="ytick_3">
     <g id="line2d_12">
      <path clip-path="url(#p58361d0978)" d="M 10.8 256.909091
L 565.2 256.909091
" style="fill:none;stroke:#b0b0b0;stroke-linecap:square;stroke-width:0.8;"/>
     </g>
    </g>
    <g id="ytick_4">
     <g id="line2d_13">
      <path clip-path="url(#p58361d0978)" d="M 10.8 218.454545
L 565.2 218.454545
" style="fill:none;stroke:#b0b0b0;stroke-linecap:square;stroke-width:0.8;"/>
     </g>
    </g>
    <g id="ytick_5">
     <g id="line2d_14">
      <path clip-path="url(#p58361d0978)" d="M 10.8 180
L 565.2 180
" style="fill:none;stroke:#b0b0b0;stroke-linecap:square;stroke-width:0.8;"/>
     </g>
    </g>
    <g id="ytick_6">
     <g id="line2d_15">
      <path clip-path="url(#p58361d0978)" d="M 10.8 141.545455
L 565.2 141.545455
" style="fill:none;stroke:#b0b0b0;stroke-linecap:square;stroke-width:0.8;"/>
     </g>
    </g>
    <g id="ytick_7">
     <g id="line2d_16">
      <path clip-path="url(#p58361d0978)" d="M 10.8 103.090909
L 565.2 103.090909
" style="fill:none;stroke:#b0b0b0;stroke-linecap:square;stroke-width:0.8;"/>
     </g>
    </g>
    <g id="ytick_8">
     <g id="line2d_17">
      <path clip-path="url(#p58361d0978)" d="M 10.8 64.636364
L 565.2 64.636364
" style="fill:none;stroke:#b0b0b0;stroke-linecap:square;stroke-width:0.8;"/>
     </g>
    </g>
    <g id="ytick_9">
     <g id="line2d_18">
      <path clip-path="url(#p58361d0978)" d="M 10.8 26.181818
L 565.2 26.181818
" style="fill:none;stroke:#b0b0b0;stroke-linecap:square;stroke-width:0.8;"/>
     </g>
    </g>
   </g>
   <g id="line2d_19">
    <path clip-path="url(#p58361d0978)" d="M 86.4 180
L 87.66 176.43612
L 88.92 173.435398
L 90.18 171.39604
L 91.44 170.71625
L 92.7 171.39604
L 93.96 173.435398
L 95.22 176.43612
L 97.74 183.56388
L 99 186.564602
L 100.26 188.603965
L 101.52 189.283754
L 102.78 188.603965
L 104.04 186.564602
L 105.3 183.563875
L 107.82 176.43611
L 109.08 173.435388
L 110.34 171.39603
L 111.6 170.716241
L 112.86 171.39603
L 114.12 173.435388
L 115.38 176.43611
L 117.9 183.563871
L 119.16 186.564593
L 120.42 188.603951
L 121.68 189.283736
L 122.94 188.603946
L 124.2 186.564583
L 125.46 183.563857
L 127.98 176.436092
L 129.24 173.43537
L 130.5 171.396011
L 131.76 170.716222
L 133.02 171.396011
L 134.28 173.43537
L 135.54 176.436092
L 140.58 190.671108
L 143.1 196.823835
L 145.62 202.207472
L 148.14 206.822017
L 150.66 210.667472
L 151.92 212.30179
L 153.18 213.743835
L 154.44 214.993608
L 155.7 216.051108
L 156.96 216.916335
L 158.22 217.58929
L 159.48 218.069972
L 160.74 218.358381
L 162 218.454517
L 163.26 218.358381
L 164.52 218.069972
L 165.78 217.58929
L 167.04 216.916335
L 168.3 216.051108
L 169.56 214.993608
L 170.82 213.743835
L 172.08 212.30179
L 173.34 210.667472
L 175.86 206.822017
L 178.38 202.207472
L 180.9 196.823835
L 183.42 190.671108
L 185.94 183.74929
L 189.72 172.693599
L 192.24 166.156326
L 194.76 160.388144
L 197.28 155.389053
L 199.8 151.159053
L 202.32 147.698144
L 203.58 146.256099
L 204.84 145.006326
L 206.1 143.948826
L 207.36 143.083599
L 208.62 142.410644
L 209.88 141.929962
L 211.14 141.641553
L 212.4 141.545417
L 213.66 141.641553
L 214.92 141.929962
L 216.18 142.410644
L 217.44 143.083599
L 218.7 143.948826
L 219.96 145.006326
L 221.22 146.256099
L 222.48 147.698144
L 223.74 149.332462
L 226.26 153.177917
L 228.78 157.792462
L 231.3 163.176099
L 233.82 169.328826
L 236.34 176.250644
L 240.12 187.306331
L 242.64 193.843604
L 245.16 199.611785
L 247.68 204.610876
L 250.2 208.840876
L 252.72 212.301785
L 253.98 213.743831
L 255.24 214.993604
L 256.5 216.051104
L 257.76 216.916331
L 259.02 217.589285
L 260.28 218.069967
L 261.54 218.358376
L 262.8 218.454513
L 264.06 218.358376
L 265.32 218.069967
L 266.58 217.589285
L 267.84 216.916331
L 269.1 216.051104
L 270.36 214.993604
L 271.62 213.743831
L 272.88 212.301785
L 274.14 210.667467
L 276.66 206.822013
L 279.18 202.207467
L 281.7 196.823831
L 284.22 190.671104
L 286.74 183.749285
L 290.52 172.693599
L 293.04 166.156326
L 295.56 160.388144
L 298.08 155.389053
L 300.6 151.159053
L 303.12 147.698144
L 304.38 146.256099
L 305.64 145.006326
L 306.9 143.948826
L 308.16 143.083599
L 309.42 142.410644
L 310.68 141.929962
L 311.94 141.641553
L 313.2 141.545417
L 314.46 141.641553
L 315.72 141.929962
L 316.98 142.410644
L 318.24 143.083599
L 319.5 143.948826
L 320.76 145.006326
L 322.02 146.256099
L 323.28 147.698144
L 324.54 149.332462
L 327.06 153.177917
L 329.58 157.792462
L 332.1 163.176099
L 334.62 169.328826
L 337.14 176.250644
L 340.92 187.306331
L 343.44 193.843604
L 345.96 199.611785
L 348.48 204.610876
L 351 208.840876
L 353.52 212.301785
L 354.78 213.743831
L 356.04 214.993604
L 357.3 216.051104
L 358.56 216.916331
L 359.82 217.589285
L 361.08 218.069967
L 362.34 218.358376
L 363.6 218.454513
L 364.86 218.358376
L 366.12 218.069967
L 367.38 217.589285
L 368.64 216.916331
L 369.9 216.051104
L 371.16 214.993604
L 372.42 213.743831
L 373.68 212.301785
L 374.94 210.667467
L 377.46 206.822013
L 379.98 202.207467
L 382.5 196.823831
L 385.02 190.671104
L 387.54 183.749285
L 391.32 172.693599
L 393.84 166.156326
L 396.36 160.388144
L 398.88 155.389053
L 401.4 151.159053
L 403.92 147.698144
L 405.18 146.256099
L 406.44 145.006326
L 407.7 143.948826
L 408.96 143.083599
L 410.22 142.410644
L 411.48 141.929962
L 412.74 141.641553
L 414 141.545417
L 415.26 141.641553
L 416.52 141.929962
L 417.78 142.410644
L 419.04 143.083599
L 420.3 143.948826
L 421.56 145.006326
L 422.82 146.256099
L 424.08 147.698144
L 425.34 149.332462
L 427.86 153.177917
L 430.38 157.792462
L 432.9 163.176099
L 435.42 169.328826
L 437.94 176.250644
L 439.2 179.999967
L 439.2 179.999967
" style="fill:none;stroke:#1f77b4;stroke-linecap:square;stroke-width:1.5;"/>
    <defs>
     <path d="M 0 2.5
C 0.663008 2.5 1.29895 2.236584 1.767767 1.767767
C 2.236584 1.29895 2.5 0.663008 2.5 0
C 2.5 -0.663008 2.236584 -1.29895 1.767767 -1.767767
C 1.29895 -2.236584 0.663008 -2.5 0 -2.5
C -0.663008 -2.5 -1.29895 -2.236584 -1.767767 -1.767767
C -2.236584 -1.29895 -2.5 -0.663008 -2.5 0
C -2.5 0.663008 -2.236584 1.29895 -1.767767 1.767767
C -1.29895 2.236584 -0.663008 2.5 0 2.5
z
" id="meb246318a3" style="stroke:#1f77b4;"/>
    </defs>
    <g clip-path="url(#p58361d0978)">
     <use style="fill:#1f77b4;stroke:#1f77b4;" x="86.4" xlink:href="#meb246318a3" y="180"/>
     <use style="fill:#1f77b4;stroke:#1f77b4;" x="87.66" xlink:href="#meb246318a3" y="176.43612"/>
     <use style="fill:#1f77b4;stroke:#1f77b4;" x="88.92" xlink:href="#meb246318a3" y="173.435398"/>
     <use style="fill:#1f77b4;stroke:#1f77b4;" x="90.18" xlink:href="#meb246318a3" y="171.39604"/>
     <use style="fill:#1f77b4;stroke:#1f77b4;" x="91.44" xlink:href="#meb246318a3" y="170.71625"/>
     <use style="fill:#1f77b4;stroke:#1f77b4;" x="92.7" xlink:href="#meb246318a3" y="171.39604"/>
     <use style="fill:#1f77b4;stroke:#1f77b4;" x="93.96" xlink:href="#meb246318a3" y="173.435398"/>
     <use style="fill:#1f77b4;stroke:#1f77b4;" x="95.22" xlink:href="#meb246318a3" y="176.43612"/>
     <use style="fill:#1f77b4;stroke:#1f77b4;" x="96.48" xlink:href="#meb246318a3" y="180"/>
     <use style="fill:#1f77b4;stroke:#1f77b4;" x="97.74" xlink:href="#meb246318a3" y="183.56388"/>
     <use style="fill:#1f77b4;stroke:#1f77b4;" x="99" xlink:href="#meb246318a3" y="186.564602"/>
     <use style="fill:#1f77b4;stroke:#1f77b4;" x="100.26" xlink:href="#meb246318a3" y="188.603965"/>
     <use style="fill:#1f77b4;stroke:#1f77b4;" x="101.52" xlink:href="#meb246318a3" y="189.283754"/>
     <use style="fill:#1f77b4;stroke:#1f77b4;" x="102.78" xlink:href="#meb246318a3" y="188.603965"/>
     <use style="fill:#1f77b4;stroke:#1f77b4;" x="104.04" xlink:href="#meb246318a3" y="186.564602"/>
     <use style="fill:#1f77b4;stroke:#1f77b4;" x="105.3" xlink:href="#meb246318a3" y="183.563875"/>
     <use style="fill:#1f77b4;stroke:#1f77b4;" x="106.56" xlink:href="#meb246318a3" y="179.999995"/>
     <use style="fill:#1f77b4;stroke:#1f77b4;" x="107.82" xlink:href="#meb246318a3" y="176.43611"/>
     <use style="fill:#1f77b4;stroke:#1f77b4;" x="109.08" xlink:href="#meb246318a3" y="173.435388"/>
     <use style="fill:#1f77b4;stroke:#1f77b4;" x="110.34" xlink:href="#meb246318a3" y="171.39603"/>
     <use style="fill:#1f77b4;stroke:#1f77b4;" x="111.6" xlink:href="#meb246318a3" y="170.716241"/>
     <use style="fill:#1f77b4;stroke:#1f77b4;" x="112.86" xlink:href="#meb246318a3" y="171.39603"/>
     <use style="fill:#1f77b4;stroke:#1f77b4;" x="114.12" xlink:href="#meb246318a3" y="173.435388"/>
     <use style="fill:#1f77b4;stroke:#1f77b4;" x="115.38" xlink:href="#meb246318a3" y="176.43611"/>
     <use style="fill:#1f77b4;stroke:#1f77b4;" x="116.64" xlink:href="#meb246318a3" y="179.999991"/>
     <use style="fill:#1f77b4;stroke:#1f77b4;" x="117.9" xlink:href="#meb246318a3" y="183.563871"/>
     <use style="fill:#1f77b4;stroke:#1f77b4;" x="119.16" xlink:href="#meb246318a3" y="186.564593"/>
     <use style="fill:#1f77b4;stroke:#1f77b4;" x="120.42" xlink:href="#meb246318a3" y="188.603951"/>
     <use style="fill:#1f77b4;stroke:#1f77b4;" x="121.68" xlink:href="#meb246318a3" y="189.283736"/>
     <use style="fill:#1f77b4;stroke:#1f77b4;" x="122.94" xlink:href="#meb246318a3" y="188.603946"/>
     <use style="fill:#1f77b4;stroke:#1f77b4;" x="124.2" xlink:href="#meb246318a3" y="186.564583"/>
     <use style="fill:#1f77b4;stroke:#1f77b4;" x="125.46" xlink:href="#meb246318a3" y="183.563857"/>
     <use style="fill:#1f77b4;stroke:#1f77b4;" x="126.72" xlink:href="#meb246318a3" y="179.999977"/>
     <use style="fill:#1f77b4;stroke:#1f77b4;" x="127.98" xlink:href="#meb246318a3" y="176.436092"/>
     <use style="fill:#1f77b4;stroke:#1f77b4;" x="129.24" xlink:href="#meb246318a3" y="173.43537"/>
     <use style="fill:#1f77b4;stroke:#1f77b4;" x="130.5" xlink:href="#meb246318a3" y="171.396011"/>
     <use style="fill:#1f77b4;stroke:#1f77b4;" x="131.76" xlink:href="#meb246318a3" y="170.716222"/>
     <use style="fill:#1f77b4;stroke:#1f77b4;" x="133.02" xlink:href="#meb246318a3" y="171.396011"/>
     <use style="fill:#1f77b4;stroke:#1f77b4;" x="134.28" xlink:href="#meb246318a3" y="173.43537"/>
     <use style="fill:#1f77b4;stroke:#1f77b4;" x="135.54" xlink:href="#meb246318a3" y="176.436092"/>
     <use style="fill:#1f77b4;stroke:#1f77b4;" x="136.8" xlink:href="#meb246318a3" y="179.999972"/>
     <use style="fill:#1f77b4;stroke:#1f77b4;" x="138.06" xlink:href="#meb246318a3" y="183.74929"/>
     <use style="fill:#1f77b4;stroke:#1f77b4;" x="139.32" xlink:href="#meb246318a3" y="187.306335"/>
     <use style="fill:#1f77b4;stroke:#1f77b4;" x="140.58" xlink:href="#meb246318a3" y="190.671108"/>
     <use style="fill:#1f77b4;stroke:#1f77b4;" x="141.84" xlink:href="#meb246318a3" y="193.843608"/>
     <use style="fill:#1f77b4;stroke:#1f77b4;" x="143.1" xlink:href="#meb246318a3" y="196.823835"/>
     <use style="fill:#1f77b4;stroke:#1f77b4;" x="144.36" xlink:href="#meb246318a3" y="199.61179"/>
     <use style="fill:#1f77b4;stroke:#1f77b4;" x="145.62" xlink:href="#meb246318a3" y="202.207472"/>
     <use style="fill:#1f77b4;stroke:#1f77b4;" x="146.88" xlink:href="#meb246318a3" y="204.610881"/>
     <use style="fill:#1f77b4;stroke:#1f77b4;" x="148.14" xlink:href="#meb246318a3" y="206.822017"/>
     <use style="fill:#1f77b4;stroke:#1f77b4;" x="149.4" xlink:href="#meb246318a3" y="208.840881"/>
     <use style="fill:#1f77b4;stroke:#1f77b4;" x="150.66" xlink:href="#meb246318a3" y="210.667472"/>
     <use style="fill:#1f77b4;stroke:#1f77b4;" x="151.92" xlink:href="#meb246318a3" y="212.30179"/>
     <use style="fill:#1f77b4;stroke:#1f77b4;" x="153.18" xlink:href="#meb246318a3" y="213.743835"/>
     <use style="fill:#1f77b4;stroke:#1f77b4;" x="154.44" xlink:href="#meb246318a3" y="214.993608"/>
     <use style="fill:#1f77b4;stroke:#1f77b4;" x="155.7" xlink:href="#meb246318a3" y="216.051108"/>
     <use style="fill:#1f77b4;stroke:#1f77b4;" x="156.96" xlink:href="#meb246318a3" y="216.916335"/>
     <use style="fill:#1f77b4;stroke:#1f77b4;" x="158.22" xlink:href="#meb246318a3" y="217.58929"/>
     <use style="fill:#1f77b4;stroke:#1f77b4;" x="159.48" xlink:href="#meb246318a3" y="218.069972"/>
     <use style="fill:#1f77b4;stroke:#1f77b4;" x="160.74" xlink:href="#meb246318a3" y="218.358381"/>
     <use style="fill:#1f77b4;stroke:#1f77b4;" x="162" xlink:href="#meb246318a3" y="218.454517"/>
     <use style="fill:#1f77b4;stroke:#1f77b4;" x="163.26" xlink:href="#meb246318a3" y="218.358381"/>
     <use style="fill:#1f77b4;stroke:#1f77b4;" x="164.52" xlink:href="#meb246318a3" y="218.069972"/>
     <use style="fill:#1f77b4;stroke:#1f77b4;" x="165.78" xlink:href="#meb246318a3" y="217.58929"/>
     <use style="fill:#1f77b4;stroke:#1f77b4;" x="167.04" xlink:href="#meb246318a3" y="216.916335"/>
     <use style="fill:#1f77b4;stroke:#1f77b4;" x="168.3" xlink:href="#meb246318a3" y="216.051108"/>
     <use style="fill:#1f77b4;stroke:#1f77b4;" x="169.56" xlink:href="#meb246318a3" y="214.993608"/>
     <use style="fill:#1f77b4;stroke:#1f77b4;" x="170.82" xlink:href="#meb246318a3" y="213.743835"/>
     <use style="fill:#1f77b4;stroke:#1f77b4;" x="172.08" xlink:href="#meb246318a3" y="212.30179"/>
     <use style="fill:#1f77b4;stroke:#1f77b4;" x="173.34" xlink:href="#meb246318a3" y="210.667472"/>
     <use style="fill:#1f77b4;stroke:#1f77b4;" x="174.6" xlink:href="#meb246318a3" y="208.840881"/>
     <use style="fill:#1f77b4;stroke:#1f77b4;" x="175.86" xlink:href="#meb246318a3" y="206.822017"/>
     <use style="fill:#1f77b4;stroke:#1f77b4;" x="177.12" xlink:href="#meb246318a3" y="204.610881"/>
     <use style="fill:#1f77b4;stroke:#1f77b4;" x="178.38" xlink:href="#meb246318a3" y="202.207472"/>
     <use style="fill:#1f77b4;stroke:#1f77b4;" x="179.64" xlink:href="#meb246318a3" y="199.61179"/>
     <use style="fill:#1f77b4;stroke:#1f77b4;" x="180.9" xlink:href="#meb246318a3" y="196.823835"/>
     <use style="fill:#1f77b4;stroke:#1f77b4;" x="182.16" xlink:href="#meb246318a3" y="193.843608"/>
     <use style="fill:#1f77b4;stroke:#1f77b4;" x="183.42" xlink:href="#meb246318a3" y="190.671108"/>
     <use style="fill:#1f77b4;stroke:#1f77b4;" x="184.68" xlink:href="#meb246318a3" y="187.306335"/>
     <use style="fill:#1f77b4;stroke:#1f77b4;" x="185.94" xlink:href="#meb246318a3" y="183.74929"/>
     <use style="fill:#1f77b4;stroke:#1f77b4;" x="187.2" xlink:href="#meb246318a3" y="179.999972"/>
     <use style="fill:#1f77b4;stroke:#1f77b4;" x="188.46" xlink:href="#meb246318a3" y="176.250644"/>
     <use style="fill:#1f77b4;stroke:#1f77b4;" x="189.72" xlink:href="#meb246318a3" y="172.693599"/>
     <use style="fill:#1f77b4;stroke:#1f77b4;" x="190.98" xlink:href="#meb246318a3" y="169.328826"/>
     <use style="fill:#1f77b4;stroke:#1f77b4;" x="192.24" xlink:href="#meb246318a3" y="166.156326"/>
     <use style="fill:#1f77b4;stroke:#1f77b4;" x="193.5" xlink:href="#meb246318a3" y="163.176099"/>
     <use style="fill:#1f77b4;stroke:#1f77b4;" x="194.76" xlink:href="#meb246318a3" y="160.388144"/>
     <use style="fill:#1f77b4;stroke:#1f77b4;" x="196.02" xlink:href="#meb246318a3" y="157.792462"/>
     <use style="fill:#1f77b4;stroke:#1f77b4;" x="197.28" xlink:href="#meb246318a3" y="155.389053"/>
     <use style="fill:#1f77b4;stroke:#1f77b4;" x="198.54" xlink:href="#meb246318a3" y="153.177917"/>
     <use style="fill:#1f77b4;stroke:#1f77b4;" x="199.8" xlink:href="#meb246318a3" y="151.159053"/>
     <use style="fill:#1f77b4;stroke:#1f77b4;" x="201.06" xlink:href="#meb246318a3" y="149.332462"/>
     <use style="fill:#1f77b4;stroke:#1f77b4;" x="202.32" xlink:href="#meb246318a3" y="147.698144"/>
     <use style="fill:#1f77b4;stroke:#1f77b4;" x="203.58" xlink:href="#meb246318a3" y="146.256099"/>
     <use style="fill:#1f77b4;stroke:#1f77b4;" x="204.84" xlink:href="#meb246318a3" y="145.006326"/>
     <use style="fill:#1f77b4;stroke:#1f77b4;" x="206.1" xlink:href="#meb246318a3" y="143.948826"/>
     <use style="fill:#1f77b4;stroke:#1f77b4;" x="207.36" xlink:href="#meb246318a3" y="143.083599"/>
     <use style="fill:#1f77b4;stroke:#1f77b4;" x="208.62" xlink:href="#meb246318a3" y="142.410644"/>
     <use style="fill:#1f77b4;stroke:#1f77b4;" x="209.88" xlink:href="#meb246318a3" y="141.929962"/>
     <use style="fill:#1f77b4;stroke:#1f77b4;" x="211.14" xlink:href="#meb246318a3" y="141.641553"/>
     <use style="fill:#1f77b4;stroke:#1f77b4;" x="212.4" xlink:href="#meb246318a3" y="141.545417"/>
     <use style="fill:#1f77b4;stroke:#1f77b4;" x="213.66" xlink:href="#meb246318a3" y="141.641553"/>
     <use style="fill:#1f77b4;stroke:#1f77b4;" x="214.92" xlink:href="#meb246318a3" y="141.929962"/>
     <use style="fill:#1f77b4;stroke:#1f77b4;" x="216.18" xlink:href="#meb246318a3" y="142.410644"/>
     <use style="fill:#1f77b4;stroke:#1f77b4;" x="217.44" xlink:href="#meb246318a3" y="143.083599"/>
     <use style="fill:#1f77b4;stroke:#1f77b4;" x="218.7" xlink:href="#meb246318a3" y="143.948826"/>
     <use style="fill:#1f77b4;stroke:#1f77b4;" x="219.96" xlink:href="#meb246318a3" y="145.006326"/>
     <use style="fill:#1f77b4;stroke:#1f77b4;" x="221.22" xlink:href="#meb246318a3" y="146.256099"/>
     <use style="fill:#1f77b4;stroke:#1f77b4;" x="222.48" xlink:href="#meb246318a3" y="147.698144"/>
     <use style="fill:#1f77b4;stroke:#1f77b4;" x="223.74" xlink:href="#meb246318a3" y="149.332462"/>
     <use style="fill:#1f77b4;stroke:#1f77b4;" x="225" xlink:href="#meb246318a3" y="151.159053"/>
     <use style="fill:#1f77b4;stroke:#1f77b4;" x="226.26" xlink:href="#meb246318a3" y="153.177917"/>
     <use style="fill:#1f77b4;stroke:#1f77b4;" x="227.52" xlink:href="#meb246318a3" y="155.389053"/>
     <use style="fill:#1f77b4;stroke:#1f77b4;" x="228.78" xlink:href="#meb246318a3" y="157.792462"/>
     <use style="fill:#1f77b4;stroke:#1f77b4;" x="230.04" xlink:href="#meb246318a3" y="160.388144"/>
     <use style="fill:#1f77b4;stroke:#1f77b4;" x="231.3" xlink:href="#meb246318a3" y="163.176099"/>
     <use style="fill:#1f77b4;stroke:#1f77b4;" x="232.56" xlink:href="#meb246318a3" y="166.156326"/>
     <use style="fill:#1f77b4;stroke:#1f77b4;" x="233.82" xlink:href="#meb246318a3" y="169.328826"/>
     <use style="fill:#1f77b4;stroke:#1f77b4;" x="235.08" xlink:href="#meb246318a3" y="172.693599"/>
     <use style="fill:#1f77b4;stroke:#1f77b4;" x="236.34" xlink:href="#meb246318a3" y="176.250644"/>
     <use style="fill:#1f77b4;stroke:#1f77b4;" x="237.6" xlink:href="#meb246318a3" y="179.999967"/>
     <use style="fill:#1f77b4;stroke:#1f77b4;" x="238.86" xlink:href="#meb246318a3" y="183.749285"/>
     <use style="fill:#1f77b4;stroke:#1f77b4;" x="240.12" xlink:href="#meb246318a3" y="187.306331"/>
     <use style="fill:#1f77b4;stroke:#1f77b4;" x="241.38" xlink:href="#meb246318a3" y="190.671104"/>
     <use style="fill:#1f77b4;stroke:#1f77b4;" x="242.64" xlink:href="#meb246318a3" y="193.843604"/>
     <use style="fill:#1f77b4;stroke:#1f77b4;" x="243.9" xlink:href="#meb246318a3" y="196.823831"/>
     <use style="fill:#1f77b4;stroke:#1f77b4;" x="245.16" xlink:href="#meb246318a3" y="199.611785"/>
     <use style="fill:#1f77b4;stroke:#1f77b4;" x="246.42" xlink:href="#meb246318a3" y="202.207467"/>
     <use style="fill:#1f77b4;stroke:#1f77b4;" x="247.68" xlink:href="#meb246318a3" y="204.610876"/>
     <use style="fill:#1f77b4;stroke:#1f77b4;" x="248.94" xlink:href="#meb246318a3" y="206.822013"/>
     <use style="fill:#1f77b4;stroke:#1f77b4;" x="250.2" xlink:href="#meb246318a3" y="208.840876"/>
     <use style="fill:#1f77b4;stroke:#1f77b4;" x="251.46" xlink:href="#meb246318a3" y="210.667467"/>
     <use style="fill:#1f77b4;stroke:#1f77b4;" x="252.72" xlink:href="#meb246318a3" y="212.301785"/>
     <use style="fill:#1f77b4;stroke:#1f77b4;" x="253.98" xlink:href="#meb246318a3" y="213.743831"/>
     <use style="fill:#1f77b4;stroke:#1f77b4;" x="255.24" xlink:href="#meb246318a3" y="214.993604"/>
     <use style="fill:#1f77b4;stroke:#1f77b4;" x="256.5" xlink:href="#meb246318a3" y="216.051104"/>
     <use style="fill:#1f77b4;stroke:#1f77b4;" x="257.76" xlink:href="#meb246318a3" y="216.916331"/>
     <use style="fill:#1f77b4;stroke:#1f77b4;" x="259.02" xlink:href="#meb246318a3" y="217.589285"/>
     <use style="fill:#1f77b4;stroke:#1f77b4;" x="260.28" xlink:href="#meb246318a3" y="218.069967"/>
     <use style="fill:#1f77b4;stroke:#1f77b4;" x="261.54" xlink:href="#meb246318a3" y="218.358376"/>
     <use style="fill:#1f77b4;stroke:#1f77b4;" x="262.8" xlink:href="#meb246318a3" y="218.454513"/>
     <use style="fill:#1f77b4;stroke:#1f77b4;" x="264.06" xlink:href="#meb246318a3" y="218.358376"/>
     <use style="fill:#1f77b4;stroke:#1f77b4;" x="265.32" xlink:href="#meb246318a3" y="218.069967"/>
     <use style="fill:#1f77b4;stroke:#1f77b4;" x="266.58" xlink:href="#meb246318a3" y="217.589285"/>
     <use style="fill:#1f77b4;stroke:#1f77b4;" x="267.84" xlink:href="#meb246318a3" y="216.916331"/>
     <use style="fill:#1f77b4;stroke:#1f77b4;" x="269.1" xlink:href="#meb246318a3" y="216.051104"/>
     <use style="fill:#1f77b4;stroke:#1f77b4;" x="270.36" xlink:href="#meb246318a3" y="214.993604"/>
     <use style="fill:#1f77b4;stroke:#1f77b4;" x="271.62" xlink:href="#meb246318a3" y="213.743831"/>
     <use style="fill:#1f77b4;stroke:#1f77b4;" x="272.88" xlink:href="#meb246318a3" y="212.301785"/>
     <use style="fill:#1f77b4;stroke:#1f77b4;" x="274.14" xlink:href="#meb246318a3" y="210.667467"/>
     <use style="fill:#1f77b4;stroke:#1f77b4;" x="275.4" xlink:href="#meb246318a3" y="208.840876"/>
     <use style="fill:#1f77b4;stroke:#1f77b4;" x="276.66" xlink:href="#meb246318a3" y="206.822013"/>
     <use style="fill:#1f77b4;stroke:#1f77b4;" x="277.92" xlink:href="#meb246318a3" y="204.610876"/>
     <use style="fill:#1f77b4;stroke:#1f77b4;" x="279.18" xlink:href="#meb246318a3" y="202.207467"/>
     <use style="fill:#1f77b4;stroke:#1f77b4;" x="280.44" xlink:href="#meb246318a3" y="199.611785"/>
     <use style="fill:#1f77b4;stroke:#1f77b4;" x="281.7" xlink:href="#meb246318a3" y="196.823831"/>
     <use style="fill:#1f77b4;stroke:#1f77b4;" x="282.96" xlink:href="#meb246318a3" y="193.843604"/>
     <use style="fill:#1f77b4;stroke:#1f77b4;" x="284.22" xlink:href="#meb246318a3" y="190.671104"/>
     <use style="fill:#1f77b4;stroke:#1f77b4;" x="285.48" xlink:href="#meb246318a3" y="187.306331"/>
     <use style="fill:#1f77b4;stroke:#1f77b4;" x="286.74" xlink:href="#meb246318a3" y="183.749285"/>
     <use style="fill:#1f77b4;stroke:#1f77b4;" x="288" xlink:href="#meb246318a3" y="179.999967"/>
     <use style="fill:#1f77b4;stroke:#1f77b4;" x="289.26" xlink:href="#meb246318a3" y="176.250644"/>
     <use style="fill:#1f77b4;stroke:#1f77b4;" x="290.52" xlink:href="#meb246318a3" y="172.693599"/>
     <use style="fill:#1f77b4;stroke:#1f77b4;" x="291.78" xlink:href="#meb246318a3" y="169.328826"/>
     <use style="fill:#1f77b4;stroke:#1f77b4;" x="293.04" xlink:href="#meb246318a3" y="166.156326"/>
     <use style="fill:#1f77b4;stroke:#1f77b4;" x="294.3" xlink:href="#meb246318a3" y="163.176099"/>
     <use style="fill:#1f77b4;stroke:#1f77b4;" x="295.56" xlink:href="#meb246318a3" y="160.388144"/>
     <use style="fill:#1f77b4;stroke:#1f77b4;" x="296.82" xlink:href="#meb246318a3" y="157.792462"/>
     <use style="fill:#1f77b4;stroke:#1f77b4;" x="298.08" xlink:href="#meb246318a3" y="155.389053"/>
     <use style="fill:#1f77b4;stroke:#1f77b4;" x="299.34" xlink:href="#meb246318a3" y="153.177917"/>
     <use style="fill:#1f77b4;stroke:#1f77b4;" x="300.6" xlink:href="#meb246318a3" y="151.159053"/>
     <use style="fill:#1f77b4;stroke:#1f77b4;" x="301.86" xlink:href="#meb246318a3" y="149.332462"/>
     <use style="fill:#1f77b4;stroke:#1f77b4;" x="303.12" xlink:href="#meb246318a3" y="147.698144"/>
     <use style="fill:#1f77b4;stroke:#1f77b4;" x="304.38" xlink:href="#meb246318a3" y="146.256099"/>
     <use style="fill:#1f77b4;stroke:#1f77b4;" x="305.64" xlink:href="#meb246318a3" y="145.006326"/>
     <use style="fill:#1f77b4;stroke:#1f77b4;" x="306.9" xlink:href="#meb246318a3" y="143.948826"/>
     <use style="fill:#1f77b4;stroke:#1f77b4;" x="308.16" xlink:href="#meb246318a3" y="143.083599"/>
     <use style="fill:#1f77b4;stroke:#1f77b4;" x="309.42" xlink:href="#meb246318a3" y="142.410644"/>
     <use style="fill:#1f77b4;stroke:#1f77b4;" x="310.68" xlink:href="#meb246318a3" y="141.929962"/>
     <use style="fill:#1f77b4;stroke:#1f77b4;" x="311.94" xlink:href="#meb246318a3" y="141.641553"/>
     <use style="fill:#1f77b4;stroke:#1f77b4;" x="313.2" xlink:href="#meb246318a3" y="141.545417"/>
     <use style="fill:#1f77b4;stroke:#1f77b4;" x="314.46" xlink:href="#meb246318a3" y="141.641553"/>
     <use style="fill:#1f77b4;stroke:#1f77b4;" x="315.72" xlink:href="#meb246318a3" y="141.929962"/>
     <use style="fill:#1f77b4;stroke:#1f77b4;" x="316.98" xlink:href="#meb246318a3" y="142.410644"/>
     <use style="fill:#1f77b4;stroke:#1f77b4;" x="318.24" xlink:href="#meb246318a3" y="143.083599"/>
     <use style="fill:#1f77b4;stroke:#1f77b4;" x="319.5" xlink:href="#meb246318a3" y="143.948826"/>
     <use style="fill:#1f77b4;stroke:#1f77b4;" x="320.76" xlink:href="#meb246318a3" y="145.006326"/>
     <use style="fill:#1f77b4;stroke:#1f77b4;" x="322.02" xlink:href="#meb246318a3" y="146.256099"/>
     <use style="fill:#1f77b4;stroke:#1f77b4;" x="323.28" xlink:href="#meb246318a3" y="147.698144"/>
     <use style="fill:#1f77b4;stroke:#1f77b4;" x="324.54" xlink:href="#meb246318a3" y="149.332462"/>
     <use style="fill:#1f77b4;stroke:#1f77b4;" x="325.8" xlink:href="#meb246318a3" y="151.159053"/>
     <use style="fill:#1f77b4;stroke:#1f77b4;" x="327.06" xlink:href="#meb246318a3" y="153.177917"/>
     <use style="fill:#1f77b4;stroke:#1f77b4;" x="328.32" xlink:href="#meb246318a3" y="155.389053"/>
     <use style="fill:#1f77b4;stroke:#1f77b4;" x="329.58" xlink:href="#meb246318a3" y="157.792462"/>
     <use style="fill:#1f77b4;stroke:#1f77b4;" x="330.84" xlink:href="#meb246318a3" y="160.388144"/>
     <use style="fill:#1f77b4;stroke:#1f77b4;" x="332.1" xlink:href="#meb246318a3" y="163.176099"/>
     <use style="fill:#1f77b4;stroke:#1f77b4;" x="333.36" xlink:href="#meb246318a3" y="166.156326"/>
     <use style="fill:#1f77b4;stroke:#1f77b4;" x="334.62" xlink:href="#meb246318a3" y="169.328826"/>
     <use style="fill:#1f77b4;stroke:#1f77b4;" x="335.88" xlink:href="#meb246318a3" y="172.693599"/>
     <use style="fill:#1f77b4;stroke:#1f77b4;" x="337.14" xlink:href="#meb246318a3" y="176.250644"/>
     <use style="fill:#1f77b4;stroke:#1f77b4;" x="338.4" xlink:href="#meb246318a3" y="179.999967"/>
     <use style="fill:#1f77b4;stroke:#1f77b4;" x="339.66" xlink:href="#meb246318a3" y="183.749285"/>
     <use style="fill:#1f77b4;stroke:#1f77b4;" x="340.92" xlink:href="#meb246318a3" y="187.306331"/>
     <use style="fill:#1f77b4;stroke:#1f77b4;" x="342.18" xlink:href="#meb246318a3" y="190.671104"/>
     <use style="fill:#1f77b4;stroke:#1f77b4;" x="343.44" xlink:href="#meb246318a3" y="193.843604"/>
     <use style="fill:#1f77b4;stroke:#1f77b4;" x="344.7" xlink:href="#meb246318a3" y="196.823831"/>
     <use style="fill:#1f77b4;stroke:#1f77b4;" x="345.96" xlink:href="#meb246318a3" y="199.611785"/>
     <use style="fill:#1f77b4;stroke:#1f77b4;" x="347.22" xlink:href="#meb246318a3" y="202.207467"/>
     <use style="fill:#1f77b4;stroke:#1f77b4;" x="348.48" xlink:href="#meb246318a3" y="204.610876"/>
     <use style="fill:#1f77b4;stroke:#1f77b4;" x="349.74" xlink:href="#meb246318a3" y="206.822013"/>
     <use style="fill:#1f77b4;stroke:#1f77b4;" x="351" xlink:href="#meb246318a3" y="208.840876"/>
     <use style="fill:#1f77b4;stroke:#1f77b4;" x="352.26" xlink:href="#meb246318a3" y="210.667467"/>
     <use style="fill:#1f77b4;stroke:#1f77b4;" x="353.52" xlink:href="#meb246318a3" y="212.301785"/>
     <use style="fill:#1f77b4;stroke:#1f77b4;" x="354.78" xlink:href="#meb246318a3" y="213.743831"/>
     <use style="fill:#1f77b4;stroke:#1f77b4;" x="356.04" xlink:href="#meb246318a3" y="214.993604"/>
     <use style="fill:#1f77b4;stroke:#1f77b4;" x="357.3" xlink:href="#meb246318a3" y="216.051104"/>
     <use style="fill:#1f77b4;stroke:#1f77b4;" x="358.56" xlink:href="#meb246318a3" y="216.916331"/>
     <use style="fill:#1f77b4;stroke:#1f77b4;" x="359.82" xlink:href="#meb246318a3" y="217.589285"/>
     <use style="fill:#1f77b4;stroke:#1f77b4;" x="361.08" xlink:href="#meb246318a3" y="218.069967"/>
     <use style="fill:#1f77b4;stroke:#1f77b4;" x="362.34" xlink:href="#meb246318a3" y="218.358376"/>
     <use style="fill:#1f77b4;stroke:#1f77b4;" x="363.6" xlink:href="#meb246318a3" y="218.454513"/>
     <use style="fill:#1f77b4;stroke:#1f77b4;" x="364.86" xlink:href="#meb246318a3" y="218.358376"/>
     <use style="fill:#1f77b4;stroke:#1f77b4;" x="366.12" xlink:href="#meb246318a3" y="218.069967"/>
     <use style="fill:#1f77b4;stroke:#1f77b4;" x="367.38" xlink:href="#meb246318a3" y="217.589285"/>
     <use style="fill:#1f77b4;stroke:#1f77b4;" x="368.64" xlink:href="#meb246318a3" y="216.916331"/>
     <use style="fill:#1f77b4;stroke:#1f77b4;" x="369.9" xlink:href="#meb246318a3" y="216.051104"/>
     <use style="fill:#1f77b4;stroke:#1f77b4;" x="371.16" xlink:href="#meb246318a3" y="214.993604"/>
     <use style="fill:#1f77b4;stroke:#1f77b4;" x="372.42" xlink:href="#meb246318a3" y="213.743831"/>
     <use style="fill:#1f77b4;stroke:#1f77b4;" x="373.68" xlink:href="#meb246318a3" y="212.301785"/>
     <use style="fill:#1f77b4;stroke:#1f77b4;" x="374.94" xlink:href="#meb246318a3" y="210.667467"/>
     <use style="fill:#1f77b4;stroke:#1f77b4;" x="376.2" xlink:href="#meb246318a3" y="208.840876"/>
     <use style="fill:#1f77b4;stroke:#1f77b4;" x="377.46" xlink:href="#meb246318a3" y="206.822013"/>
     <use style="fill:#1f77b4;stroke:#1f77b4;" x="378.72" xlink:href="#meb246318a3" y="204.610876"/>
     <use style="fill:#1f77b4;stroke:#1f77b4;" x="379.98" xlink:href="#meb246318a3" y="202.207467"/>
     <use style="fill:#1f77b4;stroke:#1f77b4;" x="381.24" xlink:href="#meb246318a3" y="199.611785"/>
     <use style="fill:#1f77b4;stroke:#1f77b4;" x="382.5" xlink:href="#meb246318a3" y="196.823831"/>
     <use style="fill:#1f77b4;stroke:#1f77b4;" x="383.76" xlink:href="#meb246318a3" y="193.843604"/>
     <use style="fill:#1f77b4;stroke:#1f77b4;" x="385.02" xlink:href="#meb246318a3" y="190.671104"/>
     <use style="fill:#1f77b4;stroke:#1f77b4;" x="386.28" xlink:href="#meb246318a3" y="187.306331"/>
     <use style="fill:#1f77b4;stroke:#1f77b4;" x="387.54" xlink:href="#meb246318a3" y="183.749285"/>
     <use style="fill:#1f77b4;stroke:#1f77b4;" x="388.8" xlink:href="#meb246318a3" y="179.999967"/>
     <use style="fill:#1f77b4;stroke:#1f77b4;" x="390.06" xlink:href="#meb246318a3" y="176.250644"/>
     <use style="fill:#1f77b4;stroke:#1f77b4;" x="391.32" xlink:href="#meb246318a3" y="172.693599"/>
     <use style="fill:#1f77b4;stroke:#1f77b4;" x="392.58" xlink:href="#meb246318a3" y="169.328826"/>
     <use style="fill:#1f77b4;stroke:#1f77b4;" x="393.84" xlink:href="#meb246318a3" y="166.156326"/>
     <use style="fill:#1f77b4;stroke:#1f77b4;" x="395.1" xlink:href="#meb246318a3" y="163.176099"/>
     <use style="fill:#1f77b4;stroke:#1f77b4;" x="396.36" xlink:href="#meb246318a3" y="160.388144"/>
     <use style="fill:#1f77b4;stroke:#1f77b4;" x="397.62" xlink:href="#meb246318a3" y="157.792462"/>
     <use style="fill:#1f77b4;stroke:#1f77b4;" x="398.88" xlink:href="#meb246318a3" y="155.389053"/>
     <use style="fill:#1f77b4;stroke:#1f77b4;" x="400.14" xlink:href="#meb246318a3" y="153.177917"/>
     <use style="fill:#1f77b4;stroke:#1f77b4;" x="401.4" xlink:href="#meb246318a3" y="151.159053"/>
     <use style="fill:#1f77b4;stroke:#1f77b4;" x="402.66" xlink:href="#meb246318a3" y="149.332462"/>
     <use style="fill:#1f77b4;stroke:#1f77b4;" x="403.92" xlink:href="#meb246318a3" y="147.698144"/>
     <use style="fill:#1f77b4;stroke:#1f77b4;" x="405.18" xlink:href="#meb246318a3" y="146.256099"/>
     <use style="fill:#1f77b4;stroke:#1f77b4;" x="406.44" xlink:href="#meb246318a3" y="145.006326"/>
     <use style="fill:#1f77b4;stroke:#1f77b4;" x="407.7" xlink:href="#meb246318a3" y="143.948826"/>
     <use style="fill:#1f77b4;stroke:#1f77b4;" x="408.96" xlink:href="#meb246318a3" y="143.083599"/>
     <use style="fill:#1f77b4;stroke:#1f77b4;" x="410.22" xlink:href="#meb246318a3" y="142.410644"/>
     <use style="fill:#1f77b4;stroke:#1f77b4;" x="411.48" xlink:href="#meb246318a3" y="141.929962"/>
     <use style="fill:#1f77b4;stroke:#1f77b4;" x="412.74" xlink:href="#meb246318a3" y="141.641553"/>
     <use style="fill:#1f77b4;stroke:#1f77b4;" x="414" xlink:href="#meb246318a3" y="141.545417"/>
     <use style="fill:#1f77b4;stroke:#1f77b4;" x="415.26" xlink:href="#meb246318a3" y="141.641553"/>
     <use style="fill:#1f77b4;stroke:#1f77b4;" x="416.52" xlink:href="#meb246318a3" y="141.929962"/>
     <use style="fill:#1f77b4;stroke:#1f77b4;" x="417.78" xlink:href="#meb246318a3" y="142.410644"/>
     <use style="fill:#1f77b4;stroke:#1f77b4;" x="419.04" xlink:href="#meb246318a3" y="143.083599"/>
     <use style="fill:#1f77b4;stroke:#1f77b4;" x="420.3" xlink:href="#meb246318a3" y="143.948826"/>
     <use style="fill:#1f77b4;stroke:#1f77b4;" x="421.56" xlink:href="#meb246318a3" y="145.006326"/>
     <use style="fill:#1f77b4;stroke:#1f77b4;" x="422.82" xlink:href="#meb246318a3" y="146.256099"/>
     <use style="fill:#1f77b4;stroke:#1f77b4;" x="424.08" xlink:href="#meb246318a3" y="147.698144"/>
     <use style="fill:#1f77b4;stroke:#1f77b4;" x="425.34" xlink:href="#meb246318a3" y="149.332462"/>
     <use style="fill:#1f77b4;stroke:#1f77b4;" x="426.6" xlink:href="#meb246318a3" y="151.159053"/>
     <use style="fill:#1f77b4;stroke:#1f77b4;" x="427.86" xlink:href="#meb246318a3" y="153.177917"/>
     <use style="fill:#1f77b4;stroke:#1f77b4;" x="429.12" xlink:href="#meb246318a3" y="155.389053"/>
     <use style="fill:#1f77b4;stroke:#1f77b4;" x="430.38" xlink:href="#meb246318a3" y="157.792462"/>
     <use style="fill:#1f77b4;stroke:#1f77b4;" x="431.64" xlink:href="#meb246318a3" y="160.388144"/>
     <use style="fill:#1f77b4;stroke:#1f77b4;" x="432.9" xlink:href="#meb246318a3" y="163.176099"/>
     <use style="fill:#1f77b4;stroke:#1f77b4;" x="434.16" xlink:href="#meb246318a3" y="166.156326"/>
     <use style="fill:#1f77b4;stroke:#1f77b4;" x="435.42" xlink:href="#meb246318a3" y="169.328826"/>
     <use style="fill:#1f77b4;stroke:#1f77b4;" x="436.68" xlink:href="#meb246318a3" y="172.693599"/>
     <use style="fill:#1f77b4;stroke:#1f77b4;" x="437.94" xlink:href="#meb246318a3" y="176.250644"/>
     <use style="fill:#1f77b4;stroke:#1f77b4;" x="439.2" xlink:href="#meb246318a3" y="179.999967"/>
    </g>
   </g>
   <g id="line2d_20">
    <path clip-path="url(#p58361d0978)" d="M 86.4 256.909091
L 136.8 256.909091
L 136.8 103.090909
L 86.4 103.090909
L 86.4 256.909091
" style="fill:none;stroke:#ffa500;stroke-linecap:square;stroke-width:1.5;"/>
   </g>
   <g id="line2d_21">
    <path clip-path="url(#p58361d0978)" d="M 36 333.818182
L 540 333.818182
L 540 26.181818
L 36 26.181818
L 36 333.818182
" style="fill:none;stroke:#008000;stroke-linecap:square;stroke-width:1.5;"/>
   </g>
   <g id="patch_3">
    <path d="M 10.8 349.2
L 10.8 10.8
" style="fill:none;stroke:#000000;stroke-linecap:square;stroke-linejoin:miter;stroke-width:0.8;"/>
   </g>
   <g id="patch_4">
    <path d="M 565.2 349.2
L 565.2 10.8
" style="fill:none;stroke:#000000;stroke-linecap:square;stroke-linejoin:miter;stroke-width:0.8;"/>
   </g>
   <g id="patch_5">
    <path d="M 10.8 349.2
L 565.2 349.2
" style="fill:none;stroke:#000000;stroke-linecap:square;stroke-linejoin:miter;stroke-width:0.8;"/>
   </g>
   <g id="patch_6">
    <path d="M 10.8 10.8
L 565.2 10.8
" style="fill:none;stroke:#000000;stroke-linecap:square;stroke-linejoin:miter;stroke-width:0.8;"/>
   </g>
  </g>
 </g>
 <defs>
  <clipPath id="p58361d0978">
   <rect height="338.4" width="554.4" x="10.8" y="10.8"/>
  </clipPath>
 </defs>
</svg>
