<?xml version="1.0" encoding="utf-8" standalone="no"?>
<!DOCTYPE svg PUBLIC "-//W3C//DTD SVG 1.1//EN"
  "http://www.w3.org/Graphics/SVG/1.1/DTD/svg11.dtd">
<!-- Created with matplotlib (https://matplotlib.org/) -->
<svg height="360pt" version="1.1" viewBox="0 0 576 360" width="576pt" xmlns="http://www.w3.org/2000/svg" xmlns:xlink="http://www.w3.org/1999/xlink">
 <metadata>
  <rdf:RDF xmlns:cc="http://creativecommons.org/ns#" xmlns:dc="http://purl.org/dc/elements/1.1/" xmlns:rdf="http://www.w3.org/1999/02/22-rdf-syntax-ns#">
   <cc:Work>
    <dc:type rdf:resource="http://purl.org/dc/dcmitype/StillImage"/>
    <dc:date>2020-11-16T10:48:38.854543</dc:date>
    <dc:format>image/svg+xml</dc:format>
    <dc:creator>
     <cc:Agent>
      <dc:title>Matplotlib v3.3.1, https://matplotlib.org/</dc:title>
     </cc:Agent>
    </dc:creator>
   </cc:Work>
  </rdf:RDF>
 </metadata>
 <defs>
  <style type="text/css">*{stroke-linecap:butt;stroke-linejoin:round;}</style>
 </defs>
 <g id="figure_1">
  <g id="patch_1">
   <path d="M 0 360 
L 576 360 
L 576 0 
L 0 0 
z
" style="fill:none;"/>
  </g>
  <g id="axes_1">
   <g id="patch_2">
    <path d="M 10.8 349.2 
L 282.6 349.2 
L 282.6 10.8 
L 10.8 10.8 
z
" style="fill:#ffffff;"/>
   </g>
   <g id="QuadMesh_1">
    <path clip-path="url(#p33e46aa764)" d="M 10.8 349.2 
L 78.75 349.2 
L 78.75 281.52 
L 10.8 281.52 
L 10.8 349.2 
" style="fill:#470e61;"/>
    <path clip-path="url(#p33e46aa764)" d="M 78.75 349.2 
L 146.7 349.2 
L 146.7 281.52 
L 78.75 281.52 
L 78.75 349.2 
" style="fill:#20928c;"/>
    <path clip-path="url(#p33e46aa764)" d="M 146.7 349.2 
L 214.65 349.2 
L 214.65 281.52 
L 146.7 281.52 
L 146.7 349.2 
" style="fill:#5ac864;"/>
    <path clip-path="url(#p33e46aa764)" d="M 214.65 349.2 
L 282.6 349.2 
L 282.6 281.52 
L 214.65 281.52 
L 214.65 349.2 
" style="fill:#20a386;"/>
    <path clip-path="url(#p33e46aa764)" d="M 10.8 281.52 
L 78.75 281.52 
L 78.75 213.84 
L 10.8 213.84 
L 10.8 281.52 
" style="fill:#f4e61e;"/>
    <path clip-path="url(#p33e46aa764)" d="M 78.75 281.52 
L 146.7 281.52 
L 146.7 213.84 
L 78.75 213.84 
L 78.75 281.52 
" style="fill:none;"/>
    <path clip-path="url(#p33e46aa764)" d="M 146.7 281.52 
L 214.65 281.52 
L 214.65 213.84 
L 146.7 213.84 
L 146.7 281.52 
" style="fill:#481769;"/>
    <path clip-path="url(#p33e46aa764)" d="M 214.65 281.52 
L 282.6 281.52 
L 282.6 213.84 
L 214.65 213.84 
L 214.65 281.52 
" style="fill:#75d054;"/>
    <path clip-path="url(#p33e46aa764)" d="M 10.8 213.84 
L 78.75 213.84 
L 78.75 146.16 
L 10.8 146.16 
L 10.8 213.84 
" style="fill:#33628d;"/>
    <path clip-path="url(#p33e46aa764)" d="M 78.75 213.84 
L 146.7 213.84 
L 146.7 146.16 
L 78.75 146.16 
L 78.75 213.84 
" style="fill:#2c738e;"/>
    <path clip-path="url(#p33e46aa764)" d="M 146.7 213.84 
L 214.65 213.84 
L 214.65 146.16 
L 146.7 146.16 
L 146.7 213.84 
" style="fill:#20a386;"/>
    <path clip-path="url(#p33e46aa764)" d="M 214.65 213.84 
L 282.6 213.84 
L 282.6 146.16 
L 214.65 146.16 
L 214.65 213.84 
" style="fill:#375b8d;"/>
    <path clip-path="url(#p33e46aa764)" d="M 10.8 146.16 
L 78.75 146.16 
L 78.75 78.48 
L 10.8 78.48 
L 10.8 146.16 
" style="fill:#450559;"/>
    <path clip-path="url(#p33e46aa764)" d="M 78.75 146.16 
L 146.7 146.16 
L 146.7 78.48 
L 78.75 78.48 
L 78.75 146.16 
" style="fill:#1f9f88;"/>
    <path clip-path="url(#p33e46aa764)" d="M 146.7 146.16 
L 214.65 146.16 
L 214.65 78.48 
L 146.7 78.48 
L 146.7 146.16 
" style="fill:#25838e;"/>
    <path clip-path="url(#p33e46aa764)" d="M 214.65 146.16 
L 282.6 146.16 
L 282.6 78.48 
L 214.65 78.48 
L 214.65 146.16 
" style="fill:#e7e419;"/>
    <path clip-path="url(#p33e46aa764)" d="M 10.8 78.48 
L 78.75 78.48 
L 78.75 10.8 
L 10.8 10.8 
L 10.8 78.48 
" style="fill:#25848e;"/>
    <path clip-path="url(#p33e46aa764)" d="M 78.75 78.48 
L 146.7 78.48 
L 146.7 10.8 
L 78.75 10.8 
L 78.75 78.48 
" style="fill:#1e9d89;"/>
    <path clip-path="url(#p33e46aa764)" d="M 146.7 78.48 
L 214.65 78.48 
L 214.65 10.8 
L 146.7 10.8 
L 146.7 78.48 
" style="fill:#277e8e;"/>
    <path clip-path="url(#p33e46aa764)" d="M 214.65 78.48 
L 282.6 78.48 
L 282.6 10.8 
L 214.65 10.8 
L 214.65 78.48 
" style="fill:#404688;"/>
   </g>
   <g id="PathCollection_1">
    <defs>
     <path d="M 0 3.535534 
C 0.937635 3.535534 1.836992 3.163008 2.5 2.5 
C 3.163008 1.836992 3.535534 0.937635 3.535534 -0 
C 3.535534 -0.937635 3.163008 -1.836992 2.5 -2.5 
C 1.836992 -3.163008 0.937635 -3.535534 0 -3.535534 
C -0.937635 -3.535534 -1.836992 -3.163008 -2.5 -2.5 
C -3.163008 -1.836992 -3.535534 -0.937635 -3.535534 0 
C -3.535534 0.937635 -3.163008 1.836992 -2.5 2.5 
C -1.836992 3.163008 -0.937635 3.535534 0 3.535534 
z
" id="C0_0_0e9d1a99a8"/>
    </defs>
    <g clip-path="url(#p33e46aa764)">
     <use style="fill:#470e61;stroke:#000000;" x="37.98" xlink:href="#C0_0_0e9d1a99a8" y="321"/>
    </g>
    <g clip-path="url(#p33e46aa764)">
     <use style="fill:#470e61;stroke:#000000;" x="69.042859" xlink:href="#C0_0_0e9d1a99a8" y="321"/>
    </g>
    <g clip-path="url(#p33e46aa764)">
     <use style="fill:#20928c;stroke:#000000;" x="100.105717" xlink:href="#C0_0_0e9d1a99a8" y="321"/>
    </g>
    <g clip-path="url(#p33e46aa764)">
     <use style="fill:#20928c;stroke:#000000;" x="131.168572" xlink:href="#C0_0_0e9d1a99a8" y="321"/>
    </g>
    <g clip-path="url(#p33e46aa764)">
     <use style="fill:#5ac864;stroke:#000000;" x="162.231434" xlink:href="#C0_0_0e9d1a99a8" y="321"/>
    </g>
    <g clip-path="url(#p33e46aa764)">
     <use style="fill:#5ac864;stroke:#000000;" x="193.294289" xlink:href="#C0_0_0e9d1a99a8" y="321"/>
    </g>
    <g clip-path="url(#p33e46aa764)">
     <use style="fill:#20a386;stroke:#000000;" x="224.357145" xlink:href="#C0_0_0e9d1a99a8" y="321"/>
    </g>
    <g clip-path="url(#p33e46aa764)">
     <use style="fill:#20a386;stroke:#000000;" x="255.42" xlink:href="#C0_0_0e9d1a99a8" y="321"/>
    </g>
    <g clip-path="url(#p33e46aa764)">
     <use style="fill:#f4e61e;stroke:#000000;" x="37.98" xlink:href="#C0_0_0e9d1a99a8" y="280.714284"/>
    </g>
    <g clip-path="url(#p33e46aa764)">
     <use style="fill:#f4e61e;stroke:#000000;" x="69.042859" xlink:href="#C0_0_0e9d1a99a8" y="280.714284"/>
    </g>
    <g clip-path="url(#p33e46aa764)">
     <use style="fill:#481769;stroke:#000000;" x="162.231434" xlink:href="#C0_0_0e9d1a99a8" y="280.714284"/>
    </g>
    <g clip-path="url(#p33e46aa764)">
     <use style="fill:#481769;stroke:#000000;" x="193.294289" xlink:href="#C0_0_0e9d1a99a8" y="280.714284"/>
    </g>
    <g clip-path="url(#p33e46aa764)">
     <use style="fill:#75d054;stroke:#000000;" x="224.357145" xlink:href="#C0_0_0e9d1a99a8" y="280.714284"/>
    </g>
    <g clip-path="url(#p33e46aa764)">
     <use style="fill:#75d054;stroke:#000000;" x="255.42" xlink:href="#C0_0_0e9d1a99a8" y="280.714284"/>
    </g>
    <g clip-path="url(#p33e46aa764)">
     <use style="fill:#f4e61e;stroke:#000000;" x="37.98" xlink:href="#C0_0_0e9d1a99a8" y="240.428568"/>
    </g>
    <g clip-path="url(#p33e46aa764)">
     <use style="fill:#f4e61e;stroke:#000000;" x="69.042859" xlink:href="#C0_0_0e9d1a99a8" y="240.428568"/>
    </g>
    <g clip-path="url(#p33e46aa764)">
     <use style="fill:#481769;stroke:#000000;" x="162.231434" xlink:href="#C0_0_0e9d1a99a8" y="240.428568"/>
    </g>
    <g clip-path="url(#p33e46aa764)">
     <use style="fill:#481769;stroke:#000000;" x="193.294289" xlink:href="#C0_0_0e9d1a99a8" y="240.428568"/>
    </g>
    <g clip-path="url(#p33e46aa764)">
     <use style="fill:#75d054;stroke:#000000;" x="224.357145" xlink:href="#C0_0_0e9d1a99a8" y="240.428568"/>
    </g>
    <g clip-path="url(#p33e46aa764)">
     <use style="fill:#75d054;stroke:#000000;" x="255.42" xlink:href="#C0_0_0e9d1a99a8" y="240.428568"/>
    </g>
    <g clip-path="url(#p33e46aa764)">
     <use style="fill:#33628d;stroke:#000000;" x="37.98" xlink:href="#C0_0_0e9d1a99a8" y="200.142856"/>
    </g>
    <g clip-path="url(#p33e46aa764)">
     <use style="fill:#33628d;stroke:#000000;" x="69.042859" xlink:href="#C0_0_0e9d1a99a8" y="200.142856"/>
    </g>
    <g clip-path="url(#p33e46aa764)">
     <use style="fill:#2c738e;stroke:#000000;" x="100.105717" xlink:href="#C0_0_0e9d1a99a8" y="200.142856"/>
    </g>
    <g clip-path="url(#p33e46aa764)">
     <use style="fill:#2c738e;stroke:#000000;" x="131.168572" xlink:href="#C0_0_0e9d1a99a8" y="200.142856"/>
    </g>
    <g clip-path="url(#p33e46aa764)">
     <use style="fill:#20a386;stroke:#000000;" x="162.231434" xlink:href="#C0_0_0e9d1a99a8" y="200.142856"/>
    </g>
    <g clip-path="url(#p33e46aa764)">
     <use style="fill:#20a386;stroke:#000000;" x="193.294289" xlink:href="#C0_0_0e9d1a99a8" y="200.142856"/>
    </g>
    <g clip-path="url(#p33e46aa764)">
     <use style="fill:#375b8d;stroke:#000000;" x="224.357145" xlink:href="#C0_0_0e9d1a99a8" y="200.142856"/>
    </g>
    <g clip-path="url(#p33e46aa764)">
     <use style="fill:#375b8d;stroke:#000000;" x="255.42" xlink:href="#C0_0_0e9d1a99a8" y="200.142856"/>
    </g>
    <g clip-path="url(#p33e46aa764)">
     <use style="fill:#33628d;stroke:#000000;" x="37.98" xlink:href="#C0_0_0e9d1a99a8" y="159.857136"/>
    </g>
    <g clip-path="url(#p33e46aa764)">
     <use style="fill:#33628d;stroke:#000000;" x="69.042859" xlink:href="#C0_0_0e9d1a99a8" y="159.857136"/>
    </g>
    <g clip-path="url(#p33e46aa764)">
     <use style="fill:#2c738e;stroke:#000000;" x="100.105717" xlink:href="#C0_0_0e9d1a99a8" y="159.857136"/>
    </g>
    <g clip-path="url(#p33e46aa764)">
     <use style="fill:#2c738e;stroke:#000000;" x="131.168572" xlink:href="#C0_0_0e9d1a99a8" y="159.857136"/>
    </g>
    <g clip-path="url(#p33e46aa764)">
     <use style="fill:#20a386;stroke:#000000;" x="162.231434" xlink:href="#C0_0_0e9d1a99a8" y="159.857136"/>
    </g>
    <g clip-path="url(#p33e46aa764)">
     <use style="fill:#20a386;stroke:#000000;" x="193.294289" xlink:href="#C0_0_0e9d1a99a8" y="159.857136"/>
    </g>
    <g clip-path="url(#p33e46aa764)">
     <use style="fill:#375b8d;stroke:#000000;" x="224.357145" xlink:href="#C0_0_0e9d1a99a8" y="159.857136"/>
    </g>
    <g clip-path="url(#p33e46aa764)">
     <use style="fill:#375b8d;stroke:#000000;" x="255.42" xlink:href="#C0_0_0e9d1a99a8" y="159.857136"/>
    </g>
    <g clip-path="url(#p33e46aa764)">
     <use style="fill:#450559;stroke:#000000;" x="37.98" xlink:href="#C0_0_0e9d1a99a8" y="119.571424"/>
    </g>
    <g clip-path="url(#p33e46aa764)">
     <use style="fill:#450559;stroke:#000000;" x="69.042859" xlink:href="#C0_0_0e9d1a99a8" y="119.571424"/>
    </g>
    <g clip-path="url(#p33e46aa764)">
     <use style="fill:#1f9f88;stroke:#000000;" x="100.105717" xlink:href="#C0_0_0e9d1a99a8" y="119.571424"/>
    </g>
    <g clip-path="url(#p33e46aa764)">
     <use style="fill:#1f9f88;stroke:#000000;" x="131.168572" xlink:href="#C0_0_0e9d1a99a8" y="119.571424"/>
    </g>
    <g clip-path="url(#p33e46aa764)">
     <use style="fill:#25838e;stroke:#000000;" x="162.231434" xlink:href="#C0_0_0e9d1a99a8" y="119.571424"/>
    </g>
    <g clip-path="url(#p33e46aa764)">
     <use style="fill:#25838e;stroke:#000000;" x="193.294289" xlink:href="#C0_0_0e9d1a99a8" y="119.571424"/>
    </g>
    <g clip-path="url(#p33e46aa764)">
     <use style="fill:#e7e419;stroke:#000000;" x="224.357145" xlink:href="#C0_0_0e9d1a99a8" y="119.571424"/>
    </g>
    <g clip-path="url(#p33e46aa764)">
     <use style="fill:#e7e419;stroke:#000000;" x="255.42" xlink:href="#C0_0_0e9d1a99a8" y="119.571424"/>
    </g>
    <g clip-path="url(#p33e46aa764)">
     <use style="fill:#450559;stroke:#000000;" x="37.98" xlink:href="#C0_0_0e9d1a99a8" y="79.285712"/>
    </g>
    <g clip-path="url(#p33e46aa764)">
     <use style="fill:#450559;stroke:#000000;" x="69.042859" xlink:href="#C0_0_0e9d1a99a8" y="79.285712"/>
    </g>
    <g clip-path="url(#p33e46aa764)">
     <use style="fill:#1f9f88;stroke:#000000;" x="100.105717" xlink:href="#C0_0_0e9d1a99a8" y="79.285712"/>
    </g>
    <g clip-path="url(#p33e46aa764)">
     <use style="fill:#1f9f88;stroke:#000000;" x="131.168572" xlink:href="#C0_0_0e9d1a99a8" y="79.285712"/>
    </g>
    <g clip-path="url(#p33e46aa764)">
     <use style="fill:#25838e;stroke:#000000;" x="162.231434" xlink:href="#C0_0_0e9d1a99a8" y="79.285712"/>
    </g>
    <g clip-path="url(#p33e46aa764)">
     <use style="fill:#25838e;stroke:#000000;" x="193.294289" xlink:href="#C0_0_0e9d1a99a8" y="79.285712"/>
    </g>
    <g clip-path="url(#p33e46aa764)">
     <use style="fill:#e7e419;stroke:#000000;" x="224.357145" xlink:href="#C0_0_0e9d1a99a8" y="79.285712"/>
    </g>
    <g clip-path="url(#p33e46aa764)">
     <use style="fill:#e7e419;stroke:#000000;" x="255.42" xlink:href="#C0_0_0e9d1a99a8" y="79.285712"/>
    </g>
    <g clip-path="url(#p33e46aa764)">
     <use style="fill:#25848e;stroke:#000000;" x="37.98" xlink:href="#C0_0_0e9d1a99a8" y="39"/>
    </g>
    <g clip-path="url(#p33e46aa764)">
     <use style="fill:#25848e;stroke:#000000;" x="69.042859" xlink:href="#C0_0_0e9d1a99a8" y="39"/>
    </g>
    <g clip-path="url(#p33e46aa764)">
     <use style="fill:#1e9d89;stroke:#000000;" x="100.105717" xlink:href="#C0_0_0e9d1a99a8" y="39"/>
    </g>
    <g clip-path="url(#p33e46aa764)">
     <use style="fill:#1e9d89;stroke:#000000;" x="131.168572" xlink:href="#C0_0_0e9d1a99a8" y="39"/>
    </g>
    <g clip-path="url(#p33e46aa764)">
     <use style="fill:#277e8e;stroke:#000000;" x="162.231434" xlink:href="#C0_0_0e9d1a99a8" y="39"/>
    </g>
    <g clip-path="url(#p33e46aa764)">
     <use style="fill:#277e8e;stroke:#000000;" x="193.294289" xlink:href="#C0_0_0e9d1a99a8" y="39"/>
    </g>
    <g clip-path="url(#p33e46aa764)">
     <use style="fill:#404688;stroke:#000000;" x="224.357145" xlink:href="#C0_0_0e9d1a99a8" y="39"/>
    </g>
    <g clip-path="url(#p33e46aa764)">
     <use style="fill:#404688;stroke:#000000;" x="255.42" xlink:href="#C0_0_0e9d1a99a8" y="39"/>
    </g>
   </g>
   <g id="matplotlib.axis_1">
    <g id="xtick_1"/>
    <g id="xtick_2"/>
    <g id="xtick_3"/>
    <g id="xtick_4"/>
    <g id="xtick_5"/>
    <g id="xtick_6"/>
   </g>
   <g id="matplotlib.axis_2">
    <g id="ytick_1"/>
    <g id="ytick_2"/>
    <g id="ytick_3"/>
    <g id="ytick_4"/>
    <g id="ytick_5"/>
    <g id="ytick_6"/>
   </g>
   <g id="line2d_1">
    <defs>
     <path d="M -3 3 
L 3 -3 
M -3 -3 
L 3 3 
" id="md6f8c1b329" style="stroke:#000000;"/>
    </defs>
    <g clip-path="url(#p33e46aa764)">
     <use style="stroke:#000000;" x="37.98" xlink:href="#md6f8c1b329" y="321"/>
     <use style="stroke:#000000;" x="37.98" xlink:href="#md6f8c1b329" y="250.5"/>
     <use style="stroke:#000000;" x="37.98" xlink:href="#md6f8c1b329" y="180"/>
     <use style="stroke:#000000;" x="37.98" xlink:href="#md6f8c1b329" y="109.5"/>
     <use style="stroke:#000000;" x="37.98" xlink:href="#md6f8c1b329" y="39"/>
    </g>
   </g>
   <g id="line2d_2">
    <g clip-path="url(#p33e46aa764)">
     <use style="stroke:#000000;" x="110.460002" xlink:href="#md6f8c1b329" y="321"/>
     <use style="stroke:#000000;" x="110.460002" xlink:href="#md6f8c1b329" y="250.5"/>
     <use style="stroke:#000000;" x="110.460002" xlink:href="#md6f8c1b329" y="180"/>
     <use style="stroke:#000000;" x="110.460002" xlink:href="#md6f8c1b329" y="109.5"/>
     <use style="stroke:#000000;" x="110.460002" xlink:href="#md6f8c1b329" y="39"/>
    </g>
   </g>
   <g id="line2d_3">
    <g clip-path="url(#p33e46aa764)">
     <use style="stroke:#000000;" x="182.940004" xlink:href="#md6f8c1b329" y="321"/>
     <use style="stroke:#000000;" x="182.940004" xlink:href="#md6f8c1b329" y="250.5"/>
     <use style="stroke:#000000;" x="182.940004" xlink:href="#md6f8c1b329" y="180"/>
     <use style="stroke:#000000;" x="182.940004" xlink:href="#md6f8c1b329" y="109.5"/>
     <use style="stroke:#000000;" x="182.940004" xlink:href="#md6f8c1b329" y="39"/>
    </g>
   </g>
   <g id="line2d_4">
    <g clip-path="url(#p33e46aa764)">
     <use style="stroke:#000000;" x="255.42" xlink:href="#md6f8c1b329" y="321"/>
     <use style="stroke:#000000;" x="255.42" xlink:href="#md6f8c1b329" y="250.5"/>
     <use style="stroke:#000000;" x="255.42" xlink:href="#md6f8c1b329" y="180"/>
     <use style="stroke:#000000;" x="255.42" xlink:href="#md6f8c1b329" y="109.5"/>
     <use style="stroke:#000000;" x="255.42" xlink:href="#md6f8c1b329" y="39"/>
    </g>
   </g>
   <g id="patch_3">
    <path d="M 10.8 349.2 
L 10.8 10.8 
" style="fill:none;stroke:#000000;stroke-linecap:square;stroke-linejoin:miter;stroke-width:0.8;"/>
   </g>
   <g id="patch_4">
    <path d="M 282.6 349.2 
L 282.6 10.8 
" style="fill:none;stroke:#000000;stroke-linecap:square;stroke-linejoin:miter;stroke-width:0.8;"/>
   </g>
   <g id="patch_5">
    <path d="M 10.8 349.2 
L 282.6 349.2 
" style="fill:none;stroke:#000000;stroke-linecap:square;stroke-linejoin:miter;stroke-width:0.8;"/>
   </g>
   <g id="patch_6">
    <path d="M 10.8 10.8 
L 282.6 10.8 
" style="fill:none;stroke:#000000;stroke-linecap:square;stroke-linejoin:miter;stroke-width:0.8;"/>
   </g>
  </g>
  <g id="axes_2">
   <g id="patch_7">
    <path d="M 293.4 349.2 
L 565.2 349.2 
L 565.2 10.8 
L 293.4 10.8 
z
" style="fill:#ffffff;"/>
   </g>
   <g id="QuadMesh_2">
    <path clip-path="url(#p428d09c7ef)" d="M 293.4 349.2 
L 361.35 349.2 
L 361.35 281.52 
L 293.4 281.52 
L 293.4 349.2 
" style="fill:#470e61;"/>
    <path clip-path="url(#p428d09c7ef)" d="M 361.35 349.2 
L 429.3 349.2 
L 429.3 281.52 
L 361.35 281.52 
L 361.35 349.2 
" style="fill:#20928c;"/>
    <path clip-path="url(#p428d09c7ef)" d="M 429.3 349.2 
L 497.25 349.2 
L 497.25 281.52 
L 429.3 281.52 
L 429.3 349.2 
" style="fill:#5ac864;"/>
    <path clip-path="url(#p428d09c7ef)" d="M 497.25 349.2 
L 565.2 349.2 
L 565.2 281.52 
L 497.25 281.52 
L 497.25 349.2 
" style="fill:#20a386;"/>
    <path clip-path="url(#p428d09c7ef)" d="M 293.4 281.52 
L 361.35 281.52 
L 361.35 213.84 
L 293.4 213.84 
L 293.4 281.52 
" style="fill:#f4e61e;"/>
    <path clip-path="url(#p428d09c7ef)" d="M 361.35 281.52 
L 429.3 281.52 
L 429.3 213.84 
L 361.35 213.84 
L 361.35 281.52 
" style="fill:none;"/>
    <path clip-path="url(#p428d09c7ef)" d="M 429.3 281.52 
L 497.25 281.52 
L 497.25 213.84 
L 429.3 213.84 
L 429.3 281.52 
" style="fill:#481769;"/>
    <path clip-path="url(#p428d09c7ef)" d="M 497.25 281.52 
L 565.2 281.52 
L 565.2 213.84 
L 497.25 213.84 
L 497.25 281.52 
" style="fill:#75d054;"/>
    <path clip-path="url(#p428d09c7ef)" d="M 293.4 213.84 
L 361.35 213.84 
L 361.35 146.16 
L 293.4 146.16 
L 293.4 213.84 
" style="fill:#33628d;"/>
    <path clip-path="url(#p428d09c7ef)" d="M 361.35 213.84 
L 429.3 213.84 
L 429.3 146.16 
L 361.35 146.16 
L 361.35 213.84 
" style="fill:#2c738e;"/>
    <path clip-path="url(#p428d09c7ef)" d="M 429.3 213.84 
L 497.25 213.84 
L 497.25 146.16 
L 429.3 146.16 
L 429.3 213.84 
" style="fill:#20a386;"/>
    <path clip-path="url(#p428d09c7ef)" d="M 497.25 213.84 
L 565.2 213.84 
L 565.2 146.16 
L 497.25 146.16 
L 497.25 213.84 
" style="fill:#375b8d;"/>
    <path clip-path="url(#p428d09c7ef)" d="M 293.4 146.16 
L 361.35 146.16 
L 361.35 78.48 
L 293.4 78.48 
L 293.4 146.16 
" style="fill:#450559;"/>
    <path clip-path="url(#p428d09c7ef)" d="M 361.35 146.16 
L 429.3 146.16 
L 429.3 78.48 
L 361.35 78.48 
L 361.35 146.16 
" style="fill:#1f9f88;"/>
    <path clip-path="url(#p428d09c7ef)" d="M 429.3 146.16 
L 497.25 146.16 
L 497.25 78.48 
L 429.3 78.48 
L 429.3 146.16 
" style="fill:#25838e;"/>
    <path clip-path="url(#p428d09c7ef)" d="M 497.25 146.16 
L 565.2 146.16 
L 565.2 78.48 
L 497.25 78.48 
L 497.25 146.16 
" style="fill:#e7e419;"/>
    <path clip-path="url(#p428d09c7ef)" d="M 293.4 78.48 
L 361.35 78.48 
L 361.35 10.8 
L 293.4 10.8 
L 293.4 78.48 
" style="fill:#25848e;"/>
    <path clip-path="url(#p428d09c7ef)" d="M 361.35 78.48 
L 429.3 78.48 
L 429.3 10.8 
L 361.35 10.8 
L 361.35 78.48 
" style="fill:#1e9d89;"/>
    <path clip-path="url(#p428d09c7ef)" d="M 429.3 78.48 
L 497.25 78.48 
L 497.25 10.8 
L 429.3 10.8 
L 429.3 78.48 
" style="fill:#277e8e;"/>
    <path clip-path="url(#p428d09c7ef)" d="M 497.25 78.48 
L 565.2 78.48 
L 565.2 10.8 
L 497.25 10.8 
L 497.25 78.48 
" style="fill:#404688;"/>
   </g>
   <g id="PathCollection_2">
    <defs>
     <path d="M 0 3.535534 
C 0.937635 3.535534 1.836992 3.163008 2.5 2.5 
C 3.163008 1.836992 3.535534 0.937635 3.535534 -0 
C 3.535534 -0.937635 3.163008 -1.836992 2.5 -2.5 
C 1.836992 -3.163008 0.937635 -3.535534 0 -3.535534 
C -0.937635 -3.535534 -1.836992 -3.163008 -2.5 -2.5 
C -3.163008 -1.836992 -3.535534 -0.937635 -3.535534 0 
C -3.535534 0.937635 -3.163008 1.836992 -2.5 2.5 
C -1.836992 3.163008 -0.937635 3.535534 0 3.535534 
z
" id="C1_0_2f1b11598e"/>
    </defs>
    <g clip-path="url(#p428d09c7ef)">
     <use style="fill:#481769;stroke:#000000;" x="413.768572" xlink:href="#C1_0_2f1b11598e" y="321"/>
    </g>
    <g clip-path="url(#p428d09c7ef)">
     <use style="fill:#481769;stroke:#000000;" x="444.831434" xlink:href="#C1_0_2f1b11598e" y="321"/>
    </g>
    <g clip-path="url(#p428d09c7ef)">
     <use style="fill:#75d054;stroke:#000000;" x="475.894289" xlink:href="#C1_0_2f1b11598e" y="321"/>
    </g>
    <g clip-path="url(#p428d09c7ef)">
     <use style="fill:#75d054;stroke:#000000;" x="506.957145" xlink:href="#C1_0_2f1b11598e" y="321"/>
    </g>
    <g clip-path="url(#p428d09c7ef)">
     <use style="fill:#75d054;stroke:#000000;" x="538.02" xlink:href="#C1_0_2f1b11598e" y="321"/>
    </g>
    <g clip-path="url(#p428d09c7ef)">
     <use style="fill:#481769;stroke:#000000;" x="413.768572" xlink:href="#C1_0_2f1b11598e" y="280.714284"/>
    </g>
    <g clip-path="url(#p428d09c7ef)">
     <use style="fill:#481769;stroke:#000000;" x="444.831434" xlink:href="#C1_0_2f1b11598e" y="280.714284"/>
    </g>
    <g clip-path="url(#p428d09c7ef)">
     <use style="fill:#75d054;stroke:#000000;" x="475.894289" xlink:href="#C1_0_2f1b11598e" y="280.714284"/>
    </g>
    <g clip-path="url(#p428d09c7ef)">
     <use style="fill:#75d054;stroke:#000000;" x="506.957145" xlink:href="#C1_0_2f1b11598e" y="280.714284"/>
    </g>
    <g clip-path="url(#p428d09c7ef)">
     <use style="fill:#75d054;stroke:#000000;" x="538.02" xlink:href="#C1_0_2f1b11598e" y="280.714284"/>
    </g>
    <g clip-path="url(#p428d09c7ef)">
     <use style="fill:#2c738e;stroke:#000000;" x="320.58" xlink:href="#C1_0_2f1b11598e" y="240.428568"/>
    </g>
    <g clip-path="url(#p428d09c7ef)">
     <use style="fill:#2c738e;stroke:#000000;" x="351.642859" xlink:href="#C1_0_2f1b11598e" y="240.428568"/>
    </g>
    <g clip-path="url(#p428d09c7ef)">
     <use style="fill:#2c738e;stroke:#000000;" x="382.705717" xlink:href="#C1_0_2f1b11598e" y="240.428568"/>
    </g>
    <g clip-path="url(#p428d09c7ef)">
     <use style="fill:#20a386;stroke:#000000;" x="413.768572" xlink:href="#C1_0_2f1b11598e" y="240.428568"/>
    </g>
    <g clip-path="url(#p428d09c7ef)">
     <use style="fill:#20a386;stroke:#000000;" x="444.831434" xlink:href="#C1_0_2f1b11598e" y="240.428568"/>
    </g>
    <g clip-path="url(#p428d09c7ef)">
     <use style="fill:#375b8d;stroke:#000000;" x="475.894289" xlink:href="#C1_0_2f1b11598e" y="240.428568"/>
    </g>
    <g clip-path="url(#p428d09c7ef)">
     <use style="fill:#375b8d;stroke:#000000;" x="506.957145" xlink:href="#C1_0_2f1b11598e" y="240.428568"/>
    </g>
    <g clip-path="url(#p428d09c7ef)">
     <use style="fill:#375b8d;stroke:#000000;" x="538.02" xlink:href="#C1_0_2f1b11598e" y="240.428568"/>
    </g>
    <g clip-path="url(#p428d09c7ef)">
     <use style="fill:#2c738e;stroke:#000000;" x="320.58" xlink:href="#C1_0_2f1b11598e" y="200.142856"/>
    </g>
    <g clip-path="url(#p428d09c7ef)">
     <use style="fill:#2c738e;stroke:#000000;" x="351.642859" xlink:href="#C1_0_2f1b11598e" y="200.142856"/>
    </g>
    <g clip-path="url(#p428d09c7ef)">
     <use style="fill:#2c738e;stroke:#000000;" x="382.705717" xlink:href="#C1_0_2f1b11598e" y="200.142856"/>
    </g>
    <g clip-path="url(#p428d09c7ef)">
     <use style="fill:#20a386;stroke:#000000;" x="413.768572" xlink:href="#C1_0_2f1b11598e" y="200.142856"/>
    </g>
    <g clip-path="url(#p428d09c7ef)">
     <use style="fill:#20a386;stroke:#000000;" x="444.831434" xlink:href="#C1_0_2f1b11598e" y="200.142856"/>
    </g>
    <g clip-path="url(#p428d09c7ef)">
     <use style="fill:#375b8d;stroke:#000000;" x="475.894289" xlink:href="#C1_0_2f1b11598e" y="200.142856"/>
    </g>
    <g clip-path="url(#p428d09c7ef)">
     <use style="fill:#375b8d;stroke:#000000;" x="506.957145" xlink:href="#C1_0_2f1b11598e" y="200.142856"/>
    </g>
    <g clip-path="url(#p428d09c7ef)">
     <use style="fill:#375b8d;stroke:#000000;" x="538.02" xlink:href="#C1_0_2f1b11598e" y="200.142856"/>
    </g>
    <g clip-path="url(#p428d09c7ef)">
     <use style="fill:#1f9f88;stroke:#000000;" x="320.58" xlink:href="#C1_0_2f1b11598e" y="159.857136"/>
    </g>
    <g clip-path="url(#p428d09c7ef)">
     <use style="fill:#1f9f88;stroke:#000000;" x="351.642859" xlink:href="#C1_0_2f1b11598e" y="159.857136"/>
    </g>
    <g clip-path="url(#p428d09c7ef)">
     <use style="fill:#1f9f88;stroke:#000000;" x="382.705717" xlink:href="#C1_0_2f1b11598e" y="159.857136"/>
    </g>
    <g clip-path="url(#p428d09c7ef)">
     <use style="fill:#25838e;stroke:#000000;" x="413.768572" xlink:href="#C1_0_2f1b11598e" y="159.857136"/>
    </g>
    <g clip-path="url(#p428d09c7ef)">
     <use style="fill:#25838e;stroke:#000000;" x="444.831434" xlink:href="#C1_0_2f1b11598e" y="159.857136"/>
    </g>
    <g clip-path="url(#p428d09c7ef)">
     <use style="fill:#e7e419;stroke:#000000;" x="475.894289" xlink:href="#C1_0_2f1b11598e" y="159.857136"/>
    </g>
    <g clip-path="url(#p428d09c7ef)">
     <use style="fill:#e7e419;stroke:#000000;" x="506.957145" xlink:href="#C1_0_2f1b11598e" y="159.857136"/>
    </g>
    <g clip-path="url(#p428d09c7ef)">
     <use style="fill:#e7e419;stroke:#000000;" x="538.02" xlink:href="#C1_0_2f1b11598e" y="159.857136"/>
    </g>
    <g clip-path="url(#p428d09c7ef)">
     <use style="fill:#1f9f88;stroke:#000000;" x="320.58" xlink:href="#C1_0_2f1b11598e" y="119.571424"/>
    </g>
    <g clip-path="url(#p428d09c7ef)">
     <use style="fill:#1f9f88;stroke:#000000;" x="351.642859" xlink:href="#C1_0_2f1b11598e" y="119.571424"/>
    </g>
    <g clip-path="url(#p428d09c7ef)">
     <use style="fill:#1f9f88;stroke:#000000;" x="382.705717" xlink:href="#C1_0_2f1b11598e" y="119.571424"/>
    </g>
    <g clip-path="url(#p428d09c7ef)">
     <use style="fill:#25838e;stroke:#000000;" x="413.768572" xlink:href="#C1_0_2f1b11598e" y="119.571424"/>
    </g>
    <g clip-path="url(#p428d09c7ef)">
     <use style="fill:#25838e;stroke:#000000;" x="444.831434" xlink:href="#C1_0_2f1b11598e" y="119.571424"/>
    </g>
    <g clip-path="url(#p428d09c7ef)">
     <use style="fill:#e7e419;stroke:#000000;" x="475.894289" xlink:href="#C1_0_2f1b11598e" y="119.571424"/>
    </g>
    <g clip-path="url(#p428d09c7ef)">
     <use style="fill:#e7e419;stroke:#000000;" x="506.957145" xlink:href="#C1_0_2f1b11598e" y="119.571424"/>
    </g>
    <g clip-path="url(#p428d09c7ef)">
     <use style="fill:#e7e419;stroke:#000000;" x="538.02" xlink:href="#C1_0_2f1b11598e" y="119.571424"/>
    </g>
    <g clip-path="url(#p428d09c7ef)">
     <use style="fill:#1e9d89;stroke:#000000;" x="320.58" xlink:href="#C1_0_2f1b11598e" y="79.285712"/>
    </g>
    <g clip-path="url(#p428d09c7ef)">
     <use style="fill:#1e9d89;stroke:#000000;" x="351.642859" xlink:href="#C1_0_2f1b11598e" y="79.285712"/>
    </g>
    <g clip-path="url(#p428d09c7ef)">
     <use style="fill:#1e9d89;stroke:#000000;" x="382.705717" xlink:href="#C1_0_2f1b11598e" y="79.285712"/>
    </g>
    <g clip-path="url(#p428d09c7ef)">
     <use style="fill:#277e8e;stroke:#000000;" x="413.768572" xlink:href="#C1_0_2f1b11598e" y="79.285712"/>
    </g>
    <g clip-path="url(#p428d09c7ef)">
     <use style="fill:#277e8e;stroke:#000000;" x="444.831434" xlink:href="#C1_0_2f1b11598e" y="79.285712"/>
    </g>
    <g clip-path="url(#p428d09c7ef)">
     <use style="fill:#404688;stroke:#000000;" x="475.894289" xlink:href="#C1_0_2f1b11598e" y="79.285712"/>
    </g>
    <g clip-path="url(#p428d09c7ef)">
     <use style="fill:#404688;stroke:#000000;" x="506.957145" xlink:href="#C1_0_2f1b11598e" y="79.285712"/>
    </g>
    <g clip-path="url(#p428d09c7ef)">
     <use style="fill:#404688;stroke:#000000;" x="538.02" xlink:href="#C1_0_2f1b11598e" y="79.285712"/>
    </g>
    <g clip-path="url(#p428d09c7ef)">
     <use style="fill:#1e9d89;stroke:#000000;" x="320.58" xlink:href="#C1_0_2f1b11598e" y="39"/>
    </g>
    <g clip-path="url(#p428d09c7ef)">
     <use style="fill:#1e9d89;stroke:#000000;" x="351.642859" xlink:href="#C1_0_2f1b11598e" y="39"/>
    </g>
    <g clip-path="url(#p428d09c7ef)">
     <use style="fill:#1e9d89;stroke:#000000;" x="382.705717" xlink:href="#C1_0_2f1b11598e" y="39"/>
    </g>
    <g clip-path="url(#p428d09c7ef)">
     <use style="fill:#277e8e;stroke:#000000;" x="413.768572" xlink:href="#C1_0_2f1b11598e" y="39"/>
    </g>
    <g clip-path="url(#p428d09c7ef)">
     <use style="fill:#277e8e;stroke:#000000;" x="444.831434" xlink:href="#C1_0_2f1b11598e" y="39"/>
    </g>
    <g clip-path="url(#p428d09c7ef)">
     <use style="fill:#404688;stroke:#000000;" x="475.894289" xlink:href="#C1_0_2f1b11598e" y="39"/>
    </g>
    <g clip-path="url(#p428d09c7ef)">
     <use style="fill:#404688;stroke:#000000;" x="506.957145" xlink:href="#C1_0_2f1b11598e" y="39"/>
    </g>
    <g clip-path="url(#p428d09c7ef)">
     <use style="fill:#404688;stroke:#000000;" x="538.02" xlink:href="#C1_0_2f1b11598e" y="39"/>
    </g>
   </g>
   <g id="matplotlib.axis_3">
    <g id="xtick_7"/>
    <g id="xtick_8"/>
    <g id="xtick_9"/>
    <g id="xtick_10"/>
    <g id="xtick_11"/>
    <g id="xtick_12"/>
   </g>
   <g id="matplotlib.axis_4">
    <g id="ytick_7"/>
    <g id="ytick_8"/>
    <g id="ytick_9"/>
    <g id="ytick_10"/>
    <g id="ytick_11"/>
    <g id="ytick_12"/>
   </g>
   <g id="line2d_5">
    <path clip-path="url(#p428d09c7ef)" d="M 293.4 321 
L 565.2 321 
" style="fill:none;stroke:#000000;stroke-dasharray:5.55,2.4;stroke-dashoffset:0;stroke-width:1.5;"/>
   </g>
   <g id="line2d_6">
    <path clip-path="url(#p428d09c7ef)" d="M 293.4 250.5 
L 565.2 250.5 
" style="fill:none;stroke:#000000;stroke-dasharray:5.55,2.4;stroke-dashoffset:0;stroke-width:1.5;"/>
   </g>
   <g id="line2d_7">
    <path clip-path="url(#p428d09c7ef)" d="M 293.4 180 
L 565.2 180 
" style="fill:none;stroke:#000000;stroke-dasharray:5.55,2.4;stroke-dashoffset:0;stroke-width:1.5;"/>
   </g>
   <g id="line2d_8">
    <path clip-path="url(#p428d09c7ef)" d="M 293.4 109.5 
L 565.2 109.5 
" style="fill:none;stroke:#000000;stroke-dasharray:5.55,2.4;stroke-dashoffset:0;stroke-width:1.5;"/>
   </g>
   <g id="line2d_9">
    <path clip-path="url(#p428d09c7ef)" d="M 293.4 39 
L 565.2 39 
" style="fill:none;stroke:#000000;stroke-dasharray:5.55,2.4;stroke-dashoffset:0;stroke-width:1.5;"/>
   </g>
   <g id="line2d_10">
    <path clip-path="url(#p428d09c7ef)" d="M 320.58 349.2 
L 320.58 10.8 
" style="fill:none;stroke:#000000;stroke-dasharray:5.55,2.4;stroke-dashoffset:0;stroke-width:1.5;"/>
   </g>
   <g id="line2d_11">
    <path clip-path="url(#p428d09c7ef)" d="M 393.060002 349.2 
L 393.060002 10.8 
" style="fill:none;stroke:#000000;stroke-dasharray:5.55,2.4;stroke-dashoffset:0;stroke-width:1.5;"/>
   </g>
   <g id="line2d_12">
    <path clip-path="url(#p428d09c7ef)" d="M 465.540004 349.2 
L 465.540004 10.8 
" style="fill:none;stroke:#000000;stroke-dasharray:5.55,2.4;stroke-dashoffset:0;stroke-width:1.5;"/>
   </g>
   <g id="line2d_13">
    <path clip-path="url(#p428d09c7ef)" d="M 538.02 349.2 
L 538.02 10.8 
" style="fill:none;stroke:#000000;stroke-dasharray:5.55,2.4;stroke-dashoffset:0;stroke-width:1.5;"/>
   </g>
   <g id="line2d_14">
    <g clip-path="url(#p428d09c7ef)">
     <use style="stroke:#000000;" x="320.58" xlink:href="#md6f8c1b329" y="321"/>
     <use style="stroke:#000000;" x="320.58" xlink:href="#md6f8c1b329" y="250.5"/>
     <use style="stroke:#000000;" x="320.58" xlink:href="#md6f8c1b329" y="180"/>
     <use style="stroke:#000000;" x="320.58" xlink:href="#md6f8c1b329" y="109.5"/>
     <use style="stroke:#000000;" x="320.58" xlink:href="#md6f8c1b329" y="39"/>
    </g>
   </g>
   <g id="line2d_15">
    <g clip-path="url(#p428d09c7ef)">
     <use style="stroke:#000000;" x="393.060002" xlink:href="#md6f8c1b329" y="321"/>
     <use style="stroke:#000000;" x="393.060002" xlink:href="#md6f8c1b329" y="250.5"/>
     <use style="stroke:#000000;" x="393.060002" xlink:href="#md6f8c1b329" y="180"/>
     <use style="stroke:#000000;" x="393.060002" xlink:href="#md6f8c1b329" y="109.5"/>
     <use style="stroke:#000000;" x="393.060002" xlink:href="#md6f8c1b329" y="39"/>
    </g>
   </g>
   <g id="line2d_16">
    <g clip-path="url(#p428d09c7ef)">
     <use style="stroke:#000000;" x="465.540004" xlink:href="#md6f8c1b329" y="321"/>
     <use style="stroke:#000000;" x="465.540004" xlink:href="#md6f8c1b329" y="250.5"/>
     <use style="stroke:#000000;" x="465.540004" xlink:href="#md6f8c1b329" y="180"/>
     <use style="stroke:#000000;" x="465.540004" xlink:href="#md6f8c1b329" y="109.5"/>
     <use style="stroke:#000000;" x="465.540004" xlink:href="#md6f8c1b329" y="39"/>
    </g>
   </g>
   <g id="line2d_17">
    <g clip-path="url(#p428d09c7ef)">
     <use style="stroke:#000000;" x="538.02" xlink:href="#md6f8c1b329" y="321"/>
     <use style="stroke:#000000;" x="538.02" xlink:href="#md6f8c1b329" y="250.5"/>
     <use style="stroke:#000000;" x="538.02" xlink:href="#md6f8c1b329" y="180"/>
     <use style="stroke:#000000;" x="538.02" xlink:href="#md6f8c1b329" y="109.5"/>
     <use style="stroke:#000000;" x="538.02" xlink:href="#md6f8c1b329" y="39"/>
    </g>
   </g>
   <g id="patch_8">
    <path d="M 293.4 349.2 
L 293.4 10.8 
" style="fill:none;stroke:#000000;stroke-linecap:square;stroke-linejoin:miter;stroke-width:0.8;"/>
   </g>
   <g id="patch_9">
    <path d="M 565.2 349.2 
L 565.2 10.8 
" style="fill:none;stroke:#000000;stroke-linecap:square;stroke-linejoin:miter;stroke-width:0.8;"/>
   </g>
   <g id="patch_10">
    <path d="M 293.4 349.2 
L 565.2 349.2 
" style="fill:none;stroke:#000000;stroke-linecap:square;stroke-linejoin:miter;stroke-width:0.8;"/>
   </g>
   <g id="patch_11">
    <path d="M 293.4 10.8 
L 565.2 10.8 
" style="fill:none;stroke:#000000;stroke-linecap:square;stroke-linejoin:miter;stroke-width:0.8;"/>
   </g>
  </g>
 </g>
 <defs>
  <clipPath id="p33e46aa764">
   <rect height="338.4" width="271.8" x="10.8" y="10.8"/>
  </clipPath>
  <clipPath id="p428d09c7ef">
   <rect height="338.4" width="271.8" x="293.4" y="10.8"/>
  </clipPath>
 </defs>
</svg>
