<?xml version="1.0" encoding="UTF-8"?>
<svg xmlns="http://www.w3.org/2000/svg" xmlns:svg="http://www.w3.org/2000/svg" version="1.1" viewBox="0 0 255.1 255.1">
  <defs>
    <style>
      .cls-1 {
        fill: #fff;
      }

      .cls-2 {
        fill: #c8c8c8;
      }
    </style>
  </defs>
  <!-- Generator: Adobe Illustrator 28.7.0, SVG Export Plug-In . SVG Version: 1.2.0 Build 136)  -->
  <g>
    <g id="svg1">
      <g id="g2">
        <g id="g9">
          <g id="g8">
            <path id="path9" class="cls-2" d="M126.8,124.2c-15.1,0-30.2,1.7-43.4,5.2h4.2v1c12.1-2.8,25.7-4.2,39.2-4.2,20.5,0,41,3.2,56.5,9.6,7.8,3.2,13.6,6.9,17.4,10.7,3.8,3.9,5.6,7.8,5.6,11.8s-1.8,7.9-5.6,11.8-9.6,7.5-17.4,10.7c-31.1,12.8-82,12.8-113.1,0-7.8-3.2-13.6-6.9-17.4-10.7-3.8-3.9-5.6-7.8-5.6-11.8s1.8-7.9,5.6-11.8c1.4-1.4,3-2.8,4.9-4.1v-2.4c-2.5,1.6-4.6,3.3-6.3,5.1-4.1,4.1-6.2,8.6-6.2,13.2s2.1,9,6.2,13.2c4.1,4.1,10.1,7.9,18,11.2,31.8,13.1,82.8,13.1,114.6,0,7.9-3.3,14-7.1,18-11.2,4.1-4.1,6.2-8.6,6.2-13.2s-2.1-9-6.2-13.2c-4.1-4.1-10.1-7.9-18-11.2-15.9-6.5-36.6-9.8-57.3-9.8Z"/>
          </g>
          <g id="g13">
            <path id="path14" class="cls-1" d="M92.5,125.6c2.6,2.6,2.6,6.9,0,9.5s-6.9,2.6-9.5,0-2.6-6.9,0-9.5,6.9-2.6,9.5,0Z"/>
          </g>
        </g>
        <g id="g7">
          <g id="g6">
            <path id="path7" class="cls-2" d="M136.7,97.4v2.1c21.5.9,42.4,4.7,58.8,11.4,9.4,3.9,16.5,8.4,21.1,13.1,4.6,4.7,6.9,9.6,6.9,14.4s-2.2,9.7-6.9,14.4c-4.6,4.7-11.7,9.2-21.1,13.1-37.8,15.5-99.6,15.5-137.3,0-9.4-3.9-16.5-8.4-21.1-13.1-4.6-4.7-6.9-9.6-6.9-14.4s2.2-9.7,6.9-14.4c4.6-4.7,11.7-9.2,21.1-13.1,13.8-5.7,30.9-9.3,48.8-10.8v-2.1c-18.1,1.5-35.4,5.2-49.5,11-9.6,4-16.9,8.5-21.8,13.5-4.9,5-7.4,10.4-7.4,15.8s2.5,10.8,7.4,15.8c4.9,5,12.2,9.5,21.8,13.5,38.5,15.8,100.4,15.8,138.9,0,9.6-4,16.9-8.5,21.8-13.5,4.9-5,7.4-10.4,7.4-15.8s-2.5-10.8-7.4-15.8c-4.9-5-12.2-9.5-21.8-13.5-16.7-6.9-37.8-10.7-59.5-11.7Z"/>
          </g>
          <g id="g14">
            <path id="path15" class="cls-1" d="M144.5,94.6c2.6,2.6,2.6,6.9,0,9.5s-6.9,2.6-9.5,0-2.6-6.9,0-9.5c2.6-2.6,6.9-2.6,9.5,0Z"/>
          </g>
        </g>
        <g id="g5">
          <g id="g4">
            <path id="path5" class="cls-2" d="M126.8,67.3c-31.2,0-62.4,4.9-86.4,14.8-12,4.9-21,10.6-27,16.8s-9.2,12.8-9.2,19.5,3.1,13.4,9.2,19.5c6.1,6.2,15.1,11.8,27,16.8,47.8,19.7,124.9,19.7,172.7,0,12-4.9,21-10.6,27-16.8s9.2-12.8,9.2-19.5-3.1-13.4-9.2-19.5c-6.1-6.2-15.1-11.8-27-16.8-5.8-2.4-12-4.5-18.6-6.3v2.1c6.3,1.7,12.3,3.7,17.8,6,11.8,4.8,20.6,10.4,26.4,16.3,5.8,5.9,8.6,12,8.6,18.1s-2.8,12.2-8.6,18.1c-5.8,5.9-14.6,11.5-26.4,16.3-47.1,19.4-124.1,19.4-171.2,0-11.8-4.8-20.6-10.4-26.4-16.3-5.8-5.9-8.6-12-8.6-18.1s2.8-12.2,8.6-18.1c5.8-5.9,14.6-11.5,26.4-16.3,23.6-9.7,54.6-14.5,85.6-14.5s25.7.9,38,2.5v-2.1c-12.3-1.7-25.2-2.5-38-2.5Z"/>
          </g>
          <g id="g15">
            <path id="path16" class="cls-1" d="M202.5,72.4c2.6,2.6,2.6,6.9,0,9.5s-6.9,2.6-9.5,0-2.6-6.9,0-9.5,6.9-2.6,9.5,0Z"/>
          </g>
        </g>
      </g>
    </g>
  </g>
</svg>
