<?xml version="1.0" encoding="UTF-8"?>
<svg xmlns="http://www.w3.org/2000/svg" version="1.1" viewBox="0 0 256 135.9">
  <defs>
    <style>
      .cls-1 {
        fill: #ebebeb;
      }

      .cls-2 {
        fill: none;
        stroke: #7a7772;
        stroke-width: 4px;
      }
    </style>
  </defs>
  <!-- Generator: Adobe Illustrator 28.7.0, SVG Export Plug-In . SVG Version: 1.2.0 Build 136)  -->
  <g>
    <g id="Layer_1">
      <g id="Layer_1-2" data-name="Layer_1">
        <path class="cls-2" d="M197.9,14.7c5.2,1.6,10.3,3.3,15,5.2,47.5,19.5,47.5,51.2,0,70.7s-124.5,19.5-172,0-47.5-51.2,0-70.7C74.4,6.2,122.7,2.1,164.9,7.8"/>
        <path class="cls-2" d="M139.9,35.5c20.5,1.1,40.3,4.9,56.1,11.4,38.1,15.7,38.1,41.1,0,56.8s-100,15.7-138.1,0c-38.1-15.7-38.1-41.1,0-56.8,14-5.8,31.1-9.4,49.2-10.9"/>
        <path class="cls-2" d="M87.6,66.4c30.7-7,70.1-5.2,96.2,5.5,31.4,12.9,31.4,33.9,0,46.8s-82.4,12.9-113.8,0c-26.7-11-30.7-27.8-12.1-40.5"/>
        <path class="cls-1" d="M92.6,62.6c2.6,2.6,2.6,6.9,0,9.5s-6.9,2.6-9.5,0-2.6-6.9,0-9.5,6.9-2.6,9.5,0"/>
        <path class="cls-1" d="M144.6,31.6c2.6,2.6,2.6,6.9,0,9.5s-6.9,2.6-9.5,0-2.6-6.9,0-9.5,6.9-2.6,9.5,0"/>
        <path class="cls-1" d="M202.6,9.4c2.6,2.6,2.6,6.9,0,9.5s-6.9,2.6-9.5,0-2.6-6.9,0-9.5c2.6-2.6,6.9-2.6,9.5,0"/>
      </g>
    </g>
  </g>
</svg>
