<?xml version="1.0" encoding="UTF-8"?><svg id="Layer_1" xmlns="http://www.w3.org/2000/svg" viewBox="0 0 256 192"><defs><style>.cls-1{font-family:OpenSans-Medium, 'Open Sans';font-size:71.52px;font-weight:500;}.cls-2{fill:#141414;}.cls-3{fill:none;stroke:#85888d;stroke-width:4px;}</style></defs><text class="cls-1" transform="translate(5.3 181.58)"><tspan x="0" y="0">Parcels</tspan></text><path class="cls-3" d="M197.89,14.7c5.24,1.55,10.26,3.3,14.98,5.24,47.48,19.53,47.48,51.18,0,70.71-47.49,19.53-124.47,19.53-171.96,0-47.48-19.53-47.48-51.18,0-70.71C74.45,6.16,122.71,2.11,164.89,7.8"/><path class="cls-3" d="M139.89,35.51c20.5,1.13,40.29,4.93,56.05,11.4,38.13,15.68,38.13,41.1,0,56.79-38.13,15.68-99.96,15.68-138.09,0-38.13-15.68-38.13-41.11,0-56.79,13.98-5.75,31.14-9.39,49.15-10.92"/><path class="cls-3" d="M87.64,66.39c30.65-7.04,70.12-5.21,96.17,5.5,31.44,12.93,31.44,33.89,0,46.81-31.44,12.93-82.41,12.93-113.84,0-26.7-10.98-30.72-27.75-12.08-40.47"/><path class="cls-2" d="M92.63,62.56c2.62,2.62,2.62,6.86,0,9.48-2.62,2.62-6.86,2.62-9.48,0-2.62-2.62-2.62-6.86,0-9.48,2.62-2.62,6.86-2.62,9.48,0"/><path class="cls-2" d="M144.63,31.56c2.62,2.62,2.62,6.86,0,9.48-2.62,2.62-6.86,2.62-9.48,0-2.62-2.62-2.62-6.86,0-9.48,2.62-2.62,6.86-2.62,9.48,0"/><path class="cls-2" d="M202.63,9.36c2.62,2.62,2.62,6.86,0,9.48-2.62,2.62-6.86,2.62-9.48,0-2.62-2.62-2.62-6.86,0-9.48,2.62-2.62,6.86-2.62,9.48,0"/></svg>
