<?xml version="1.0" encoding="UTF-8"?>
<svg xmlns="http://www.w3.org/2000/svg" xmlns:svg="http://www.w3.org/2000/svg" xmlns:sodipodi="http://sodipodi.sourceforge.net/DTD/sodipodi-0.dtd" xmlns:inkscape="http://www.inkscape.org/namespaces/inkscape" version="1.1" viewBox="0 0 670.1 140">
  <defs>
    <style>
      .cls-1, .cls-2 {
        fill: none;
      }

      .cls-3 {
        fill: #ebebeb;
      }

      .cls-2 {
        stroke: #7a7772;
        stroke-width: 4px;
      }

      .cls-4 {
        fill: #fff;
      }
    </style>
  </defs>
  <!-- Generator: Adobe Illustrator 28.7.0, SVG Export Plug-In . SVG Version: 1.2.0 Build 136)  -->
  <g>
    <g id="Layer_1">
      <sodipodi:namedview id="namedview1" bordercolor="#000000" borderopacity="0.25" inkscape:current-layer="g2" inkscape:cx="241.95694" inkscape:cy="93.531044" inkscape:deskcolor="#d1d1d1" inkscape:document-units="mm" inkscape:export-bgcolor="#ffffffff" inkscape:pagecheckerboard="false" inkscape:pageopacity="0.0" inkscape:showpageshadow="2" inkscape:window-height="1212" inkscape:window-maximized="0" inkscape:window-width="1392" inkscape:window-x="139" inkscape:window-y="25" inkscape:zoom="2.860013" labelstyle="default" pagecolor="#ffffff"/>
      <rect class="cls-1" x="-707.6" y="-692.7" width="2182.7" height="1637"/>
      <g>
        <path class="cls-4" d="M292.7,23.3c11,0,19,2.1,24,6.4,5.1,4.3,7.6,10.4,7.6,18.4s-.6,7-1.8,10.3c-1.2,3.2-3.1,6.1-5.7,8.5-2.6,2.5-6.1,4.4-10.4,5.8s-9.5,2.1-15.7,2.1h-10.3v33.4h-9.9V23.3h22.2,0ZM291.7,31.8h-11.4v34.6h9.2c5.4,0,9.9-.6,13.6-1.7s6.3-3.1,8.2-5.7c1.8-2.6,2.7-6.1,2.7-10.4s-1.8-9.9-5.4-12.6c-3.6-2.8-9.2-4.2-16.9-4.2h0Z"/>
        <path class="cls-4" d="M364.4,43.6c7.6,0,13.2,1.7,16.9,5.1,3.7,3.4,5.5,8.9,5.5,16.3v43.3h-7l-1.9-9.4h-.5c-1.8,2.3-3.6,4.3-5.6,5.8-1.9,1.6-4.2,2.8-6.7,3.5-2.5.8-5.6,1.2-9.3,1.2s-7.3-.7-10.3-2c-3-1.4-5.4-3.4-7.1-6.2-1.7-2.8-2.6-6.2-2.6-10.5,0-6.4,2.5-11.2,7.6-14.6,5-3.4,12.7-5.3,23-5.6l11-.5v-3.9c0-5.5-1.2-9.4-3.5-11.6-2.4-2.2-5.7-3.3-10-3.3s-6.5.5-9.5,1.5-5.9,2.1-8.6,3.4l-3-7.3c2.9-1.5,6.2-2.7,9.9-3.8,3.7-1,7.6-1.6,11.7-1.6v.2h0ZM377.3,76.9l-9.7.4c-7.9.3-13.5,1.6-16.8,3.9s-4.9,5.5-4.9,9.7,1.1,6.3,3.3,8.1,5.1,2.6,8.8,2.6c5.7,0,10.3-1.6,13.9-4.7s5.4-7.8,5.4-14.1v-5.9h0Z"/>
        <path class="cls-4" d="M435.7,43.4c1.3,0,2.6,0,4,.2,1.4,0,2.6.3,3.7.6l-1.2,8.9c-1-.3-2.2-.5-3.5-.6-1.3-.2-2.5-.2-3.6-.2-2.6,0-5,.5-7.2,1.5-2.3,1-4.3,2.5-6,4.4s-3,4.2-4,6.9-1.5,5.7-1.5,9v34.2h-9.7v-63.7h8l1,11.7h.4c1.3-2.4,2.9-4.5,4.8-6.5s4-3.5,6.5-4.7,5.2-1.7,8.2-1.7h.1Z"/>
        <path class="cls-4" d="M480.9,109.4c-5.7,0-10.8-1.2-15.2-3.5-4.4-2.4-7.8-6-10.2-10.8-2.4-4.8-3.7-10.9-3.7-18.3s1.3-14,3.9-18.9,6.1-8.5,10.7-10.9c4.5-2.4,9.7-3.5,15.5-3.5s6.2.3,9.2,1c3,.6,5.4,1.4,7.3,2.4l-2.9,8.1c-1.9-.8-4.2-1.5-6.7-2.1s-4.9-.9-7.1-.9c-4.4,0-8.1.9-11,2.8-2.9,1.9-5.1,4.7-6.6,8.4s-2.2,8.2-2.2,13.6.7,9.5,2.1,13.2c1.4,3.6,3.5,6.4,6.3,8.3s6.3,2.9,10.5,2.9,6.4-.4,9.1-1.1,5.2-1.6,7.4-2.5v8.6c-2.1,1.1-4.5,1.9-7.1,2.5s-5.7.9-9.3.9v-.2h0Z"/>
        <path class="cls-4" d="M536.9,43.4c5.4,0,10.1,1.2,13.9,3.6,3.9,2.4,6.8,5.8,8.9,10.1,2.1,4.3,3.1,9.4,3.1,15.1v6h-44c0,7.5,2,13.2,5.6,17.1s8.7,5.9,15.2,5.9,7.6-.4,10.7-1.1c3.1-.7,6.3-1.8,9.6-3.3v8.5c-3.2,1.4-6.4,2.5-9.6,3.1-3.2.7-6.9,1-11.2,1-6.1,0-11.5-1.2-16-3.7-4.6-2.5-8.1-6.2-10.6-11s-3.8-10.8-3.8-17.8,1.2-12.8,3.5-17.8c2.3-5,5.6-8.9,9.8-11.6,4.2-2.7,9.2-4.1,14.8-4.1h0ZM536.8,51.3c-5.2,0-9.3,1.7-12.3,5.1-3.1,3.4-4.9,8.1-5.5,14.1h33.7c0-3.8-.6-7.1-1.8-10-1.1-2.9-2.9-5.1-5.2-6.7-2.3-1.6-5.3-2.4-8.9-2.4h0Z"/>
        <path class="cls-4" d="M588.9,108.3h-9.7V17.9h9.7v90.4Z"/>
        <path class="cls-4" d="M650.4,90.8c0,4.1-1,7.5-3.1,10.3-2,2.8-4.9,4.9-8.7,6.2-3.8,1.4-8.3,2.1-13.5,2.1s-8.3-.3-11.6-1-6.1-1.7-8.5-3v-8.9c2.6,1.3,5.7,2.4,9.3,3.5,3.6,1,7.3,1.6,11,1.6,5.5,0,9.5-.9,12-2.7,2.5-1.8,3.7-4.2,3.7-7.3s-.5-3.3-1.5-4.6c-1-1.3-2.6-2.6-5-3.9-2.3-1.3-5.5-2.6-9.6-4.2-4.1-1.5-7.6-3.1-10.5-4.6-3-1.5-5.2-3.4-6.9-5.6-1.6-2.2-2.4-5.1-2.4-8.6,0-5.4,2.2-9.5,6.5-12.4,4.4-2.9,10.1-4.3,17.2-4.3s7.4.4,10.8,1.1c3.3.8,6.5,1.8,9.4,3.1l-3.3,7.7c-2.6-1.1-5.4-2.1-8.4-2.8-3-.8-6-1.2-9.1-1.2-4.5,0-7.9.7-10.3,2.2-2.4,1.5-3.6,3.5-3.6,6s.6,3.6,1.7,4.9c1.1,1.3,2.9,2.5,5.3,3.6,2.4,1.1,5.7,2.4,9.6,4,4,1.5,7.4,3,10.3,4.6,2.9,1.6,5.1,3.5,6.7,5.7,1.6,2.2,2.4,5.1,2.4,8.6h0Z"/>
      </g>
      <path class="cls-2" d="M203.5,17.7c5.2,1.6,10.3,3.3,15,5.2,47.5,19.5,47.5,51.2,0,70.7-47.5,19.5-124.5,19.5-172,0S-1,42.5,46.5,22.9c33.5-13.8,81.8-17.8,124-12.2"/>
      <path class="cls-2" d="M145.5,38.5c20.5,1.1,40.3,4.9,56,11.4,38.1,15.7,38.1,41.1,0,56.8s-100,15.7-138.1,0c-38.1-15.7-38.1-41.1,0-56.8,14-5.7,31.1-9.4,49.2-10.9"/>
      <path class="cls-2" d="M93.2,69.4c30.6-7,70.1-5.2,96.2,5.5,31.4,12.9,31.4,33.9,0,46.8s-82.4,12.9-113.8,0c-26.7-11-30.7-27.7-12.1-40.5"/>
      <path class="cls-3" d="M98.2,65.5c2.6,2.6,2.6,6.9,0,9.5s-6.9,2.6-9.5,0-2.6-6.9,0-9.5,6.9-2.6,9.5,0"/>
      <path class="cls-3" d="M150.2,34.5c2.6,2.6,2.6,6.9,0,9.5s-6.9,2.6-9.5,0-2.6-6.9,0-9.5c2.6-2.6,6.9-2.6,9.5,0"/>
      <path class="cls-3" d="M208.2,12.3c2.6,2.6,2.6,6.9,0,9.5-2.6,2.6-6.9,2.6-9.5,0s-2.6-6.9,0-9.5,6.9-2.6,9.5,0"/>
    </g>
  </g>
</svg>
