<?xml version="1.0" encoding="UTF-8" standalone="no"?>
<!-- Created with Inkscape (http://www.inkscape.org/) -->

<svg
   width="100.312mm"
   height="84.115517mm"
   viewBox="-7 12 100.312 84.115517"
   version="1.1"
   id="svg1"
   inkscape:version="1.3.2 (091e20e, 2023-11-25)"
   sodipodi:docname="logo-original.svg"
   inkscape:export-filename="logo-original-transparent.png"
   inkscape:export-xdpi="96"
   inkscape:export-ydpi="96"
   xmlns:inkscape="http://www.inkscape.org/namespaces/inkscape"
   xmlns:sodipodi="http://sodipodi.sourceforge.net/DTD/sodipodi-0.dtd"
   xmlns="http://www.w3.org/2000/svg"
   xmlns:svg="http://www.w3.org/2000/svg">
  <sodipodi:namedview
     id="namedview1"
     pagecolor="#ffffff"
     bordercolor="#000000"
     borderopacity="0.25"
     inkscape:showpageshadow="2"
     inkscape:pageopacity="0.0"
     inkscape:pagecheckerboard="false"
     inkscape:deskcolor="#d1d1d1"
     inkscape:document-units="mm"
     labelstyle="default"
     inkscape:zoom="1.8796194"
     inkscape:cx="194.72027"
     inkscape:cy="167.85313"
     inkscape:window-width="1392"
     inkscape:window-height="1212"
     inkscape:window-x="139"
     inkscape:window-y="25"
     inkscape:window-maximized="0"
     inkscape:current-layer="g2"
     inkscape:export-bgcolor="#ffffff00" />
  <defs
     id="defs1">
    <clipPath
       clipPathUnits="userSpaceOnUse"
       id="clipPath10">
      <path
         d="M 0,0 H 1024 V 768 H 0 Z"
         transform="matrix(1,0,0,-1,-431.50081,480.10251)"
         id="path10" />
    </clipPath>
    <clipPath
       clipPathUnits="userSpaceOnUse"
       id="clipPath8">
      <path
         d="M 0,0 H 1024 V 768 H 0 Z"
         transform="matrix(1,0,0,-1,-414.35401,507.15361)"
         id="path8" />
    </clipPath>
    <clipPath
       clipPathUnits="userSpaceOnUse"
       id="clipPath6">
      <path
         d="M 0,0 H 1024 V 768 H 0 Z"
         transform="matrix(1,0,0,-1,-390.40931,537.00001)"
         id="path6" />
    </clipPath>
    <clipPath
       clipPathUnits="userSpaceOnUse"
       id="clipPath3">
      <path
         d="M 0,0 H 1024 V 768 H 0 Z"
         transform="matrix(1,0,0,-1,-393.90931,370.77961)"
         id="path3" />
    </clipPath>
    <clipPath
       clipPathUnits="userSpaceOnUse"
       id="clipPath4">
      <path
         d="M 0,0 H 1024 V 768 H 0 Z"
         transform="matrix(1,0,0,-1,-501.98131,370.77961)"
         id="path4" />
    </clipPath>
  </defs>
  <g
     id="g2"
     inkscape:label="logo">
    <g
       id="g9"
       inkscape:label="Loop3"
       transform="matrix(0.26458333,0,0,0.26458333,-137.37494,-56.256312)">
      <g
         id="g8">
        <path
           id="path9"
           style="color:#000000;fill:#85888d icc-color(sRGB-IEC61966-2, 0.1, 0.52156067, 0.5333252, 0.55293274);-inkscape-stroke:none"
           d="M 80.50005 -1.0327105 C 65.398004 -1.0327105 50.304568 0.71454887 37.068896 4.1923874 L 41.284716 4.1923874 L 41.284716 5.2324265 C 53.405014 2.4388981 66.948208 1.0327193 80.50005 1.0327193 C 100.99929 1.0327193 121.49894 4.2302246 137.04156 10.621587 C 144.81286 13.817267 150.59478 17.495952 154.39263 21.347173 C 158.19048 25.198394 159.99859 29.174487 159.99859 33.10108 C 159.99859 37.027674 158.19048 41.006694 154.39263 44.857916 C 150.59478 48.709137 144.81286 52.387822 137.04156 55.583503 C 105.95633 68.366227 55.04229 68.366227 23.957079 55.583503 C 16.185778 52.387822 10.40385 48.709137 6.6060038 44.857916 C 2.8081571 41.006694 1.0000466 37.027675 1.0000466 33.10108 C 1.0000466 29.174486 2.8081571 25.198394 6.6060038 21.347173 C 7.9757498 19.958177 9.6123373 18.592894 11.498582 17.263189 L 11.498582 14.850591 C 9.0432234 16.479005 6.9230086 18.178555 5.1821756 19.943853 C 1.1208179 24.062289 -0.99946523 28.556017 -0.99946523 33.10108 C -0.99946523 37.646143 1.1208179 42.142801 5.1821756 46.261237 C 9.2435334 50.379672 15.249716 54.165624 23.196825 57.4336 C 54.985268 70.505504 106.0119 70.505504 137.80034 57.4336 C 145.74746 54.165624 151.75509 50.379672 155.81646 46.261237 C 159.87781 42.142801 161.9981 37.646144 161.9981 33.10108 C 161.9981 28.556016 159.87781 24.062289 155.81646 19.943853 C 151.75509 15.825418 145.74746 12.039463 137.80034 8.7714891 C 121.90612 2.2355369 101.2038 -1.0327105 80.50005 -1.0327105 z "
           transform="matrix(1.3333333,0,0,1.3333333,575.3344,383.86333)" />
      </g>
      <g
         id="g12" />
      <g
         id="g13">
        <path
           id="path14"
           d="m 477.7412,479.7412 c 2.6185,-2.6185 2.6185,-6.8639 0,-9.4824 -2.6185,-2.6185 -6.8639,-2.6185 -9.4824,0 -2.6185,2.6185 -2.6185,6.8639 0,9.4824 2.6185,2.6185 6.8639,2.6185 9.4824,0 z"
           style="fill:#141414 icc-color(sRGB-IEC61966-2, 0.1, 0.07843018, 0.07843018, 0.07843018);fill-opacity:1;fill-rule:nonzero;stroke:none"
           transform="matrix(1.3333333,0,0,-1.3333333,0,1024)" />
      </g>
    </g>
    <g
       id="g7"
       inkscape:label="Loop2"
       transform="matrix(0.26458333,0,0,0.26458333,-137.37494,-56.256312)">
      <g
         id="g6">
        <path
           id="path7"
           style="color:#000000;fill:#85888d icc-color(sRGB-IEC61966-2, 0.1, 0.52156067, 0.5333252, 0.55293274);-inkscape-stroke:none"
           d="M 107.53894 -0.81901566 L 107.53894 1.2493438 C 129.03181 2.1435181 149.92933 5.94821 166.31287 12.685379 C 175.75822 16.569458 182.79518 21.045912 187.43006 25.745927 C 192.06492 30.44594 194.29138 35.325278 194.29138 40.15413 C 194.29138 44.982982 192.06492 49.860855 187.43006 54.560869 C 182.79518 59.260884 175.75822 63.737336 166.31287 67.621417 C 128.53147 83.157734 66.762268 83.157735 28.980832 67.621417 C 19.535474 63.737336 12.495589 59.260884 7.8607138 54.560869 C 3.2258387 49.860855 0.99938541 44.982982 0.99938541 40.15413 C 0.99938541 35.325279 3.2258387 30.445941 7.8607138 25.745927 C 12.495589 21.045912 19.535474 16.569458 28.980832 12.685379 C 42.806386 7.0000969 59.853854 3.4182966 77.752806 1.8938751 L 77.752806 -0.17448438 C 59.63475 1.3698916 42.345807 5.0261656 28.219113 10.835282 C 18.597948 14.791656 11.335272 19.373913 6.4368856 24.341142 C 1.5384995 29.30837 -1.0001264 34.70681 -1.0001264 40.15413 C -1.0001264 45.601451 1.5384995 50.996961 6.4368856 55.96419 C 11.335272 60.931418 18.597948 65.513674 28.219113 69.470049 C 66.703784 85.295549 128.58702 85.295549 167.07166 69.470049 C 176.69282 65.513674 183.9555 60.931418 188.85388 55.96419 C 193.75226 50.996961 196.2909 45.601451 196.2909 40.15413 C 196.2909 34.70681 193.75226 29.30837 188.85388 24.341142 C 183.9555 19.373913 176.69282 14.791656 167.07166 10.835282 C 150.36227 3.9641167 129.23985 0.085461391 107.53894 -0.81901566 z "
           transform="matrix(1.3333333,0,0,1.3333333,552.472,347.7952)" />
      </g>
      <g
         id="g14">
        <path
           id="path15"
           d="m 529.7412,510.7412 c 2.6185,-2.6185 2.6185,-6.8639 0,-9.4824 -2.6185,-2.6185 -6.8639,-2.6185 -9.4824,0 -2.6185,2.6185 -2.6185,6.8639 0,9.4824 2.6185,2.6185 6.8639,2.6185 9.4824,0 z"
           style="fill:#141414 icc-color(sRGB-IEC61966-2, 0.1, 0.07843018, 0.07843018, 0.07843018);fill-opacity:1;fill-rule:nonzero;stroke:none"
           transform="matrix(1.3333333,0,0,-1.3333333,0,1024)" />
      </g>
    </g>
    <g
       id="g5"
       inkscape:label="Loop1"
       transform="matrix(0.26458333,0,0,0.26458333,-137.37494,-56.256312)">
      <g
         id="g4">
        <path
           id="path5"
           style="color:#000000;fill:#85888d icc-color(sRGB-IEC61966-2, 0.1, 0.52156067, 0.5333252, 0.55293274);-inkscape-stroke:none"
           d="M 121.59009 -1.0326746 C 90.370124 -1.0326746 59.150967 3.8858495 35.233151 13.721232 C 23.27424 18.638925 14.259393 24.329448 8.1921348 30.481975 C 2.1248761 36.634502 -0.99976013 43.292275 -0.99976013 49.999554 C -0.99976013 56.706833 2.1248761 63.364606 8.1921348 69.517133 C 14.259393 75.66966 23.27424 81.361647 35.233151 86.27934 C 83.068784 105.95015 160.11287 105.95015 207.94849 86.27934 C 219.9074 81.361647 228.92225 75.66966 234.98951 69.517133 C 241.05677 63.364606 244.1814 56.706833 244.1814 49.999554 C 244.1814 43.292275 241.05677 36.634502 234.98951 30.481975 C 228.92225 24.329448 219.9074 18.638925 207.94849 13.721232 C 202.15371 11.338328 195.92406 9.2500263 189.37574 7.4443765 L 189.37574 9.5376383 C 195.65736 11.282927 201.63471 13.286769 207.18677 15.569865 C 218.96987 20.415262 227.76193 26.001447 233.56568 31.88676 C 239.36942 37.772072 242.18189 43.910744 242.18189 49.999554 C 242.18189 56.088364 239.36942 62.2285 233.56568 68.113812 C 227.76193 73.999125 218.96987 79.583845 207.18677 84.429243 C 160.05439 103.81088 83.127267 103.81088 35.99487 84.429243 C 24.211768 79.583845 15.419711 73.999125 9.6159629 68.113812 C 3.8122152 62.2285 0.99975167 56.088364 0.99975167 49.999554 C 0.99975167 43.910744 3.8122152 37.772072 9.6159629 31.88676 C 15.419711 26.001447 24.211768 20.415262 35.99487 15.569865 C 59.561069 5.8790723 90.574631 1.0327551 121.59009 1.0327551 C 134.44456 1.0327551 147.26683 1.9138675 159.59107 3.5786537 L 159.59107 1.5132239 C 147.25291 -0.15228197 134.4367 -1.0326746 121.59009 -1.0326746 z "
           transform="matrix(1.3333333,0,0,1.3333333,520.54573,308)" />
      </g>
      <g
         id="g15">
        <path
           id="path16"
           d="m 587.7412,532.946 c 2.6185,-2.6185 2.6185,-6.8639 0,-9.4824 -2.6185,-2.6185 -6.8639,-2.6185 -9.4824,0 -2.6185,2.6185 -2.6185,6.8639 0,9.4824 2.6185,2.6185 6.8639,2.6185 9.4824,0 z"
           style="fill:#141414 icc-color(sRGB-IEC61966-2, 0.1, 0.07843018, 0.07843018, 0.07843018);fill-opacity:1;fill-rule:nonzero;stroke:none"
           transform="matrix(1.3333333,0,0,-1.3333333,0,1024)" />
      </g>
    </g>
  </g>
  <g
     id="g3"
     inkscape:label="oceanparcels text"
     transform="matrix(0.26458333,0,0,0.26458333,-137.37494,-56.256312)">
    <text
       id="text3"
       xml:space="preserve"
       transform="matrix(1.3333333,0,0,1.3333333,525.2124,529.6272)"
       clip-path="url(#clipPath3)"
       style="stroke-width:1.00063;stroke-dasharray:none"
       inkscape:label="ocean"><tspan
         style="font-variant:normal;font-weight:300;font-size:36px;font-family:Helvetica;writing-mode:lr-tb;fill:#000000 icc-color(sRGB-IEC61966-2, 0.1, 0, 0, 0);fill-opacity:1;fill-rule:nonzero;stroke:none;stroke-width:1.00063;stroke-dasharray:none"
         sodipodi:role="line"
         id="tspan3"
         x="0"
         y="0">Ocean</tspan></text>
    <text
       id="text4"
       xml:space="preserve"
       transform="matrix(1.3333333,0,0,1.3333333,669.3084,529.6272)"
       clip-path="url(#clipPath4)"
       inkscape:label="parcels"><tspan
         style="font-variant:normal;font-weight:700;font-size:36px;font-family:Helvetica;writing-mode:lr-tb;fill:#000000 icc-color(sRGB-IEC61966-2, 0.1, 0, 0, 0);fill-opacity:1;fill-rule:nonzero;stroke:none"
         id="tspan4"
         sodipodi:role="line"
         x="0"
         y="0">Parcels</tspan></text>
  </g>
</svg>
