<?xml version="1.0" encoding="UTF-8"?>
<svg xmlns="http://www.w3.org/2000/svg" version="1.1" viewBox="0 0 256 192">
  <defs>
    <style>
      .cls-1 {
        isolation: isolate;
      }

      .cls-2 {
        fill: #141414;
      }

      .cls-3 {
        fill: none;
        stroke: #85888d;
        stroke-width: 4px;
      }
    </style>
  </defs>
  <!-- Generator: Adobe Illustrator 28.7.0, SVG Export Plug-In . SVG Version: 1.2.0 Build 136)  -->
  <g>
    <g id="Layer_1">
      <g class="cls-1">
        <g class="cls-1">
          <path d="M26.2,130.5c6.6,0,11.4,1.3,14.4,3.9s4.6,6.4,4.6,11.2-.3,4.3-1,6.2c-.7,2-1.8,3.7-3.4,5.2-1.6,1.5-3.6,2.7-6.2,3.6-2.6.9-5.7,1.3-9.4,1.3h-5.8v19.6h-7.2v-51.1h14.1ZM25.7,136.5h-6.4v19.4h5.1c3,0,5.4-.3,7.4-1,2-.7,3.5-1.7,4.5-3.2s1.5-3.4,1.5-5.8-1-5.5-3-7.1c-2-1.6-5.1-2.3-9.3-2.3Z"/>
          <path d="M69.5,142.4c4.7,0,8.3,1.1,10.7,3.2,2.4,2.1,3.5,5.4,3.5,10v26h-5l-1.4-5.6h-.3c-1.1,1.4-2.2,2.6-3.4,3.5-1.2.9-2.5,1.6-4,2.1-1.5.5-3.4.7-5.6.7s-4.4-.4-6.2-1.3-3.2-2.1-4.3-3.8c-1-1.7-1.6-3.8-1.6-6.4,0-3.9,1.5-6.9,4.5-8.9s7.6-3.1,13.7-3.3l6.6-.3v-2.2c0-3-.7-5.1-2-6.4-1.3-1.2-3.2-1.9-5.6-1.9s-3.9.3-5.7.9c-1.8.6-3.6,1.3-5.2,2l-2.2-5.1c1.8-.9,3.9-1.7,6.2-2.3,2.3-.6,4.7-.9,7.3-.9ZM76.8,162.9l-5.4.2c-4.4.2-7.6.9-9.4,2.2-1.8,1.3-2.7,3.1-2.7,5.5s.6,3.5,1.9,4.5c1.2,1,2.9,1.4,4.9,1.4,3.1,0,5.7-.9,7.7-2.6,2-1.8,3-4.4,3-7.8v-3.5Z"/>
          <path d="M113.9,142.4c.7,0,1.5,0,2.3.1.8,0,1.5.2,2.1.3l-.7,6.5c-.6-.1-1.2-.3-1.9-.3s-1.4-.1-2-.1c-1.5,0-2.9.3-4.3.8-1.4.6-2.5,1.4-3.6,2.4-1,1.1-1.8,2.4-2.4,3.9-.6,1.5-.9,3.3-.9,5.2v20.4h-7.1v-38.5h5.7l.8,7h.3c.8-1.4,1.8-2.7,2.9-3.8,1.1-1.2,2.4-2.1,3.9-2.8,1.5-.7,3.1-1,4.9-1Z"/>
          <path d="M140.9,182.3c-3.5,0-6.6-.7-9.3-2.1s-4.7-3.6-6.2-6.5c-1.5-2.9-2.2-6.6-2.2-11.1s.8-8.5,2.3-11.4c1.6-3,3.7-5.2,6.5-6.6s5.9-2.1,9.5-2.1,4.1.2,5.9.6c1.8.4,3.4.9,4.6,1.6l-2.1,5.7c-1.3-.5-2.7-1-4.2-1.4-1.5-.4-2.9-.6-4.3-.6-2.5,0-4.5.5-6.1,1.6-1.6,1.1-2.8,2.7-3.6,4.8-.8,2.1-1.2,4.7-1.2,7.8s.4,5.5,1.2,7.6c.8,2.1,2,3.6,3.6,4.7,1.6,1.1,3.5,1.6,5.9,1.6s3.9-.2,5.6-.7c1.7-.5,3.2-1.1,4.6-1.8v6.2c-1.4.7-2.8,1.3-4.5,1.7-1.6.4-3.6.6-5.9.6Z"/>
          <path d="M175.4,142.4c3.4,0,6.2.7,8.6,2.1,2.4,1.4,4.2,3.5,5.5,6.1,1.3,2.6,1.9,5.7,1.9,9.2v4h-26.1c0,4.1,1.1,7.3,3.2,9.5s4.9,3.3,8.6,3.3,4.6-.2,6.5-.7c1.9-.5,3.9-1.2,5.9-2.1v5.9c-1.9.9-3.9,1.5-5.8,1.9-1.9.4-4.3.6-7,.6s-7-.7-9.8-2.2c-2.8-1.5-5-3.7-6.5-6.6-1.6-2.9-2.3-6.5-2.3-10.8s.7-7.9,2.1-10.9c1.4-3,3.4-5.3,6-6.9,2.6-1.6,5.6-2.4,9.1-2.4ZM175.4,147.8c-2.8,0-5.1.9-6.8,2.8-1.7,1.9-2.7,4.5-3,7.9h18.9c0-2.1-.4-4-1-5.6-.7-1.6-1.6-2.9-3-3.8-1.3-.9-3-1.4-5.1-1.4Z"/>
          <path d="M208.1,181.6h-7.1v-54.3h7.1v54.3Z"/>
          <path d="M245.4,170.8c0,2.5-.6,4.6-1.8,6.3-1.2,1.7-3,3-5.3,3.9s-5.1,1.3-8.4,1.3-5-.2-7-.6c-2-.4-3.7-1-5.3-1.8v-6.2c1.7.8,3.7,1.5,5.9,2.2,2.2.6,4.4.9,6.6.9s5.2-.5,6.5-1.4,2-2.2,2-3.9-.3-1.8-.8-2.5c-.5-.7-1.5-1.5-2.8-2.2s-3.3-1.6-5.7-2.5c-2.4-1-4.5-1.9-6.3-2.9-1.7-1-3.1-2.1-4-3.5s-1.4-3.1-1.4-5.2c0-3.3,1.3-5.9,4-7.6,2.7-1.8,6.2-2.6,10.6-2.6s4.5.2,6.6.7c2.1.5,4,1.1,5.9,2l-2.3,5.4c-1.7-.7-3.4-1.3-5.2-1.8-1.8-.5-3.6-.7-5.4-.7s-4.2.4-5.5,1.2-1.9,1.8-1.9,3.2.3,1.9.9,2.6c.6.7,1.6,1.4,3,2,1.4.7,3.3,1.4,5.7,2.4,2.4.9,4.4,1.8,6.1,2.8,1.7,1,3,2.1,4,3.5.9,1.4,1.4,3.1,1.4,5.3Z"/>
        </g>
      </g>
      <path class="cls-3" d="M197.9,14.7c5.2,1.6,10.3,3.3,15,5.2,47.5,19.5,47.5,51.2,0,70.7-47.5,19.5-124.5,19.5-172,0-47.5-19.5-47.5-51.2,0-70.7C74.4,6.2,122.7,2.1,164.9,7.8"/>
      <path class="cls-3" d="M139.9,35.5c20.5,1.1,40.3,4.9,56.1,11.4,38.1,15.7,38.1,41.1,0,56.8-38.1,15.7-100,15.7-138.1,0-38.1-15.7-38.1-41.1,0-56.8,14-5.8,31.1-9.4,49.2-10.9"/>
      <path class="cls-3" d="M87.6,66.4c30.7-7,70.1-5.2,96.2,5.5,31.4,12.9,31.4,33.9,0,46.8-31.4,12.9-82.4,12.9-113.8,0-26.7-11-30.7-27.8-12.1-40.5"/>
      <path class="cls-2" d="M92.6,62.6c2.6,2.6,2.6,6.9,0,9.5s-6.9,2.6-9.5,0-2.6-6.9,0-9.5,6.9-2.6,9.5,0"/>
      <path class="cls-2" d="M144.6,31.6c2.6,2.6,2.6,6.9,0,9.5-2.6,2.6-6.9,2.6-9.5,0s-2.6-6.9,0-9.5,6.9-2.6,9.5,0"/>
      <path class="cls-2" d="M202.6,9.4c2.6,2.6,2.6,6.9,0,9.5-2.6,2.6-6.9,2.6-9.5,0s-2.6-6.9,0-9.5c2.6-2.6,6.9-2.6,9.5,0"/>
    </g>
  </g>
</svg>
