<?xml version="1.0" encoding="UTF-8" standalone="no"?>
<!-- Created with Inkscape (http://www.inkscape.org/) -->

<svg
   width="90mm"
   height="90mm"
   viewBox="-24 -13 89.999997 89.999999"
   version="1.1"
   id="svg1"
   xmlns:xlink="http://www.w3.org/1999/xlink"
   xmlns="http://www.w3.org/2000/svg"
   xmlns:svg="http://www.w3.org/2000/svg">
  <defs
     id="defs1">
    <color-profile
       name="Generic-RGB-Profile"
       xlink:href="file:///System/Library/ColorSync/Profiles/Generic%20RGB%20Profile.icc"
       id="color-profile1" />
  </defs>
  <g
     id="g2"
     transform="translate(-19.000005,-22.870833)">
    <g
       id="g9"
       transform="matrix(0.26458333,0,0,0.26458333,-140.90258,-47.507751)">
      <g
         id="g8">
        <path
           id="path9"
           style="color:#000000;fill:#85888d icc-color(sRGB-IEC61966-2, 0.1, 0.52156067, 0.5333252, 0.55293274);-inkscape-stroke:none"
           d="m 80.50041,-1.0329882 c -15.101653,0 -30.195729,1.74744042 -43.431154,5.2250978 h 4.21582 V 5.2321487 C 53.40517,2.4387436 66.948867,1.0339064 80.50041,1.0339064 c 20.49924,0 40.99743,3.1960405 56.54004,9.5874026 7.7713,3.19568 13.55469,6.87583 17.35254,10.727051 3.79785,3.851221 5.60449,7.827314 5.60449,11.753907 0,3.926594 -1.80664,7.904149 -5.60449,11.755371 -3.79785,3.851222 -9.58124,7.531371 -17.35254,10.727052 -31.08523,12.782724 -81.9978,12.782724 -113.083011,0 C 16.186139,52.389009 10.402746,48.70886 6.6048992,44.857638 2.8070525,41.006416 1.0004068,37.028862 1.0004068,33.102267 c 0,-3.926594 1.8066457,-7.902686 5.6044924,-11.753907 1.369746,-1.388996 3.0077983,-2.755744 4.8940428,-4.085449 v -2.412598 c -2.4553584,1.628414 -4.577038,3.327964 -6.317871,5.093262 -4.0613578,4.118436 -6.1816409,8.613629 -6.1816409,13.158692 0,4.545063 2.1202831,9.041721 6.1816409,13.160157 4.0613577,4.118436 10.069005,7.902922 18.016114,11.170899 31.788443,13.071903 82.815075,13.071903 114.603515,0 7.94712,-3.267977 13.95475,-7.052463 18.01612,-11.170899 4.06135,-4.118436 6.18164,-8.615093 6.18164,-13.160157 0,-4.545064 -2.12029,-9.040256 -6.18164,-13.158692 C 151.75545,15.82514 145.74782,12.039186 137.8007,8.7712113 121.90648,2.2352592 101.20416,-1.0329882 80.50041,-1.0329882 Z"
           transform="matrix(1.3333333,0,0,1.3333333,575.3344,383.86333)" />
      </g>
      <g
         id="g13">
        <path
           id="path14"
           d="m 477.7412,479.7412 c 2.6185,-2.6185 2.6185,-6.8639 0,-9.4824 -2.6185,-2.6185 -6.8639,-2.6185 -9.4824,0 -2.6185,2.6185 -2.6185,6.8639 0,9.4824 2.6185,2.6185 6.8639,2.6185 9.4824,0 z"
           style="fill:#141414 icc-color(sRGB-IEC61966-2, 0.1, 0.07843018, 0.07843018, 0.07843018);fill-opacity:1;fill-rule:nonzero;stroke:none"
           transform="matrix(1.3333333,0,0,-1.3333333,0,1024)" />
      </g>
    </g>
    <g
       id="g7"
       transform="matrix(0.26458333,0,0,0.26458333,-140.90258,-47.507751)">
      <g
         id="g6">
        <path
           id="path7"
           style="color:#000000;fill:#85888d icc-color(sRGB-IEC61966-2, 0.1, 0.52156067, 0.5333252, 0.55293274);-inkscape-stroke:none"
           d="M 107.53784,-0.81782858 V 1.249066 c 21.49338,0.8940618 42.39148,4.698713 58.77539,11.436036 9.44535,3.884079 16.48231,8.360533 21.11719,13.060547 4.63486,4.700013 6.86133,9.579351 6.86133,14.408204 0,4.828851 -2.22647,9.706724 -6.86133,14.406738 -4.63488,4.700015 -11.67184,9.176468 -21.11719,13.060548 -37.7814,15.536317 -99.550602,15.536318 -137.332038,0 C 19.535834,63.737059 12.495949,59.260606 7.861074,54.560591 3.2261989,49.860577 0.99974561,44.982704 0.99974561,40.153853 c 0,-4.828852 2.22645329,-9.70819 6.86132839,-14.408204 4.634875,-4.700014 11.67476,-9.176468 21.120118,-13.060547 C 42.806746,6.9998191 59.854214,3.4180188 77.753166,1.8935973 V -0.17476215 C 59.63511,1.3696139 42.346167,5.0273527 28.219473,10.836469 18.598308,14.792843 11.335632,19.3751 6.4372458,24.342329 c -4.8983861,4.967228 -7.43701199,10.364203 -7.43701199,15.811524 0,5.44732 2.53862589,10.844295 7.43701199,15.811524 4.8983862,4.967228 12.1610622,9.549485 21.7822272,13.50586 38.484671,15.825499 100.367907,15.825499 138.852547,0 9.62116,-3.956375 16.88384,-8.538632 21.78222,-13.50586 4.89838,-4.967229 7.43702,-10.364204 7.43702,-15.811524 0,-5.447321 -2.53864,-10.844296 -7.43702,-15.811524 C 183.95586,19.3751 176.69318,14.792843 167.07202,10.836469 150.36226,3.9651496 129.23926,0.08653482 107.53784,-0.81782858 Z"
           transform="matrix(1.3333333,0,0,1.3333333,552.472,347.7952)" />
      </g>
      <g
         id="g14">
        <path
           id="path15"
           d="m 529.7412,510.7412 c 2.6185,-2.6185 2.6185,-6.8639 0,-9.4824 -2.6185,-2.6185 -6.8639,-2.6185 -9.4824,0 -2.6185,2.6185 -2.6185,6.8639 0,9.4824 2.6185,2.6185 6.8639,2.6185 9.4824,0 z"
           style="fill:#141414 icc-color(sRGB-IEC61966-2, 0.1, 0.07843018, 0.07843018, 0.07843018);fill-opacity:1;fill-rule:nonzero;stroke:none"
           transform="matrix(1.3333333,0,0,-1.3333333,0,1024)" />
      </g>
    </g>
    <g
       id="g5"
       transform="matrix(0.26458333,0,0,0.26458333,-140.90258,-47.507751)">
      <g
         id="g4">
        <path
           id="path5"
           style="color:#000000;fill:#85888d icc-color(sRGB-IEC61966-2, 0.1, 0.52156067, 0.5333252, 0.55293274);-inkscape-stroke:none"
           d="m 121.59045,-1.0329524 c -31.219965,0 -62.440587,4.9185241 -86.358403,14.7539064 -11.958911,4.917693 -20.973758,10.608216 -27.0410169,16.760743 -6.0672586,6.152527 -9.19043003,12.8103 -9.19043003,19.517579 0,6.707279 3.12317143,13.365052 9.19043003,19.517579 6.0672589,6.152527 15.0821059,11.844515 27.0410169,16.762208 47.835632,19.670817 124.881183,19.670817 172.716803,0 11.95891,-4.917693 20.97376,-10.609681 27.04102,-16.762208 6.06726,-6.152527 9.19189,-12.8103 9.19189,-19.517579 0,-6.707279 -3.12463,-13.365052 -9.19189,-19.517579 C 228.92261,24.32917 219.90776,18.638647 207.94885,13.720954 202.15443,11.338196 195.92398,9.2496736 189.3761,7.4440987 v 2.0932618 c 6.28162,1.7452885 12.25897,3.7491305 17.81103,6.0322265 11.7831,4.845397 20.57516,10.431582 26.37891,16.316895 5.80374,5.885313 8.61621,12.023984 8.61621,18.112794 0,6.08881 -2.81247,12.228946 -8.61621,18.114259 -5.80375,5.885313 -14.59581,11.470033 -26.37891,16.31543 -47.13238,19.381635 -124.060968,19.381635 -171.193364,0 C 24.210663,79.583568 15.418606,73.998848 9.6148583,68.113535 3.8111106,62.228222 1.0001119,56.088086 1.0001119,49.999276 c 0,-6.08881 2.8109987,-12.227481 8.6147464,-18.112794 C 15.418606,26.001169 24.210663,20.414984 35.993766,15.569587 59.559964,5.8787946 90.574991,1.0324774 121.59045,1.0324774 c 12.85436,0 25.67537,0.8826054 37.99951,2.5473633 V 1.5129461 c -12.33784,-1.66541387 -25.15325,-2.5458985 -37.99951,-2.5458985 z"
           transform="matrix(1.3333333,0,0,1.3333333,520.54573,308)" />
      </g>
      <g
         id="g15">
        <path
           id="path16"
           d="m 587.7412,532.946 c 2.6185,-2.6185 2.6185,-6.8639 0,-9.4824 -2.6185,-2.6185 -6.8639,-2.6185 -9.4824,0 -2.6185,2.6185 -2.6185,6.8639 0,9.4824 2.6185,2.6185 6.8639,2.6185 9.4824,0 z"
           style="fill:#141414 icc-color(sRGB-IEC61966-2, 0.1, 0.07843018, 0.07843018, 0.07843018);fill-opacity:1;fill-rule:nonzero;stroke:none"
           transform="matrix(1.3333333,0,0,-1.3333333,0,1024)" />
      </g>
    </g>
  </g>
</svg>
