<?xml version="1.0" encoding="UTF-8" standalone="no"?>
<svg
   xmlns:dc="http://purl.org/dc/elements/1.1/"
   xmlns:cc="http://creativecommons.org/ns#"
   xmlns:rdf="http://www.w3.org/1999/02/22-rdf-syntax-ns#"
   xmlns:svg="http://www.w3.org/2000/svg"
   xmlns="http://www.w3.org/2000/svg"
   xmlns:sodipodi="http://sodipodi.sourceforge.net/DTD/sodipodi-0.dtd"
   xmlns:inkscape="http://www.inkscape.org/namespaces/inkscape"
   width="6.6140785mm"
   height="10.97823mm"
   viewBox="0 0 6.6140785 10.97823"
   version="1.1"
   id="svg8"
   sodipodi:docname="marker.svg"
   inkscape:version="1.0.1 (3bc2e813f5, 2020-09-07)">
  <style
     id="style10"></style>
  <defs
     id="defs2" />
  <sodipodi:namedview
     id="base"
     pagecolor="#ffffff"
     bordercolor="#666666"
     borderopacity="1.0"
     inkscape:pageopacity="0.0"
     inkscape:pageshadow="2"
     inkscape:zoom="3.959798"
     inkscape:cx="0.94881921"
     inkscape:cy="-2.7819951"
     inkscape:document-units="mm"
     inkscape:current-layer="g26"
     inkscape:document-rotation="0"
     showgrid="false"
     inkscape:window-width="1267"
     inkscape:window-height="1040"
     inkscape:window-x="155"
     inkscape:window-y="0"
     inkscape:window-maximized="0" />
  <metadata
     id="metadata5">
    <rdf:RDF>
      <cc:Work
         rdf:about="">
        <dc:format>image/svg+xml</dc:format>
        <dc:type
           rdf:resource="http://purl.org/dc/dcmitype/StillImage" />
        <dc:title />
      </cc:Work>
    </rdf:RDF>
  </metadata>
  <g
     inkscape:label="Layer 1"
     inkscape:groupmode="layer"
     id="layer1"
     transform="translate(-89.509272,-171.04003)">
    <g
       id="g26"
       transform="translate(0.46772167,-18.909319)">
      <path
         id="path32"
         style="fill:#ffffff;fill-opacity:1;stroke-width:0.999999"
         d="m 12.498047,-0.00195313 c -2.9529008,0 -5.8818186,1.40132583 -8.1660158,3.53906253 C 3.4099134,4.3288681 2.6487611,5.2387072 2.0546875,6.2519531 0.78097778,8.2099633 -0.00159796,10.443191 0,12.691406 c 6.8195633e-4,0.997898 0.87011581,3.291747 2.21875,6.027344 0.4032234,0.847335 0.9089877,1.801742 1.4960938,2.847656 0.16336,0.294801 0.3279171,0.587597 0.4980468,0.884766 0.1123534,0.1944 0.2328989,0.399397 0.3515625,0.601562 0.1465322,0.25041 0.2870558,0.49986 0.4375,0.75 2.7496668,4.57183 5.5340949,10.421833 6.1894529,13 l 1.039063,4.080078 0.109375,0.607422 0.02344,-0.08789 0.02149,0.08789 1.55664,-5.068359 c 0.856422,-2.787591 3.694141,-8.677106 6.306641,-13.087891 0.386874,-0.653168 0.758498,-1.313336 1.119141,-1.972656 1.01923,-1.762576 1.74467,-3.20631 2.228515,-4.470703 0.864886,-1.952026 1.402344,-3.539427 1.402344,-4.287109 0,-2.403317 -0.9154,-4.8045123 -2.388672,-6.8593754 -0.619897,-0.93839 -1.387611,-1.7835244 -2.292969,-2.5214844 -2.236201,-1.9571964 -5.025597,-3.22460933 -7.818359,-3.22460933 z m 0,7.99414063 c 0.175599,0 0.362788,0.034416 0.554687,0.085937 1.068994,0.096877 2.088457,0.4575975 2.746094,1.1152344 2.804999,2.8049771 0.690948,7.7988281 -3.300781,7.7988281 -1.155001,0 -2.6407814,-0.539238 -3.3007814,-1.199218 C 8.5252206,15.120924 8.1645696,14.071192 8.078125,12.976562 8.030851,12.800535 7.998047,12.633993 7.998047,12.492188 c 0,-0.175822 0.03429,-0.36253 0.085937,-0.554688 C 8.181027,10.868925 8.5398636,9.8507614 9.1972656,9.1933594 9.8549025,8.5357225 10.874365,8.175002 11.943359,8.078125 c 0.1919,-0.051522 0.379089,-0.085937 0.554688,-0.085937 z"
         transform="matrix(0.26458333,0,0,0.26458333,89.04155,189.94935)" />
    </g>
  </g>
</svg>
