<?xml version="1.0" encoding="UTF-8" standalone="no"?>
<svg
   xmlns:dc="http://purl.org/dc/elements/1.1/"
   xmlns:cc="http://creativecommons.org/ns#"
   xmlns:rdf="http://www.w3.org/1999/02/22-rdf-syntax-ns#"
   xmlns:svg="http://www.w3.org/2000/svg"
   xmlns="http://www.w3.org/2000/svg"
   xmlns:sodipodi="http://sodipodi.sourceforge.net/DTD/sodipodi-0.dtd"
   xmlns:inkscape="http://www.inkscape.org/namespaces/inkscape"
   width="204mm"
   height="236mm"
   viewBox="0 0 204 236"
   version="1.1"
   id="svg8"
   inkscape:version="1.0.2 (e86c8708, 2021-01-15)"
   sodipodi:docname="drifter-gray.svg">
  <defs
     id="defs2" />
  <sodipodi:namedview
     id="base"
     pagecolor="#ffffff"
     bordercolor="#666666"
     borderopacity="1.0"
     inkscape:pageopacity="0.0"
     inkscape:pageshadow="2"
     inkscape:zoom="0.76"
     inkscape:cx="-3.802743"
     inkscape:cy="478.42105"
     inkscape:document-units="mm"
     inkscape:current-layer="layer1"
     inkscape:document-rotation="0"
     showgrid="false"
     inkscape:window-width="1994"
     inkscape:window-height="1506"
     inkscape:window-x="316"
     inkscape:window-y="325"
     inkscape:window-maximized="0" />
  <metadata
     id="metadata5">
    <rdf:RDF>
      <cc:Work
         rdf:about="">
        <dc:format>image/svg+xml</dc:format>
        <dc:type
           rdf:resource="http://purl.org/dc/dcmitype/StillImage" />
        <dc:title></dc:title>
      </cc:Work>
    </rdf:RDF>
  </metadata>
  <g
     inkscape:label="Layer 1"
     inkscape:groupmode="layer"
     id="layer1">
    <path
       class="selected"
       fill="#000000"
       opacity="1"
       stroke="none"
       d="M 108.68174,76.287617 C 88.465125,84.611367 73.675486,102.54315 63.623399,121.84835 55.113321,119.95702 46.358954,119.15245 37.643883,119.46072 43.889702,101.60607 54.866278,85.528937 68.578589,72.420358 79.794763,61.698017 93.074675,52.788127 107.99099,48.359333 c 14.9163,-4.428794 31.57076,-4.086387 45.5395,2.740448 13.23882,6.470108 23.34447,18.41094 29.02014,31.936256 5.67569,13.52531 7.14835,28.541553 5.8863,43.140543 -0.139,1.60779 -0.33788,3.29015 -1.26485,4.61556 -0.82227,1.17573 -2.11705,1.92375 -3.3784,2.61664 -8.04836,4.42117 -16.48464,8.14567 -25.18188,11.11745 3.26601,-12.57322 5.90951,-25.63862 3.98793,-38.48244 -1.92159,-12.843813 -9.20171,-25.556533 -21.11879,-30.900243 -10.25591,-4.598832 -22.40423,-3.135831 -32.7992,1.14407 z"
       id="path10"
       style="fill:#333333;fill-opacity:1;stroke-width:0.0945087;stroke-linecap:round;stroke-linejoin:round" />
    <path
       class="selected"
       fill="#000000"
       opacity="1"
       stroke="none"
       d="m 149.79751,166.47609 c 11.34549,-2.39493 22.34457,-6.40214 32.55792,-11.86155 -7.12323,22.35702 -20.80298,42.61177 -38.92939,57.64035 -10.54002,8.7387 -22.69497,15.78993 -35.98795,19.20498 -13.292975,3.41506 -27.781292,3.019 -40.35745,-2.45359 -15.435528,-6.71685 -26.994696,-20.71228 -32.754521,-36.43983 -5.759825,-15.72755 -6.1106,-33.0395 -3.285443,-49.538 0.09596,-0.56042 0.209117,-1.14984 0.582403,-1.58081 0.396118,-0.45732 1.011278,-0.65182 1.595598,-0.81668 6.905158,-1.94821 14.165659,-2.64711 21.319057,-2.05217 1.010212,0.084 2.346392,0.60068 2.144535,1.58724 -2.22423,10.87061 -3.75311,22.09346 -1.900202,33.03252 1.852909,10.93907 7.508009,21.66619 16.994401,27.52313 7.765292,4.79432 17.477493,5.92296 26.46107,4.23085 8.983572,-1.69211 17.294812,-6.0256 24.646462,-11.42485 8.21793,-6.03548 15.39798,-13.46087 21.13746,-21.85973 1.49741,-2.19124 3.16764,-4.64124 5.77605,-5.19186 z"
       id="path12"
       style="fill:#d9d9d9;fill-opacity:1;stroke-width:0.0945087;stroke-linecap:round;stroke-linejoin:round" />
    <path
       class="selected"
       fill="#000000"
       opacity="1"
       stroke="none"
       d="m 97.421338,90.516027 c 6.113612,-4.56205 12.951762,-8.36429 20.422162,-9.98811 7.47041,-1.62383 15.64197,-0.90444 22.18309,3.02967 5.77103,3.47095 9.9313,9.22773 12.25051,15.51953 2.31921,6.291803 2.90752,13.105053 2.62552,19.799273 -0.42357,10.05498 -2.78107,20.02624 -6.90794,29.21778 -0.29341,0.65349 -0.63328,1.34491 -1.26147,1.69531 -0.45664,0.25471 -1.00063,0.28996 -1.52385,0.31324 -9.48934,0.42224 -19.08379,-1.21259 -27.82557,-4.90292 -5.65868,-2.3888 -10.9174,-5.60494 -16.36376,-8.43897 -9.84869,-5.1248 -20.350225,-9.01078 -31.174463,-11.53576 5.975838,-13.66974 15.578771,-25.756763 27.575771,-34.709043 z"
       id="path14"
       style="fill:#333333;fill-opacity:1;stroke-width:0.0945087;stroke-linecap:round;stroke-linejoin:round" />
    <path
       class="selected"
       fill="#000000"
       opacity="1"
       stroke="none"
       d="m 78.014007,133.07827 c 19.070881,7.25696 36.311003,20.54872 56.663823,22.22934 11.74781,0.97007 23.54935,-2.11942 34.23828,-7.05599 10.68893,-4.93657 20.41713,-11.67423 30.05376,-18.4168 1.57034,0.58329 2.94928,1.66326 3.88646,3.04381 -10.23252,8.24578 -21.48472,15.28781 -33.57131,20.5017 -11.83624,5.1059 -24.79626,8.46765 -37.61304,6.97369 -23.11617,-2.69447 -41.737142,-20.38184 -64.240681,-26.28278 -22.029182,-5.77655 -46.949227,1.05285 -62.8770085,17.23159 -1.1144192,-0.72859 -2.2288385,-1.45718 -3.3432578,-2.18577 8.4079557,-11.17631 21.6022493,-18.35689 35.4403283,-20.76191 13.838078,-2.40501 28.244365,-0.26871 41.362646,4.72312 z"
       id="path16"
       style="stroke-width:0.0945087;stroke-linecap:round;stroke-linejoin:round" />
    <path
       class="selected"
       fill="#000000"
       opacity="1"
       stroke="none"
       d="m 109.09774,191.90678 c -5.08271,2.49275 -10.586982,4.25332 -16.244013,4.6154 -5.657031,0.36207 -11.47875,-0.73 -16.355501,-3.59995 -8.318033,-4.89511 -12.985201,-14.38533 -14.52778,-23.8641 -1.530464,-9.40432 -0.426059,-19.07823 1.909356,-28.31797 0.08272,-0.32724 0.192697,-0.68892 0.488436,-0.85503 0.259099,-0.14552 0.580593,-0.0936 0.872124,-0.0339 9.932897,2.0348 18.452687,8.08932 27.333584,12.95332 6.047482,3.31215 12.369274,6.1135 18.811344,8.58543 8.31517,3.19066 17.06088,5.86873 25.96702,5.48929 -7.52429,10.21393 -16.82829,19.42358 -28.25457,25.02747 z"
       id="path18"
       style="fill:#d9d9d9;fill-opacity:1;stroke-width:0.0945087;stroke-linecap:round;stroke-linejoin:round" />
    <path
       class="selected"
       fill="#000000"
       opacity="1"
       stroke="none"
       d="m 70.883147,10.835625 c -4.002352,1.277774 -7.965915,2.725763 -11.67981,4.682211 -14.156724,7.457641 -23.72035,22.138445 -26.734673,37.76833 -0.119493,0.619597 -0.970153,0.704339 -1.601296,0.63254 C 28.899753,53.694865 26.94042,53.399256 24.994644,53.032673 28.381018,34.920931 39.744281,18.262977 55.847776,9.1189677 71.95127,-0.02504133 92.574957,-1.2132783 109.30563,6.7431707 108.94599,8.4417557 108.30344,10.080929 107.41199,11.573927 101.25966,8.5470837 94.325837,7.1033547 87.467329,7.4211407 81.811008,7.6832237 76.273888,9.1145987 70.883147,10.835625 Z"
       id="path20"
       style="stroke-width:0.0945087;stroke-linecap:round;stroke-linejoin:round" />
    <path
       class="selected"
       fill="#000000"
       opacity="1"
       stroke="none"
       d="m 44.845507,54.868842 c 1.50911,-7.315703 5.6245,-13.960217 11.003405,-19.178788 5.378905,-5.21857 11.979075,-9.077123 18.913026,-11.967037 2.454677,-1.023054 4.96496,-1.932839 7.555963,-2.539724 6.743074,-1.579418 13.975467,-1.027794 20.396579,1.55567 0.13755,0.05534 0.28437,0.11968 0.35877,0.247203 0.10029,0.171884 0.0324,0.388254 -0.0374,0.574407 -0.60962,1.625196 -1.21924,3.250391 -1.82885,4.875587 -4.832692,-1.376501 -9.996043,-1.593067 -14.9284,-0.626138 -2.509316,0.491921 -4.950674,1.282912 -7.339225,2.191364 -5.928464,2.254808 -11.611886,5.274401 -16.429855,9.379609 -4.81797,4.105208 -8.749738,9.33795 -10.808284,15.301602 -0.246239,0.71336 -1.226807,0.768161 -1.982109,0.690078 -1.624526,-0.167944 -3.249053,-0.335888 -4.87358,-0.503833 z"
       id="path22"
       style="stroke-width:0.0945087;stroke-linecap:round;stroke-linejoin:round" />
    <path
       class="selected"
       fill="#000000"
       opacity="1"
       stroke="none"
       d="m 64.815109,55.75026 c -0.137899,-0.01872 -0.291414,-0.04676 -0.372297,-0.159242 -0.09471,-0.131707 -0.0452,-0.313162 0.0078,-0.466203 0.730227,-2.108429 1.473589,-4.243566 2.722105,-6.096703 1.250358,-1.855869 2.964774,-3.361036 4.788639,-4.667014 7.314013,-5.237194 16.747899,-7.461641 25.652012,-6.048574 -0.68782,1.979244 -1.44571,3.934478 -2.271769,5.860878 -0.09065,0.211398 -0.197051,0.438774 -0.403521,0.542472 -0.182744,0.09178 -0.400374,0.06404 -0.603302,0.0367 -7.758488,-1.0453 -15.959054,2.05159 -21.057603,7.952264 -0.946521,1.095433 -1.803069,2.302014 -2.250319,3.675408 -2.076995,-0.13975 -4.149185,-0.349908 -6.211747,-0.629989 z"
       id="path24"
       style="stroke-width:0.0945087;stroke-linecap:round;stroke-linejoin:round" />
  </g>
</svg>
