<?xml version="1.0" encoding="UTF-8" standalone="no"?>
<!-- Created with Inkscape (http://www.inkscape.org/) -->

<svg
   width="96.495003mm"
   height="75.156998mm"
   viewBox="-24 -13 96.495 75.156997"
   version="1.1"
   id="svg1"
   inkscape:version="1.3.2 (091e20e, 2023-11-25)"
   sodipodi:docname="logo-no-text.svg"
   inkscape:export-filename="logo-no-text-transparent.png"
   inkscape:export-xdpi="96"
   inkscape:export-ydpi="96"
   xmlns:inkscape="http://www.inkscape.org/namespaces/inkscape"
   xmlns:sodipodi="http://sodipodi.sourceforge.net/DTD/sodipodi-0.dtd"
   xmlns="http://www.w3.org/2000/svg"
   xmlns:svg="http://www.w3.org/2000/svg">
  <sodipodi:namedview
     id="namedview1"
     pagecolor="#ffffff"
     bordercolor="#000000"
     borderopacity="0.25"
     inkscape:showpageshadow="2"
     inkscape:pageopacity="0.0"
     inkscape:pagecheckerboard="false"
     inkscape:deskcolor="#d1d1d1"
     inkscape:document-units="mm"
     labelstyle="default"
     inkscape:zoom="1.8750703"
     inkscape:cx="151.9943"
     inkscape:cy="194.39271"
     inkscape:window-width="1392"
     inkscape:window-height="1212"
     inkscape:window-x="139"
     inkscape:window-y="25"
     inkscape:window-maximized="0"
     inkscape:current-layer="g2"
     inkscape:export-bgcolor="#ffffff00" />
  <defs
     id="defs1">
    <clipPath
       clipPathUnits="userSpaceOnUse"
       id="clipPath10">
      <path
         d="M 0,0 H 1024 V 768 H 0 Z"
         transform="matrix(1,0,0,-1,-431.50081,480.10251)"
         id="path10" />
    </clipPath>
    <clipPath
       clipPathUnits="userSpaceOnUse"
       id="clipPath8">
      <path
         d="M 0,0 H 1024 V 768 H 0 Z"
         transform="matrix(1,0,0,-1,-414.35401,507.15361)"
         id="path8" />
    </clipPath>
    <clipPath
       clipPathUnits="userSpaceOnUse"
       id="clipPath6">
      <path
         d="M 0,0 H 1024 V 768 H 0 Z"
         transform="matrix(1,0,0,-1,-390.40931,537.00001)"
         id="path6" />
    </clipPath>
    <clipPath
       clipPathUnits="userSpaceOnUse"
       id="clipPath3">
      <path
         d="M 0,0 H 1024 V 768 H 0 Z"
         transform="matrix(1,0,0,-1,-393.90931,370.77961)"
         id="path3" />
    </clipPath>
    <clipPath
       clipPathUnits="userSpaceOnUse"
       id="clipPath4">
      <path
         d="M 0,0 H 1024 V 768 H 0 Z"
         transform="matrix(1,0,0,-1,-501.98131,370.77961)"
         id="path4" />
    </clipPath>
  </defs>
  <g
     id="g2"
     inkscape:label="logo"
     transform="translate(-19.000005,-22.870833)">
    <g
       id="g9"
       inkscape:label="Loop3"
       transform="matrix(0.26458333,0,0,0.26458333,-137.37494,-56.256312)">
      <g
         id="g8">
        <path
           id="path9"
           style="color:#000000;fill:#85888d icc-color(sRGB-IEC61966-2, 0.1, 0.52156067, 0.5333252, 0.55293274);-inkscape-stroke:none"
           d="M 80.50041 -1.0329882 C 65.398757 -1.0329882 50.304681 0.71445222 37.069256 4.1921096 L 41.285076 4.1921096 L 41.285076 5.2321487 C 53.40517 2.4387436 66.948867 1.0339064 80.50041 1.0339064 C 100.99965 1.0339064 121.49784 4.2299469 137.04045 10.621309 C 144.81175 13.816989 150.59514 17.497139 154.39299 21.34836 C 158.19084 25.199581 159.99748 29.175674 159.99748 33.102267 C 159.99748 37.028861 158.19084 41.006416 154.39299 44.857638 C 150.59514 48.70886 144.81175 52.389009 137.04045 55.58469 C 105.95522 68.367414 55.04265 68.367414 23.957439 55.58469 C 16.186139 52.389009 10.402746 48.70886 6.6048992 44.857638 C 2.8070525 41.006416 1.0004068 37.028862 1.0004068 33.102267 C 1.0004068 29.175673 2.8070525 25.199581 6.6048992 21.34836 C 7.9746452 19.959364 9.6126975 18.592616 11.498942 17.262911 L 11.498942 14.850313 C 9.0435836 16.478727 6.921904 18.178277 5.181071 19.943575 C 1.1197132 24.062011 -1.0005699 28.557204 -1.0005699 33.102267 C -1.0005699 37.64733 1.1197132 42.143988 5.181071 46.262424 C 9.2424287 50.38086 15.250076 54.165346 23.197185 57.433323 C 54.985628 70.505226 106.01226 70.505226 137.8007 57.433323 C 145.74782 54.165346 151.75545 50.38086 155.81682 46.262424 C 159.87817 42.143988 161.99846 37.647331 161.99846 33.102267 C 161.99846 28.557203 159.87817 24.062011 155.81682 19.943575 C 151.75545 15.82514 145.74782 12.039186 137.8007 8.7712113 C 121.90648 2.2352592 101.20416 -1.0329882 80.50041 -1.0329882 z "
           transform="matrix(1.3333333,0,0,1.3333333,575.3344,383.86333)" />
      </g>
      <g
         id="g13">
        <path
           id="path14"
           d="m 477.7412,479.7412 c 2.6185,-2.6185 2.6185,-6.8639 0,-9.4824 -2.6185,-2.6185 -6.8639,-2.6185 -9.4824,0 -2.6185,2.6185 -2.6185,6.8639 0,9.4824 2.6185,2.6185 6.8639,2.6185 9.4824,0 z"
           style="fill:#141414 icc-color(sRGB-IEC61966-2, 0.1, 0.07843018, 0.07843018, 0.07843018);fill-opacity:1;fill-rule:nonzero;stroke:none"
           transform="matrix(1.3333333,0,0,-1.3333333,0,1024)" />
      </g>
    </g>
    <g
       id="g7"
       inkscape:label="Loop2"
       transform="matrix(0.26458333,0,0,0.26458333,-137.37494,-56.256312)">
      <g
         id="g6">
        <path
           id="path7"
           style="color:#000000;fill:#85888d icc-color(sRGB-IEC61966-2, 0.1, 0.52156067, 0.5333252, 0.55293274);-inkscape-stroke:none"
           d="M 107.53784 -0.81782858 L 107.53784 1.249066 C 129.03122 2.1431278 149.92932 5.947779 166.31323 12.685102 C 175.75858 16.569181 182.79554 21.045635 187.43042 25.745649 C 192.06528 30.445662 194.29175 35.325 194.29175 40.153853 C 194.29175 44.982704 192.06528 49.860577 187.43042 54.560591 C 182.79554 59.260606 175.75858 63.737059 166.31323 67.621139 C 128.53183 83.157456 66.762628 83.157457 28.981192 67.621139 C 19.535834 63.737059 12.495949 59.260606 7.861074 54.560591 C 3.2261989 49.860577 0.99974561 44.982704 0.99974561 40.153853 C 0.99974561 35.325001 3.2261989 30.445663 7.861074 25.745649 C 12.495949 21.045635 19.535834 16.569181 28.981192 12.685102 C 42.806746 6.9998191 59.854214 3.4180188 77.753166 1.8935973 L 77.753166 -0.17476215 C 59.63511 1.3696139 42.346167 5.0273527 28.219473 10.836469 C 18.598308 14.792843 11.335632 19.3751 6.4372458 24.342329 C 1.5388597 29.309557 -0.99976619 34.706532 -0.99976619 40.153853 C -0.99976619 45.601173 1.5388597 50.998148 6.4372458 55.965377 C 11.335632 60.932605 18.598308 65.514862 28.219473 69.471237 C 66.704144 85.296736 128.58738 85.296736 167.07202 69.471237 C 176.69318 65.514862 183.95586 60.932605 188.85424 55.965377 C 193.75262 50.998148 196.29126 45.601173 196.29126 40.153853 C 196.29126 34.706532 193.75262 29.309557 188.85424 24.342329 C 183.95586 19.3751 176.69318 14.792843 167.07202 10.836469 C 150.36226 3.9651496 129.23926 0.08653482 107.53784 -0.81782858 z "
           transform="matrix(1.3333333,0,0,1.3333333,552.472,347.7952)" />
      </g>
      <g
         id="g14">
        <path
           id="path15"
           d="m 529.7412,510.7412 c 2.6185,-2.6185 2.6185,-6.8639 0,-9.4824 -2.6185,-2.6185 -6.8639,-2.6185 -9.4824,0 -2.6185,2.6185 -2.6185,6.8639 0,9.4824 2.6185,2.6185 6.8639,2.6185 9.4824,0 z"
           style="fill:#141414 icc-color(sRGB-IEC61966-2, 0.1, 0.07843018, 0.07843018, 0.07843018);fill-opacity:1;fill-rule:nonzero;stroke:none"
           transform="matrix(1.3333333,0,0,-1.3333333,0,1024)" />
      </g>
    </g>
    <g
       id="g5"
       inkscape:label="Loop1"
       transform="matrix(0.26458333,0,0,0.26458333,-137.37494,-56.256312)">
      <g
         id="g4">
        <path
           id="path5"
           style="color:#000000;fill:#85888d icc-color(sRGB-IEC61966-2, 0.1, 0.52156067, 0.5333252, 0.55293274);-inkscape-stroke:none"
           d="M 121.59045 -1.0329524 C 90.370485 -1.0329524 59.149863 3.8855717 35.232047 13.720954 C 23.273136 18.638647 14.258289 24.32917 8.1910301 30.481697 C 2.1237715 36.634224 -0.99939993 43.291997 -0.99939993 49.999276 C -0.99939993 56.706555 2.1237715 63.364328 8.1910301 69.516855 C 14.258289 75.669382 23.273136 81.36137 35.232047 86.279063 C 83.067679 105.94988 160.11323 105.94988 207.94885 86.279063 C 219.90776 81.36137 228.92261 75.669382 234.98987 69.516855 C 241.05713 63.364328 244.18176 56.706555 244.18176 49.999276 C 244.18176 43.291997 241.05713 36.634224 234.98987 30.481697 C 228.92261 24.32917 219.90776 18.638647 207.94885 13.720954 C 202.15443 11.338196 195.92398 9.2496736 189.3761 7.4440987 L 189.3761 9.5373605 C 195.65772 11.282649 201.63507 13.286491 207.18713 15.569587 C 218.97023 20.414984 227.76229 26.001169 233.56604 31.886482 C 239.36978 37.771795 242.18225 43.910466 242.18225 49.999276 C 242.18225 56.088086 239.36978 62.228222 233.56604 68.113535 C 227.76229 73.998848 218.97023 79.583568 207.18713 84.428965 C 160.05475 103.8106 83.126162 103.8106 35.993766 84.428965 C 24.210663 79.583568 15.418606 73.998848 9.6148583 68.113535 C 3.8111106 62.228222 1.0001119 56.088086 1.0001119 49.999276 C 1.0001119 43.910466 3.8111106 37.771795 9.6148583 31.886482 C 15.418606 26.001169 24.210663 20.414984 35.993766 15.569587 C 59.559964 5.8787946 90.574991 1.0324774 121.59045 1.0324774 C 134.44481 1.0324774 147.26582 1.9150828 159.58996 3.5798407 L 159.58996 1.5129461 C 147.25212 -0.15246777 134.43671 -1.0329524 121.59045 -1.0329524 z "
           transform="matrix(1.3333333,0,0,1.3333333,520.54573,308)" />
      </g>
      <g
         id="g15">
        <path
           id="path16"
           d="m 587.7412,532.946 c 2.6185,-2.6185 2.6185,-6.8639 0,-9.4824 -2.6185,-2.6185 -6.8639,-2.6185 -9.4824,0 -2.6185,2.6185 -2.6185,6.8639 0,9.4824 2.6185,2.6185 6.8639,2.6185 9.4824,0 z"
           style="fill:#141414 icc-color(sRGB-IEC61966-2, 0.1, 0.07843018, 0.07843018, 0.07843018);fill-opacity:1;fill-rule:nonzero;stroke:none"
           transform="matrix(1.3333333,0,0,-1.3333333,0,1024)" />
      </g>
    </g>
  </g>
</svg>
