<?xml version="1.0" encoding="UTF-8"?>
<svg xmlns="http://www.w3.org/2000/svg" xmlns:svg="http://www.w3.org/2000/svg" xmlns:sodipodi="http://sodipodi.sourceforge.net/DTD/sodipodi-0.dtd" xmlns:inkscape="http://www.inkscape.org/namespaces/inkscape" version="1.1" viewBox="0 0 273.5 213">
  <defs>
    <style>
      .cls-1 {
        fill: #141414;
      }

      .cls-2 {
        fill: none;
        stroke: #85888d;
        stroke-width: 4px;
      }
    </style>
  </defs>
  <!-- Generator: Adobe Illustrator 28.7.0, SVG Export Plug-In . SVG Version: 1.2.0 Build 136)  -->
  <g>
    <g id="svg1" inkscape:export-filename="logo-no-text-transparent.png" inkscape:export-xdpi="96" inkscape:export-ydpi="96" inkscape:version="1.3.2 (091e20e, 2023-11-25)" sodipodi:docname="logo-no-text.svg">
      <sodipodi:namedview id="namedview1" bordercolor="#000000" borderopacity="0.25" inkscape:current-layer="g2" inkscape:cx="151.9943" inkscape:cy="194.39271" inkscape:deskcolor="#d1d1d1" inkscape:document-units="mm" inkscape:export-bgcolor="#ffffff00" inkscape:pagecheckerboard="false" inkscape:pageopacity="0.0" inkscape:showpageshadow="2" inkscape:window-height="1212" inkscape:window-maximized="0" inkscape:window-width="1392" inkscape:window-x="139" inkscape:window-y="25" inkscape:zoom="1.8750703" labelstyle="default" pagecolor="#ffffff"/>
      <g id="Layer_1">
        <path class="cls-2" d="M210.7,58.1c5.6,1.7,11,3.5,16,5.6,50.7,20.8,50.7,54.6,0,75.5s-132.9,20.8-183.6,0-50.7-54.6,0-75.5c35.8-14.6,87.3-19,132.4-12.9"/>
        <path class="cls-2" d="M148.7,80.3c21.9,1.2,43,5.2,59.9,12.2,40.7,16.8,40.7,43.9,0,60.6s-106.7,16.8-147.4,0c-40.7-16.8-40.7-43.9,0-60.6,14.9-6.2,33.2-10,52.5-11.6"/>
        <path class="cls-2" d="M92.9,113.3c32.8-7.5,74.8-5.6,102.7,5.9,33.5,13.8,33.5,36.2,0,50-33.5,13.8-88,13.8-121.5,0-28.5-11.7-32.8-29.7-12.9-43.2"/>
        <path class="cls-1" d="M98.3,109.2c2.8,2.8,2.8,7.4,0,10.1s-7.4,2.8-10.1,0-2.8-7.4,0-10.1c2.8-2.8,7.4-2.8,10.1,0"/>
        <path class="cls-1" d="M153.8,76.1c2.8,2.8,2.8,7.4,0,10.1s-7.4,2.8-10.1,0-2.8-7.4,0-10.1,7.4-2.8,10.1,0"/>
        <path class="cls-1" d="M215.7,52.4c2.8,2.8,2.8,7.4,0,10.1s-7.4,2.8-10.1,0-2.8-7.4,0-10.1c2.8-2.8,7.4-2.8,10.1,0"/>
      </g>
    </g>
  </g>
</svg>
