<svg xmlns="http://www.w3.org/2000/svg"><symbol id="arrow-right-double" viewBox="0 0 25 20"><path d="M10 12.222L2.222 20 0 17.778 7.778 10 0 2.222 2.222 0l10 10L10 12.222z"/><path d="M22 12.222L14.222 20 12 17.778 19.778 10 12 2.222 14.222 0l10 10L22 12.222z"/></symbol><symbol id="arrow-right" viewBox="0 0 12 20"><path d="M10 12.222L2.222 20 0 17.778 7.778 10 0 2.222 2.222 0l10 10L10 12.222z"/></symbol><symbol id="back" viewBox="0 0 21 20"><path d="M20.779 8.571H5.324l6.623-6.623L9.999 0l-10 10 10 10 1.948-1.948-6.623-6.623h15.455z"/></symbol><symbol id="cross" viewBox="0 0 20 20"><path d="M20 2.857L17.141 0 9.999 7.142 2.857 0 0 2.857l7.142 7.142L0 17.141 2.857 20l7.142-7.142L17.141 20 20 17.143l-7.144-7.142z"/></symbol><symbol id="external_link" viewBox="0 0 1084 1024"><path d="M963.765 903.529H120.471V120.55h361.412V-.001H.001v1024h1084.235V542.117H963.765v361.412zM722.824 0l138.14 138.14-290.816 290.816 85.213 85.293 290.896-290.896 137.979 138.059V0H722.824z"/></symbol><symbol id="facebook" viewBox="0 0 20 20"><path d="M7.971 7.215H6.286v2.751h1.685v8.081h3.241V9.931h2.261l.241-2.717h-2.502V5.667c0-.641.129-.894.748-.894h1.754v-2.82H11.47c-2.411 0-3.499 1.062-3.499 3.095v2.166z"/></symbol><symbol id="film" viewBox="0 0 32 32"><path d="M0 4v24h32V4H0zm6 22H2v-4h4v4zm0-8H2v-4h4v4zm0-8H2V6h4v4zm18 16H8V6h16v20zm6 0h-4v-4h4v4zm0-8h-4v-4h4v4zm0-8h-4V6h4v4zm-18 0v12l8-6z"/></symbol><symbol id="hamburger_open" viewBox="0 0 27 20"><path d="M25.333 12h-24C.5 12 0 11.5 0 10.667V9.334c0-.833.5-1.333 1.333-1.333h24c.833 0 1.333.5 1.333 1.333v1.333c0 .833-.5 1.333-1.333 1.333z"/></symbol><symbol id="hamburger_text" viewBox="0 0 17 20"><path d="M16.063 2.5H.813a.75.75 0 01-.812-.815v.003-.875A.75.75 0 01.816.001H.813h15.25a.75.75 0 01.812.815V.813v.875a.75.75 0 01-.815.812h.003zm0 5.063H.813a.75.75 0 01-.812-.815v.003-.875a.75.75 0 01.815-.812H.813h15.25a.75.75 0 01.812.815v-.003.813a.75.75 0 01-.816.875h.003zm0 5.062H.813a.75.75 0 01-.812-.815v.003V11a.75.75 0 01.815-.812H.813h15.25a.75.75 0 01.812.815V11v.813a.75.75 0 01-.815.812h.003zM0 19.938v-4.313h1.313l.813 2.938.75-2.938h1.313v4.313h-.813V16.5l-.875 3.438h-.812L.814 16.5v3.375zm5.063 0v-4.313h3.188v.75H5.938v.938h2.188v.75H5.938v1.188h2.438v.75zm4 0v-4.313h.875l1.75 2.875v-2.875h.813v4.313h-.875l-1.75-2.813v2.813zm4.375-4.313h.875v2.313c.002.266.024.526.066.778l-.004-.028a.683.683 0 00.249.436l.001.001c.155.117.35.188.563.188a.873.873 0 00.566-.127l-.004.002a.626.626 0 00.249-.371l.001-.004c.038-.225.061-.484.063-.749v-2.439h.813v2.25a5.967 5.967 0 01-.067 1.158l.004-.033a1.186 1.186 0 01-.252.565l.002-.002-.5.375-.813.125a2.367 2.367 0 01-.954-.131l.017.005-.5-.375a1.17 1.17 0 01-.248-.492l-.002-.008a5.127 5.127 0 01-.062-1.138l-.001.013z"/></symbol><symbol id="home" viewBox="0 0 21 20"><path d="M10.323.345L.356 10.312h2.616v9.344h5.357v-6.603h3.987v6.603h5.357v-9.344h2.616z"/></symbol><symbol id="image" viewBox="0 0 32 32"><path d="M29.996 4l.004.004v23.993l-.004.004H2.003l-.004-.004V4.004L2.003 4h27.993zM30 2H2C.9 2 0 2.9 0 4v24c0 1.1.9 2 2 2h28c1.1 0 2-.9 2-2V4c0-1.1-.9-2-2-2z"/><path d="M26 9a3 3 0 11-6 0 3 3 0 016 0zm2 17H4v-4l7-12 8 10h2l7-6z"/></symbol><symbol id="linkedin" viewBox="0 0 20 20"><path d="M2.405 0A2.404 2.404 0 000 2.405a2.405 2.405 0 104.808 0A2.406 2.406 0 002.405 0zM.329 20h4.15V6.642H.329V20zM15.033 6.308c-2.017 0-3.37 1.107-3.923 2.158h-.056V6.642H7.08V20h4.141v-6.609c0-1.743.329-3.43 2.486-3.43 2.124 0 2.154 1.993 2.154 3.543V20h4.143v-7.328c0-3.598-.776-6.364-4.971-6.364z"/></symbol><symbol id="location" viewBox="0 0 1024 1024"><path d="M512 99.994c-144.128 0-261.018 116.838-261.018 261.018S365.209 672.666 512 924.007C658.79 672.666 773.018 505.14 773.018 361.012S656.18 99.994 512 99.994zm0 348.262c-51.712 0-93.594-41.882-93.594-93.594s41.882-93.594 93.594-93.594 93.594 41.882 93.594 93.594-41.882 93.594-93.594 93.594z"/></symbol><symbol id="not_present" viewBox="0 0 150 150"><path d="M75.4 0H75C33.6 0 0 33.6 0 75s33.6 75 75 75 75-33.6 75-75c.1-41.3-33.3-74.9-74.6-75zm35.7 94.9c2.2 2.3 3.4 5.3 3.4 8.5s-1.3 6.2-3.6 8.4c-4.7 4.6-12.4 4.5-17-.2L75 92.2l-18.9 19.4c-2.2 2.3-5.2 3.6-8.4 3.6h-.2c-3.1 0-6.1-1.2-8.4-3.4-4.7-4.6-4.8-12.2-.2-17L58.3 75 38.9 55.2c-4.6-4.7-4.5-12.4.2-17s12.4-4.5 17 .2L75 57.8l18.9-19.4c4.6-4.7 12.2-4.8 17-.2 2.3 2.2 3.6 5.2 3.6 8.4s-1.2 6.2-3.4 8.5L91.7 75l19.4 19.9z"/></symbol><symbol id="pdf" viewBox="0 0 32 32"><path d="M26.313 18.421c-.427-.42-1.372-.643-2.812-.662-.974-.011-2.147.075-3.38.248-.552-.319-1.122-.665-1.568-1.083-1.202-1.122-2.205-2.68-2.831-4.394.041-.16.075-.301.108-.444 0 0 .677-3.846.498-5.146a1.526 1.526 0 00-.088-.369l-.059-.151c-.184-.425-.545-.875-1.111-.85l-.341-.011c-.631 0-1.146.323-1.281.805-.411 1.514.013 3.778.781 6.711l-.197.478c-.55 1.34-1.238 2.689-1.846 3.88l-.079.155a65.82 65.82 0 01-1.745 3.213l-.543.287c-.04.021-.97.513-1.188.645-1.852 1.106-3.079 2.361-3.282 3.357-.065.318-.017.725.313.913l.525.264c.228.114.468.172.714.172 1.319 0 2.85-1.643 4.959-5.324a49.318 49.318 0 017.638-1.815c1.852 1.043 4.129 1.767 5.567 1.767.255 0 .475-.024.654-.072a1.11 1.11 0 00.65-.444c.279-.42.335-.998.26-1.59-.023-.176-.163-.393-.315-.541zM6.614 25.439c.241-.658 1.192-1.958 2.6-3.111.088-.072.306-.276.506-.466-1.472 2.348-2.458 3.283-3.106 3.577zM14.951 6.24c.424 0 .665 1.069.685 2.07s-.214 1.705-.505 2.225c-.241-.77-.357-1.984-.357-2.778 0 0-.018-1.517.177-1.517zm-2.487 13.682c.295-.529.603-1.086.917-1.677a31.984 31.984 0 001.609-3.511c.716 1.303 1.608 2.41 2.656 3.297.131.111.269.222.415.333-2.132.422-3.974.935-5.596 1.558zm13.439-.12c-.13.081-.502.128-.741.128-.772 0-1.727-.353-3.066-.927.515-.038.986-.057 1.409-.057.774 0 1.004-.003 1.761.19s.767.585.637.667z"/><path d="M28.681 7.159c-.694-.947-1.662-2.053-2.724-3.116s-2.169-2.03-3.116-2.724C21.229.137 20.448 0 20 0H4.5A2.503 2.503 0 002 2.5v27C2 30.878 3.121 32 4.5 32h23c1.378 0 2.5-1.122 2.5-2.5V10c0-.448-.137-1.23-1.319-2.841zm-4.138-1.702A27.334 27.334 0 0126.811 8H22V3.189a27.334 27.334 0 012.543 2.268zM28 29.5c0 .271-.229.5-.5.5h-23a.507.507 0 01-.5-.5v-27c0-.271.229-.5.5-.5H20v7a1 1 0 001 1h7v19.5z"/></symbol><symbol id="present" viewBox="0 0 150 150"><path d="M75.4 0H75C33.6 0 0 33.6 0 75s33.6 75 75 75 75-33.6 75-75c.1-41.3-33.3-74.9-74.6-75zm48.8 54.6l-7.6 7.8L69.3 111c-2.2 2.3-5.4 3.6-8.6 3.6h-.4c-3.3-.1-6.5-1.6-8.7-4.1L25.7 80.8c-2.2-2.2-3.4-5.2-3.4-8.3 0-3.2 1.2-6.2 3.5-8.5s5.3-3.5 8.5-3.6h.1c3.2 0 6.2 1.2 8.4 3.5.3.3.7.7 1 1.1l17.4 19.9L107 37.8c4.6-4.7 12.2-4.8 17-.2 4.7 4.6 4.9 12.2.2 17z"/></symbol><symbol id="rss" viewBox="0 0 32 32"><path d="M4.259 23.467A4.265 4.265 0 000 27.719a4.25 4.25 0 004.259 4.244 4.25 4.25 0 004.265-4.244 4.265 4.265 0 00-4.265-4.252zM.005 10.873v6.133c3.993 0 7.749 1.562 10.577 4.391A14.897 14.897 0 0114.966 32h6.16c0-11.651-9.478-21.127-21.121-21.127zM.012 0v6.136C14.255 6.136 25.848 17.74 25.848 32H32C32 14.36 17.648 0 .012 0z"/></symbol><symbol id="search" viewBox="0 0 32 32"><path d="M31.4 30L30 31.4c-.8.8-2.2.6-3-.2l-6-6c-2.2 1.4-4.6 2.2-7.4 2.2C6.2 27.4 0 21.2 0 13.6 0 6.2 6.2 0 13.6 0c7.6 0 13.6 6.2 13.6 13.6 0 2.6-.8 5.2-2.2 7.2l6 6c1.2 1.2 1.2 2.4.4 3.2zM13.6 5.6c-4.4 0-8 3.6-8 8s3.6 8 8 8 8-3.6 8-8-3.6-8-8-8z"/></symbol><symbol id="sol-breaker" viewBox="0 0 100 100"><path class="st0" d="M99.95 52.13L71.53 48.7l27.8-6.84c-.1-.58-.2-1.16-.31-1.74L70.6 43.58l25.36-13.3c-.23-.54-.48-1.08-.73-1.61L68.46 38.84l21.43-18.97c-.36-.47-.72-.93-1.09-1.39L65.25 34.74 81.52 11.2c-.46-.37-.92-.74-1.39-1.09L61.16 31.54 71.32 4.77c-.53-.25-1.07-.5-1.61-.73L56.42 29.4 59.88.98C59.3.86 58.72.76 58.14.67l-6.84 27.8L47.86.05c-.59.02-1.18.07-1.77.11l.01 28.61L35.97 2.01c-.57.17-1.13.34-1.69.53l6.86 27.79L24.89 6.77c-.51.3-1.02.6-1.51.92l13.31 25.34-21.41-18.99c-.42.41-.84.83-1.25 1.25L33.02 36.7 7.68 23.39c-.31.5-.62 1-.92 1.51l23.56 16.25-27.79-6.86c-.18.56-.36 1.12-.53 1.69l26.77 10.14-28.6-.02c-.05.59-.09 1.17-.11 1.77l28.41 3.44-27.8 6.84c.1.58.2 1.16.31 1.74l28.42-3.47-25.36 13.3c.23.54.48 1.08.73 1.61l26.77-10.17-21.43 18.98c.36.47.72.93 1.09 1.39l23.55-16.27L18.48 88.8c.46.37.92.74 1.39 1.09l18.97-21.44-10.16 26.78c.53.25 1.07.5 1.61.73L43.58 70.6l-3.46 28.42c.58.12 1.16.22 1.74.31l6.84-27.8 3.44 28.41c.59-.02 1.18-.07 1.77-.11l-.01-28.61 10.14 26.77c.57-.17 1.13-.34 1.69-.53l-6.86-27.79 16.25 23.56c.51-.3 1.02-.6 1.51-.92L63.31 66.98l21.41 18.98c.42-.41.84-.83 1.25-1.25L66.98 63.3l25.34 13.31c.31-.5.62-1 .92-1.51L69.67 58.85l27.79 6.86c.18-.56.36-1.12.53-1.69L71.22 53.89l28.61.01c.05-.59.09-1.18.12-1.77z"/><circle cx="50" cy="50" r="50" fill="none"/></symbol><symbol id="twitter" viewBox="0 0 20 20"><path d="M18.047 5.009a6.59 6.59 0 01-1.896.52 3.315 3.315 0 001.452-1.827 6.62 6.62 0 01-2.097.801A3.305 3.305 0 009.88 7.514a9.376 9.376 0 01-6.806-3.45 3.305 3.305 0 001.022 4.408A3.296 3.296 0 012.6 8.059c-.036 1.53 1.06 2.96 2.648 3.279a3.327 3.327 0 01-1.491.057 3.305 3.305 0 003.084 2.293 6.637 6.637 0 01-4.888 1.367 9.344 9.344 0 005.061 1.483c6.13 0 9.594-5.178 9.385-9.822a6.728 6.728 0 001.648-1.709z"/></symbol><symbol id="uu-icon-bed" viewBox="0 0 150 87"><circle cx="27" cy="22.52" r="15"/><path class="cls-1" d="M6 0H0v87.5h6v-25h138v25h6v-44H6V0z"/><path class="cls-1" d="M128 15.52H46v22h104a22 22 0 00-22-22z"/></symbol><symbol id="uu-icon-bike" viewBox="0 0 150 93"><path d="M120.36 33.9a29.41 29.41 0 00-10.48 1.92l-17-34.16s-.07-.09-.1-.15a2.46 2.46 0 00-.17-.27l-.2-.24a1.39 1.39 0 00-.21-.19L92 .62l-.26-.17-.24-.13-.28-.12L91 .12l-.3-.07H75a3 3 0 000 6h13.31l12.11 24.27H62.89V25.4h4.58a3 3 0 000-6H52.33a3 3 0 000 6h4.56V32l-8.53 8.54a29.63 29.63 0 1010.78 26h.72a3 3 0 002.14-.88l29.4-29.39h12l1.11 2.23a29.62 29.62 0 1015.84-4.6zm-72 15.19a23.46 23.46 0 014.76 11.45H36.88zm-18.72 38.1a23.65 23.65 0 1114.45-42.35L27.52 61.42a3 3 0 002.12 5.12h23.45a23.67 23.67 0 01-23.45 20.65zm29.44-27.11a29.49 29.49 0 00-6.48-15.27l8.54-8.54h21.75zm61.28 27.11a23.64 23.64 0 01-13.15-43.29l10.46 21a3 3 0 002.69 1.66 3.05 3.05 0 001.34-.31 3 3 0 001.34-4l-10.46-21a23.64 23.64 0 117.78 46z"/></symbol><symbol id="uu-icon-bus" viewBox="0 0 150 150"><path d="M40 140H18v3a7 7 0 007 7h14a7 7 0 007-7v-3h-6zm86 0h-22v3a7 7 0 007 7h14a7 7 0 007-7v-3h-6zm17-93h-5V25a25 25 0 00-25-25H37a25 25 0 00-25 25v22H7a7 7 0 00-7 7v17a7 7 0 007 7h5v56h126V78h5a7 7 0 007-7V54a7 7 0 00-7-7zM50 12.5h50v6H50zM37 126a9 9 0 119-9 9 9 0 01-9 9zm61-6H52v-6h46zm15 6a9 9 0 119-9 9 9 0 01-9 9zm19-27.55c-16.6-.29-36.31-.45-57-.45s-40.38.16-57 .45V31h114z"/></symbol><symbol id="uu-icon-car" viewBox="0 0 150 106"><path d="M12 99a7 7 0 007 7h20a7 7 0 007-7v-3H12zm92 0a7 7 0 007 7h20a7 7 0 007-7v-3h-34zm37.33-56.44L131 11.54A17.76 17.76 0 00115 0H35a17.76 17.76 0 00-16 11.54l-10.33 31C3.24 44.22 0 46.37 0 49.12V77a13 13 0 0013 13h124a13 13 0 0013-13V49.12c0-2.76-3.23-4.9-8.67-6.56zM24.69 13.44A11.94 11.94 0 0135 6h80a12 12 0 0110.32 7.43l9.14 27.49C119.45 38.06 96 37.29 75 37.29s-44.48.78-59.48 3.63zM25 74a9 9 0 119-9 9 9 0 01-9 9zm75-6H50v-6h50zm25 6a9 9 0 119-9 9 9 0 01-9 9z"/></symbol><symbol id="uu-icon-elevator" viewBox="0 0 150 150"><path d="M139.32 112.43a3 3 0 01-3-3V78h-17.91v31.46a3 3 0 01-3 3H104.8L127.38 150 150 112.44s-6.67 0-10.68-.01zm-23.79-74.86a3 3 0 013 3V72h17.93V40.54a3 3 0 013-3h10.61L127.46 0l-22.62 37.56s6.67 0 10.69.01z"/><circle cx="79.41" cy="40.46" r="4.5"/><circle cx="79.41" cy="64.46" r="4.5"/><circle cx="79.41" cy="76.46" r="4.5"/><circle cx="79.41" cy="52.46" r="4.5"/><path d="M0 150h95.91V0H0zM6 6h83.91v138H6z"/><path d="M58.55 35.53H23.21c-3.6-.05-7.31 1.63-9 4.52s-1.33 6.36-1.34 9.81v34.38h9V48.33a3 3 0 016 0V138h10V84.24a3 3 0 016 0V138h10V48.33a3 3 0 016 0v35.91h9.07V49.86c0-3.45.37-6.86-1.34-9.81s-5.45-4.57-9.05-4.52z"/><rect x="30.18" y="11" width="21.33" height="21.33" rx="10" ry="10"/></symbol><symbol id="uu-icon-entrance" viewBox="0 0 150 150"><path d="M81.42 0H62.51v55.58l6 4.68V6h59.7L94 16.5v117l44 12.36V6h6v144h6V0zm23.08 79.52A4.5 4.5 0 11109 75a4.49 4.49 0 01-4.5 4.52zM68.51 89.76l-6 4.68V150h6.03v-6h-.03V89.76z"/><path d="M32.65 52.93a5 5 0 01-5 5H0v34.3h27.65a5 5 0 015 5v12.85l45-35-45-35.08s.02 7.63 0 12.93z"/></symbol><symbol id="uu-icon-info" viewBox="0 0 150 150"><path d="M75 0a75 75 0 1075 75A75.09 75.09 0 0075 0zM63.74 28.93a10.49 10.49 0 014-4.33A11.77 11.77 0 0174 23h.06A11.73 11.73 0 0180 24.39a9.74 9.74 0 013.76 3.69A10.25 10.25 0 0185 33.17a11.78 11.78 0 01-3.15 8.5q-3.15 3.3-9 3.3h-.06a10.77 10.77 0 01-5.39-1.33 9.73 9.73 0 01-5-8.71 13.22 13.22 0 011.34-6zM92.83 125h-35.6v-8.11l8.11-1.21V69.19l-8.17-2.48v-9.27l23.85-3h.31l3.75 2.66v58.66l7.75 1.15z"/></symbol><symbol id="uu-icon-parking" viewBox="0 0 150 150"><path d="M86.06 45.93Q82 42.38 73.31 42.37h-9.65v29.69h7q9.78 0 14.64-3.87t4.85-11.25q-.02-7.45-4.09-11.01z"/><path d="M132 0H18A18 18 0 000 18v114a18 18 0 0018 18h114a18 18 0 0018-18V18a18 18 0 00-18-18zm-30.55 80.88q-10.08 8.55-28.69 8.55h-9.1V125h-21.2V25H74.4q18.19 0 27.67 7.83t9.47 23.36q0 16.14-10.09 24.69z"/></symbol><symbol id="uu-icon-wheelchair" viewBox="0 0 126 150"><circle cx="91.07" cy="16.03" r="16.03" transform="rotate(-51.92 91.07 16.034)"/><path d="M50.4 57.29zm74.24 23.92a11 11 0 00-13.26-10.79l-28.23 5 5.71-15.68a23.8 23.8 0 00-14.22-30.51l-21-6.94a11 11 0 00-14.68 8.78l-4.1 23.27a7.53 7.53 0 00-.12 1.35 7.94 7.94 0 0015.7 1.64L53.63 39l15.58 5.14L54.3 85.1c-2.45 6.75 1.33 11.26 8.4 10L109 87l1.18 40.66H126z"/><path d="M92.88 95.89l-3 .52c.13 1.35.21 2.71.21 4a40.56 40.56 0 11-58.74-36.19l.21-.1a13.92 13.92 0 01-2.11-3.93 12.56 12.56 0 01-.38-1.33v-.14c-.09-.41-.16-.83-.21-1.25v-.25a15.11 15.11 0 01-.09-1.51v-.2a49.64 49.64 0 1070.02 39.34z"/></symbol><symbol id="youtube" viewBox="0 0 20 20"><path d="M17.906 7.039c-.253-2.15-1.105-2.447-2.801-2.562-2.412-.164-7.795-.164-10.209 0-1.696.115-2.548.412-2.801 2.562-.188 1.596-.188 4.321 0 5.923.253 2.15 1.105 2.447 2.801 2.562 2.413.164 7.797.164 10.209 0 1.696-.115 2.548-.412 2.801-2.562.188-1.596.188-4.321 0-5.923zm-9.509 5.208V7.758l4.305 2.245-4.305 2.245z"/></symbol></svg>
